solid model
facet normal 0.5552417399135077 -0.794708790739979 -0.24524385451713304
  outer loop
    vertex 0.0 0.0 0.0
    vertex 0.28167968741522176 0.21653095786061735 -0.06393120827157989
    vertex 0.07373472197653384 -0.024505569432380712 0.24634821896452694
  endloop
endfacet
facet normal 0.7914580114154937 -0.5745069586721344 0.20865275124839974
  outer loop
    vertex 0.28167968741522176 0.21653095786061735 -0.06393120827157989
    vertex 0.5000375796720662 0.5 -0.11169557200822808
    vertex 0.23882355118874551 0.25417914790917395 0.20229092005749089
  endloop
endfacet
facet normal 0.8580465017738723 -0.5127856476110856 -0.028409160453979218
  outer loop
    vertex 0.07373472197653384 -0.024505569432380712 0.24634821896452694
    vertex 0.23882355118874551 0.25417914790917395 0.20229092005749089
    vertex 0.05514160521569628 -0.06967023628387843 0.5
  endloop
endfacet
facet normal 0.8559756468522334 -0.4746718069127832 0.2049203936118952
  outer loop
    vertex 0.28167968741522176 0.21653095786061735 -0.06393120827157989
    vertex 0.23882355118874551 0.25417914790917395 0.20229092005749089
    vertex 0.07373472197653384 -0.024505569432380712 0.24634821896452694
  endloop
endfacet
facet normal 0.6470993189609403 0.3190853429646646 0.6924211256926016
  outer loop
    vertex 0.5000375796720662 0.5 -0.11169557200822808
    vertex 0.30450411714731673 0.8078336806478834 -0.07081820154971806
    vertex 0.39917222039004596 0.31061557923494176 0.06984091422245464
  endloop
endfacet
facet normal 0.42755287628900096 0.37423945420830906 0.8228872151703835
  outer loop
    vertex 0.30450411714731673 0.8078336806478834 -0.07081820154971806
    vertex 0.0 1.0 0.0
    vertex 0.08767857931034748 0.6197496432973616 0.12737767126462743
  endloop
endfacet
facet normal 0.4952123988357559 0.3510861120889154 0.7946717699387752
  outer loop
    vertex 0.39917222039004596 0.31061557923494176 0.06984091422245464
    vertex 0.08767857931034748 0.6197496432973616 0.12737767126462743
    vertex 0.1851670013772059 0.2361157283763063 0.2361157283763063
  endloop
endfacet
facet normal 0.47124306623677686 0.322011133547136 0.8211204554725506
  outer loop
    vertex 0.30450411714731673 0.8078336806478834 -0.07081820154971806
    vertex 0.08767857931034748 0.6197496432973616 0.12737767126462743
    vertex 0.39917222039004596 0.31061557923494176 0.06984091422245464
  endloop
endfacet
facet normal 0.9579610209422834 -0.2825479856650283 0.04977266470516732
  outer loop
    vertex 0.05514160521569628 -0.06967023628387843 0.5
    vertex 0.11324502577934731 0.10868010500361144 0.39415309706340745
    vertex 0.0615327952773349 -0.004057853661581564 0.7494569190072026
  endloop
endfacet
facet normal 0.9128415375241792 -0.3970447844188587 0.09526681760337398
  outer loop
    vertex 0.11324502577934731 0.10868010500361144 0.39415309706340745
    vertex 0.1851670013772059 0.2361157283763063 0.2361157283763063
    vertex 0.08963910979848236 0.10715151638765272 0.6139729989765499
  endloop
endfacet
facet normal 0.9703557039541398 0.04422264425277852 0.23760085340536566
  outer loop
    vertex 0.0615327952773349 -0.004057853661581564 0.7494569190072026
    vertex 0.08963910979848236 0.10715151638765272 0.6139729989765499
    vertex 0.0 0.0 1.0
  endloop
endfacet
facet normal 0.9870244074030475 -0.12135173437169203 0.1051502532362381
  outer loop
    vertex 0.11324502577934731 0.10868010500361144 0.39415309706340745
    vertex 0.08963910979848236 0.10715151638765272 0.6139729989765499
    vertex 0.0615327952773349 -0.004057853661581564 0.7494569190072026
  endloop
endfacet
facet normal -0.452136117060644 -0.479888877386023 -0.7518507810799335
  outer loop
    vertex 0.5000375796720662 0.5 -0.11169557200822808
    vertex 0.39917222039004596 0.31061557923494176 0.06984091422245464
    vertex 0.23882355118874551 0.25417914790917395 0.20229092005749089
  endloop
endfacet
facet normal 0.29101315625077645 0.6757030409777072 0.6773010728637896
  outer loop
    vertex 0.39917222039004596 0.31061557923494176 0.06984091422245464
    vertex 0.1851670013772059 0.2361157283763063 0.2361157283763063
    vertex 0.11324502577934731 0.10868010500361144 0.39415309706340745
  endloop
endfacet
facet normal 0.8001357049673226 0.09117253402414485 0.5928494097796353
  outer loop
    vertex 0.23882355118874551 0.25417914790917395 0.20229092005749089
    vertex 0.11324502577934731 0.10868010500361144 0.39415309706340745
    vertex 0.05514160521569628 -0.06967023628387843 0.5
  endloop
endfacet
facet normal -0.3650884193066251 -0.6110641711669356 -0.702361035938253
  outer loop
    vertex 0.39917222039004596 0.31061557923494176 0.06984091422245464
    vertex 0.11324502577934731 0.10868010500361144 0.39415309706340745
    vertex 0.23882355118874551 0.25417914790917395 0.20229092005749089
  endloop
endfacet
facet normal 0.7804073664043298 -0.3185297681672036 -0.5380549500313193
  outer loop
    vertex 0.0 1.0 1.0
    vertex -0.04147888889165488 0.7349544270150322 1.0967456473958677
    vertex -0.12676642088721815 1.1048210035780883 0.7540807706830375
  endloop
endfacet
facet normal 0.9569647546198714 0.13689108120949403 -0.2558892148970425
  outer loop
    vertex -0.04147888889165488 0.7349544270150322 1.0967456473958677
    vertex 0.03079047462722384 0.5 1.2413241056642967
    vertex -0.11590964781480265 0.8192466287903559 0.8634854752759763
  endloop
endfacet
facet normal 0.8447353677796059 -0.16315657332251915 -0.5097078486779533
  outer loop
    vertex -0.12676642088721815 1.1048210035780883 0.7540807706830375
    vertex -0.11590964781480265 0.8192466287903559 0.8634854752759763
    vertex -0.27118431100213797 1.1508630559583897 0.5
  endloop
endfacet
facet normal 0.938576928014228 -0.0917562978205638 -0.3326471584271221
  outer loop
    vertex -0.04147888889165488 0.7349544270150322 1.0967456473958677
    vertex -0.11590964781480265 0.8192466287903559 0.8634854752759763
    vertex -0.12676642088721815 1.1048210035780883 0.7540807706830375
  endloop
endfacet
facet normal 0.9795699631336633 -0.0904391567675224 0.17962028351356438
  outer loop
    vertex 0.03079047462722384 0.5 1.2413241056642967
    vertex 0.025116068355058578 0.2395268615520491 1.141121095698369
    vertex 0.10758277678718359 0.3452901928916473 0.744636007030998
  endloop
endfacet
facet normal 0.9651100322790207 -0.2004534344440976 0.16846675106368383
  outer loop
    vertex 0.025116068355058578 0.2395268615520491 1.141121095698369
    vertex 0.0 0.0 1.0
    vertex 0.08963910979848236 0.10715151638765272 0.6139729989765499
  endloop
endfacet
facet normal 0.9671454137823721 -0.17437691486317378 0.18499308139096948
  outer loop
    vertex 0.10758277678718359 0.3452901928916473 0.744636007030998
    vertex 0.08963910979848236 0.10715151638765272 0.6139729989765499
    vertex 0.1851670013772059 0.2361157283763063 0.2361157283763063
  endloop
endfacet
facet normal 0.9739619641313066 -0.1609782580490049 0.15963737927251034
  outer loop
    vertex 0.025116068355058578 0.2395268615520491 1.141121095698369
    vertex 0.08963910979848236 0.10715151638765272 0.6139729989765499
    vertex 0.10758277678718359 0.3452901928916473 0.744636007030998
  endloop
endfacet
facet normal 0.8514206880127689 0.13220420933169544 0.5075478884389576
  outer loop
    vertex -0.27118431100213797 1.1508630559583897 0.5
    vertex -0.09934688193090668 0.6746977420257503 0.335769421673882
    vertex -0.11628683950089928 1.091571189464584 0.25560084032872965
  endloop
endfacet
facet normal 0.7410562954224679 0.350622189513854 0.5726252240647798
  outer loop
    vertex -0.09934688193090668 0.6746977420257503 0.335769421673882
    vertex 0.1851670013772059 0.2361157283763063 0.2361157283763063
    vertex 0.08767857931034748 0.6197496432973616 0.12737767126462743
  endloop
endfacet
facet normal 0.9026057174172198 0.30864276824734915 0.30007092577315614
  outer loop
    vertex -0.11628683950089928 1.091571189464584 0.25560084032872965
    vertex 0.08767857931034748 0.6197496432973616 0.12737767126462743
    vertex 0.0 1.0 0.0
  endloop
endfacet
facet normal 0.7551842318213766 0.15325490378847512 0.6373458327102661
  outer loop
    vertex -0.09934688193090668 0.6746977420257503 0.335769421673882
    vertex 0.08767857931034748 0.6197496432973616 0.12737767126462743
    vertex -0.11628683950089928 1.091571189464584 0.25560084032872965
  endloop
endfacet
facet normal 0.9051913874102988 0.4249363985912922 0.007590079741393691
  outer loop
    vertex 0.03079047462722384 0.5 1.2413241056642967
    vertex 0.10758277678718359 0.3452901928916473 0.744636007030998
    vertex -0.11590964781480265 0.8192466287903559 0.8634854752759763
  endloop
endfacet
facet normal 0.840094884673119 0.5423123560487015 0.01174279451261192
  outer loop
    vertex 0.10758277678718359 0.3452901928916473 0.744636007030998
    vertex 0.1851670013772059 0.2361157283763063 0.2361157283763063
    vertex -0.09934688193090668 0.6746977420257503 0.335769421673882
  endloop
endfacet
facet normal 0.9304883231677338 0.35970229030123485 -0.06932346500677164
  outer loop
    vertex -0.11590964781480265 0.8192466287903559 0.8634854752759763
    vertex -0.09934688193090668 0.6746977420257503 0.335769421673882
    vertex -0.27118431100213797 1.1508630559583897 0.5
  endloop
endfacet
facet normal 0.8912597421385164 0.44373449084916444 -0.09357229116580379
  outer loop
    vertex 0.10758277678718359 0.3452901928916473 0.744636007030998
    vertex -0.09934688193090668 0.6746977420257503 0.335769421673882
    vertex -0.11590964781480265 0.8192466287903559 0.8634854752759763
  endloop
endfacet
facet normal 0.7810194354825895 0.5377031596935286 0.31762234407241097
  outer loop
    vertex 0.0 0.0 0.0
    vertex 0.15507381366972214 -0.3020699551646706 0.1300547889686559
    vertex 0.06272183002902071 0.0556659358957495 -0.24846714777141388
  endloop
endfacet
facet normal 0.8784968304653464 0.4683804744390696 -0.09414377316940542
  outer loop
    vertex 0.15507381366972214 -0.3020699551646706 0.1300547889686559
    vertex 0.28992099307279534 -0.5 0.4036390158375662
    vertex 0.14828404933154193 -0.3343604328517655 -0.09395382041324515
  endloop
endfacet
facet normal 0.9678379318397857 0.126073962982512 -0.21770414224348267
  outer loop
    vertex 0.06272183002902071 0.0556659358957495 -0.24846714777141388
    vertex 0.14828404933154193 -0.3343604328517655 -0.09395382041324515
    vertex 0.013351014008420021 0.00032702844165401115 -0.5
  endloop
endfacet
facet normal 0.979679896835507 0.1921793851914059 -0.05739672154246815
  outer loop
    vertex 0.15507381366972214 -0.3020699551646706 0.1300547889686559
    vertex 0.14828404933154193 -0.3343604328517655 -0.09395382041324515
    vertex 0.06272183002902071 0.0556659358957495 -0.24846714777141388
  endloop
endfacet
facet normal 0.8442334394938368 -0.535039201466185 -0.03166942586839065
  outer loop
    vertex 0.28992099307279534 -0.5 0.4036390158375662
    vertex 0.14759786317353576 -0.7095462312152757 0.14981385057830007
    vertex 0.3066364321320165 -0.44943318007637056 -0.005067425409481917
  endloop
endfacet
facet normal 0.8964973307911948 -0.4423021238840906 -0.02571705838321686
  outer loop
    vertex 0.14759786317353576 -0.7095462312152757 0.14981385057830007
    vertex 0.0 -1.0 0.0
    vertex 0.1434766495954847 -0.6967106684985189 -0.2146078295205531
  endloop
endfacet
facet normal 0.8262502580542153 -0.5629143243929946 0.02092783931802781
  outer loop
    vertex 0.3066364321320165 -0.44943318007637056 -0.005067425409481917
    vertex 0.1434766495954847 -0.6967106684985189 -0.2146078295205531
    vertex 0.34094208873561144 -0.4142931110270428 -0.4142931110270428
  endloop
endfacet
facet normal 0.8452185200982844 -0.533668094297654 -0.028355218418772137
  outer loop
    vertex 0.14759786317353576 -0.7095462312152757 0.14981385057830007
    vertex 0.1434766495954847 -0.6967106684985189 -0.2146078295205531
    vertex 0.3066364321320165 -0.44943318007637056 -0.005067425409481917
  endloop
endfacet
facet normal 0.8426198300631873 0.5363414279300606 -0.04826691071768333
  outer loop
    vertex 0.013351014008420021 0.00032702844165401115 -0.5
    vertex 0.15862371369193462 -0.22592042514299882 -0.4779605700221246
    vertex -0.014704900139686172 0.02195617908971072 -0.7494433534118954
  endloop
endfacet
facet normal 0.7062460163249137 0.7050911495084266 0.06374194309930786
  outer loop
    vertex 0.15862371369193462 -0.22592042514299882 -0.4779605700221246
    vertex 0.34094208873561144 -0.4142931110270428 -0.4142931110270428
    vertex 0.16744632933802608 -0.21377390901290905 -0.7100736411792893
  endloop
endfacet
facet normal 0.7918403040952252 0.6106875979358514 -0.007042054935969746
  outer loop
    vertex -0.014704900139686172 0.02195617908971072 -0.7494433534118954
    vertex 0.16744632933802608 -0.21377390901290905 -0.7100736411792893
    vertex 0.0 0.0 -1.0
  endloop
endfacet
facet normal 0.7847191966774805 0.6167327305719539 0.06210089699119763
  outer loop
    vertex 0.15862371369193462 -0.22592042514299882 -0.4779605700221246
    vertex 0.16744632933802608 -0.21377390901290905 -0.7100736411792893
    vertex -0.014704900139686172 0.02195617908971072 -0.7494433534118954
  endloop
endfacet
facet normal 0.5362850096190973 0.8346987288428893 0.12520551316099973
  outer loop
    vertex 0.28992099307279534 -0.5 0.4036390158375662
    vertex 0.3066364321320165 -0.44943318007637056 -0.005067425409481917
    vertex 0.14828404933154193 -0.3343604328517655 -0.09395382041324515
  endloop
endfacet
facet normal 0.6930130578477269 0.7110106777649977 0.119149980095263
  outer loop
    vertex 0.3066364321320165 -0.44943318007637056 -0.005067425409481917
    vertex 0.34094208873561144 -0.4142931110270428 -0.4142931110270428
    vertex 0.15862371369193462 -0.22592042514299882 -0.4779605700221246
  endloop
endfacet
facet normal 0.8205086985804606 0.5439614730902399 0.17570256499919112
  outer loop
    vertex 0.14828404933154193 -0.3343604328517655 -0.09395382041324515
    vertex 0.15862371369193462 -0.22592042514299882 -0.4779605700221246
    vertex 0.013351014008420021 0.00032702844165401115 -0.5
  endloop
endfacet
facet normal 0.47274874747316836 0.8446216841404618 0.2512425768899059
  outer loop
    vertex 0.3066364321320165 -0.44943318007637056 -0.005067425409481917
    vertex 0.15862371369193462 -0.22592042514299882 -0.4779605700221246
    vertex 0.14828404933154193 -0.3343604328517655 -0.09395382041324515
  endloop
endfacet
facet normal 0.9061786637037885 0.39726437160306005 -0.1449870632257988
  outer loop
    vertex 0.0 -1.0 -1.0
    vertex -0.08942312164816606 -0.7027887998278479 -0.7445420648824181
    vertex 0.13745195208560362 -1.2260302982574514 -0.7602390096710004
  endloop
endfacet
facet normal 0.7444179449360938 0.6407596100267149 0.1878005468989242
  outer loop
    vertex -0.08942312164816606 -0.7027887998278479 -0.7445420648824181
    vertex -0.3276528031339222 -0.5 -0.49212758365919573
    vertex 0.032851241432794887 -0.9112081734532398 -0.5181130837889497
  endloop
endfacet
facet normal 0.7883951064478794 0.5176139691506597 -0.33242884211382256
  outer loop
    vertex 0.13745195208560362 -1.2260302982574514 -0.7602390096710004
    vertex 0.032851241432794887 -0.9112081734532398 -0.5181130837889497
    vertex 0.33847298387832375 -1.3650780237637865 -0.5
  endloop
endfacet
facet normal 0.90894436918319 0.3978529333996808 -0.1246321672580639
  outer loop
    vertex -0.08942312164816606 -0.7027887998278479 -0.7445420648824181
    vertex 0.032851241432794887 -0.9112081734532398 -0.5181130837889497
    vertex 0.13745195208560362 -1.2260302982574514 -0.7602390096710004
  endloop
endfacet
facet normal 0.3841519191303662 -0.7612081641918954 -0.5224839076910035
  outer loop
    vertex -0.3276528031339222 -0.5 -0.49212758365919573
    vertex -0.12525560857462675 -0.2444140550516684 -0.7156805687587712
    vertex -0.006328404781650849 -0.39119582448178725 -0.41439359608570026
  endloop
endfacet
facet normal 0.09309526764325564 -0.7749302985528488 -0.6251530240886813
  outer loop
    vertex -0.12525560857462675 -0.2444140550516684 -0.7156805687587712
    vertex 0.0 0.0 -1.0
    vertex 0.16744632933802608 -0.21377390901290905 -0.7100736411792893
  endloop
endfacet
facet normal -0.05580209813209009 -0.8413302674230841 -0.5376332457743458
  outer loop
    vertex -0.006328404781650849 -0.39119582448178725 -0.41439359608570026
    vertex 0.16744632933802608 -0.21377390901290905 -0.7100736411792893
    vertex 0.34094208873561144 -0.4142931110270428 -0.4142931110270428
  endloop
endfacet
facet normal 0.10088242847309568 -0.8781443085158483 -0.4676380106948037
  outer loop
    vertex -0.12525560857462675 -0.2444140550516684 -0.7156805687587712
    vertex 0.16744632933802608 -0.21377390901290905 -0.7100736411792893
    vertex -0.006328404781650849 -0.39119582448178725 -0.41439359608570026
  endloop
endfacet
facet normal 0.8265248625685936 0.03770954154219478 0.5616356844366686
  outer loop
    vertex 0.33847298387832375 -1.3650780237637865 -0.5
    vertex 0.289292595394206 -0.8893364899661669 -0.4595666384275528
    vertex 0.18312136716249064 -1.1176324446784778 -0.2879926122725921
  endloop
endfacet
facet normal 0.7971822839360635 -0.14258534408958864 0.5866598893987343
  outer loop
    vertex 0.289292595394206 -0.8893364899661669 -0.4595666384275528
    vertex 0.34094208873561144 -0.4142931110270428 -0.4142931110270428
    vertex 0.1434766495954847 -0.6967106684985189 -0.2146078295205531
  endloop
endfacet
facet normal 0.840956820747796 -0.015094776968165389 0.540891646585562
  outer loop
    vertex 0.18312136716249064 -1.1176324446784778 -0.2879926122725921
    vertex 0.1434766495954847 -0.6967106684985189 -0.2146078295205531
    vertex 0.0 -1.0 0.0
  endloop
endfacet
facet normal 0.8559356330261755 -0.009517738382757173 0.5169947821517715
  outer loop
    vertex 0.289292595394206 -0.8893364899661669 -0.4595666384275528
    vertex 0.1434766495954847 -0.6967106684985189 -0.2146078295205531
    vertex 0.18312136716249064 -1.1176324446784778 -0.2879926122725921
  endloop
endfacet
facet normal 0.16408089011548355 0.2048268250831124 -0.9649473732931153
  outer loop
    vertex -0.3276528031339222 -0.5 -0.49212758365919573
    vertex -0.006328404781650849 -0.39119582448178725 -0.41439359608570026
    vertex 0.032851241432794887 -0.9112081734532398 -0.5181130837889497
  endloop
endfacet
facet normal 0.006551145040229145 0.09416616883555029 -0.9955349391887242
  outer loop
    vertex -0.006328404781650849 -0.39119582448178725 -0.41439359608570026
    vertex 0.34094208873561144 -0.4142931110270428 -0.4142931110270428
    vertex 0.289292595394206 -0.8893364899661669 -0.4595666384275528
  endloop
endfacet
facet normal 0.21287080676872416 0.10457107424311694 -0.9714684297789986
  outer loop
    vertex 0.032851241432794887 -0.9112081734532398 -0.5181130837889497
    vertex 0.289292595394206 -0.8893364899661669 -0.4595666384275528
    vertex 0.33847298387832375 -1.3650780237637865 -0.5
  endloop
endfacet
facet normal 0.2010502304015858 0.20615519870552146 -0.9576423334952128
  outer loop
    vertex -0.006328404781650849 -0.39119582448178725 -0.41439359608570026
    vertex 0.289292595394206 -0.8893364899661669 -0.4595666384275528
    vertex 0.032851241432794887 -0.9112081734532398 -0.5181130837889497
  endloop
endfacet
facet normal 0.9021713256262821 0.3624096453710854 -0.23397894811226236
  outer loop
    vertex 0.0 0.0 0.0
    vertex 0.07373472197653384 -0.024505569432380712 0.24634821896452694
    vertex 0.15507381366972214 -0.3020699551646706 0.1300547889686559
  endloop
endfacet
facet normal 0.8892034989156643 0.4347254922160276 0.1425864086569001
  outer loop
    vertex 0.07373472197653384 -0.024505569432380712 0.24634821896452694
    vertex 0.05514160521569628 -0.06967023628387843 0.5
    vertex 0.16837291406330376 -0.2906088429599121 0.46747213481972855
  endloop
endfacet
facet normal 0.8568600200316202 0.5130006738490056 -0.05119779977574663
  outer loop
    vertex 0.15507381366972214 -0.3020699551646706 0.1300547889686559
    vertex 0.16837291406330376 -0.2906088429599121 0.46747213481972855
    vertex 0.28992099307279534 -0.5 0.4036390158375662
  endloop
endfacet
facet normal 0.9529766289066782 0.2992620355740052 -0.04772608114821909
  outer loop
    vertex 0.07373472197653384 -0.024505569432380712 0.24634821896452694
    vertex 0.16837291406330376 -0.2906088429599121 0.46747213481972855
    vertex 0.15507381366972214 -0.3020699551646706 0.1300547889686559
  endloop
endfacet
facet normal 0.9939218673250985 0.09750413870160067 -0.05111031783356657
  outer loop
    vertex 0.05514160521569628 -0.06967023628387843 0.5
    vertex 0.0615327952773349 -0.004057853661581564 0.7494569190072026
    vertex 0.08715094621492155 -0.35858887789766436 0.5712971632121993
  endloop
endfacet
facet normal 0.9701072780166701 0.050120507418779714 0.23744431742025618
  outer loop
    vertex 0.0615327952773349 -0.004057853661581564 0.7494569190072026
    vertex 0.0 0.0 1.0
    vertex 0.05717575479867818 -0.33054869753544697 0.8361748647774443
  endloop
endfacet
facet normal 0.9871499904669199 0.1259201630314327 0.0983819539514111
  outer loop
    vertex 0.08715094621492155 -0.35858887789766436 0.5712971632121993
    vertex 0.05717575479867818 -0.33054869753544697 0.8361748647774443
    vertex 0.11638863743210849 -0.6467459563904547 0.6467459563904547
  endloop
endfacet
facet normal 0.9937175515914067 0.016153370187968644 0.11074518630961173
  outer loop
    vertex 0.0615327952773349 -0.004057853661581564 0.7494569190072026
    vertex 0.05717575479867818 -0.33054869753544697 0.8361748647774443
    vertex 0.08715094621492155 -0.35858887789766436 0.5712971632121993
  endloop
endfacet
facet normal 0.739207896846943 -0.6606328839143487 0.13090407911952148
  outer loop
    vertex 0.28992099307279534 -0.5 0.4036390158375662
    vertex 0.19422525976075683 -0.5857333386913283 0.5113574235938704
    vertex 0.14759786317353576 -0.7095462312152757 0.14981385057830007
  endloop
endfacet
facet normal 0.8011754531998059 -0.561234436452412 0.2076867846783449
  outer loop
    vertex 0.19422525976075683 -0.5857333386913283 0.5113574235938704
    vertex 0.11638863743210849 -0.6467459563904547 0.6467459563904547
    vertex 0.04616608642406092 -0.8587117821428111 0.3448397145865549
  endloop
endfacet
facet normal 0.8707579366019097 -0.4848154048180489 0.08206484689497648
  outer loop
    vertex 0.14759786317353576 -0.7095462312152757 0.14981385057830007
    vertex 0.04616608642406092 -0.8587117821428111 0.3448397145865549
    vertex 0.0 -1.0 0.0
  endloop
endfacet
facet normal 0.8610658206519914 -0.5047245180106382 0.06179654864020712
  outer loop
    vertex 0.19422525976075683 -0.5857333386913283 0.5113574235938704
    vertex 0.04616608642406092 -0.8587117821428111 0.3448397145865549
    vertex 0.14759786317353576 -0.7095462312152757 0.14981385057830007
  endloop
endfacet
facet normal 0.6787091811726328 0.24595970708710285 0.6919954261999143
  outer loop
    vertex 0.05514160521569628 -0.06967023628387843 0.5
    vertex 0.08715094621492155 -0.35858887789766436 0.5712971632121993
    vertex 0.16837291406330376 -0.2906088429599121 0.46747213481972855
  endloop
endfacet
facet normal 0.7963705286400409 0.2275285514996242 0.5603791032560589
  outer loop
    vertex 0.08715094621492155 -0.35858887789766436 0.5712971632121993
    vertex 0.11638863743210849 -0.6467459563904547 0.6467459563904547
    vertex 0.19422525976075683 -0.5857333386913283 0.5113574235938704
  endloop
endfacet
facet normal 0.667696580862474 0.16638650084947584 0.725600997959367
  outer loop
    vertex 0.16837291406330376 -0.2906088429599121 0.46747213481972855
    vertex 0.19422525976075683 -0.5857333386913283 0.5113574235938704
    vertex 0.28992099307279534 -0.5 0.4036390158375662
  endloop
endfacet
facet normal 0.7223744190114001 0.16320086371072404 0.6719677647343031
  outer loop
    vertex 0.08715094621492155 -0.35858887789766436 0.5712971632121993
    vertex 0.19422525976075683 -0.5857333386913283 0.5113574235938704
    vertex 0.16837291406330376 -0.2906088429599121 0.46747213481972855
  endloop
endfacet
facet normal -0.5532517035413672 -0.7279665274548809 -0.4049410913131158
  outer loop
    vertex 0.0 -1.0 1.0
    vertex -0.1692434111910417 -0.7276682448874207 0.7416557648146658
    vertex -0.09446965353985877 -0.753159585860903 0.6853219762181585
  endloop
endfacet
facet normal -0.24354549345691315 -0.8050937135579636 -0.5408416635266523
  outer loop
    vertex -0.1692434111910417 -0.7276682448874207 0.7416557648146658
    vertex -0.4065877789548229 -0.49353195263347915 0.5
    vertex -0.3104645770139053 -0.48081091021644196 0.43777845495521484
  endloop
endfacet
facet normal -0.41404535322988967 -0.7698412049019868 -0.4857066652865629
  outer loop
    vertex -0.09446965353985877 -0.753159585860903 0.6853219762181585
    vertex -0.3104645770139053 -0.48081091021644196 0.43777845495521484
    vertex -0.2108117784093849 -0.5 0.38324301599231503
  endloop
endfacet
facet normal -0.5361921535405455 -0.7596794819774512 -0.36794708742429727
  outer loop
    vertex -0.1692434111910417 -0.7276682448874207 0.7416557648146658
    vertex -0.3104645770139053 -0.48081091021644196 0.43777845495521484
    vertex -0.09446965353985877 -0.753159585860903 0.6853219762181585
  endloop
endfacet
facet normal -0.23398952933778813 -0.6627679169529621 0.711328045572584
  outer loop
    vertex -0.4065877789548229 -0.49353195263347915 0.5
    vertex -0.19278389848840047 -0.7857634744246083 0.298048441223858
    vertex -0.1283876498459158 -0.5138716198671761 0.572562074150139
  endloop
endfacet
facet normal -0.33813351478596515 -0.8540935571098434 0.3952087067385335
  outer loop
    vertex -0.19278389848840047 -0.7857634744246083 0.298048441223858
    vertex 0.0 -1.0 0.0
    vertex 0.04616608642406092 -0.8587117821428111 0.3448397145865549
  endloop
endfacet
facet normal -0.5188260630980761 -0.6382197867916183 0.5687662261402415
  outer loop
    vertex -0.1283876498459158 -0.5138716198671761 0.572562074150139
    vertex 0.04616608642406092 -0.8587117821428111 0.3448397145865549
    vertex 0.11638863743210849 -0.6467459563904547 0.6467459563904547
  endloop
endfacet
facet normal -0.3300885164925334 -0.6308135568384314 0.702222064441588
  outer loop
    vertex -0.19278389848840047 -0.7857634744246083 0.298048441223858
    vertex 0.04616608642406092 -0.8587117821428111 0.3448397145865549
    vertex -0.1283876498459158 -0.5138716198671761 0.572562074150139
  endloop
endfacet
facet normal -0.5243845432295655 -0.46631841602420143 0.7124380574468209
  outer loop
    vertex -0.2108117784093849 -0.5 0.38324301599231503
    vertex -0.018268092848591523 -0.551694593698312 0.4911271902734727
    vertex -0.028742303649969214 -0.26055888523785464 0.6739773718561956
  endloop
endfacet
facet normal -0.7983110803152735 -0.4124187558393836 0.43887377328539
  outer loop
    vertex -0.018268092848591523 -0.551694593698312 0.4911271902734727
    vertex 0.11638863743210849 -0.6467459563904547 0.6467459563904547
    vertex 0.05717575479867818 -0.33054869753544697 0.8361748647774443
  endloop
endfacet
facet normal -0.8876121491623182 -0.3184548378004162 0.3327629620930808
  outer loop
    vertex -0.028742303649969214 -0.26055888523785464 0.6739773718561956
    vertex 0.05717575479867818 -0.33054869753544697 0.8361748647774443
    vertex 0.0 0.0 1.0
  endloop
endfacet
facet normal -0.8952174396742723 -0.2596648900320001 0.3621600206921109
  outer loop
    vertex -0.018268092848591523 -0.551694593698312 0.4911271902734727
    vertex 0.05717575479867818 -0.33054869753544697 0.8361748647774443
    vertex -0.028742303649969214 -0.26055888523785464 0.6739773718561956
  endloop
endfacet
facet normal 0.013754467521063159 0.9752587988837197 0.22063791565163143
  outer loop
    vertex -0.4065877789548229 -0.49353195263347915 0.5
    vertex -0.1283876498459158 -0.5138716198671761 0.572562074150139
    vertex -0.3104645770139053 -0.48081091021644196 0.43777845495521484
  endloop
endfacet
facet normal 0.4299818931665429 0.886769765840112 0.16957285732330044
  outer loop
    vertex -0.1283876498459158 -0.5138716198671761 0.572562074150139
    vertex 0.11638863743210849 -0.6467459563904547 0.6467459563904547
    vertex -0.018268092848591523 -0.551694593698312 0.4911271902734727
  endloop
endfacet
facet normal 0.22371704134416973 0.9723722118593354 0.06665558503227476
  outer loop
    vertex -0.3104645770139053 -0.48081091021644196 0.43777845495521484
    vertex -0.018268092848591523 -0.551694593698312 0.4911271902734727
    vertex -0.2108117784093849 -0.5 0.38324301599231503
  endloop
endfacet
facet normal 0.252546312883413 0.9618453939247301 -0.10523211503516362
  outer loop
    vertex -0.1283876498459158 -0.5138716198671761 0.572562074150139
    vertex -0.018268092848591523 -0.551694593698312 0.4911271902734727
    vertex -0.3104645770139053 -0.48081091021644196 0.43777845495521484
  endloop
endfacet
facet normal 0.605642397404795 -0.7953346660663683 -0.025299316569242024
  outer loop
    vertex 0.0 0.0 0.0
    vertex 0.06272183002902071 0.0556659358957495 -0.24846714777141388
    vertex 0.28167968741522176 0.21653095786061735 -0.06393120827157989
  endloop
endfacet
facet normal 0.8232284659057388 -0.5665066174454688 -0.036947872915464454
  outer loop
    vertex 0.06272183002902071 0.0556659358957495 -0.24846714777141388
    vertex 0.013351014008420021 0.00032702844165401115 -0.5
    vertex 0.2183044507453158 0.28530708149755085 -0.30295435605847704
  endloop
endfacet
facet normal 0.7079328141237438 -0.6063508997491207 -0.3621736007224557
  outer loop
    vertex 0.28167968741522176 0.21653095786061735 -0.06393120827157989
    vertex 0.2183044507453158 0.28530708149755085 -0.30295435605847704
    vertex 0.5000375796720662 0.5 -0.11169557200822808
  endloop
endfacet
facet normal 0.7302317432510238 -0.5802914119650222 -0.36058768468738844
  outer loop
    vertex 0.06272183002902071 0.0556659358957495 -0.24846714777141388
    vertex 0.2183044507453158 0.28530708149755085 -0.30295435605847704
    vertex 0.28167968741522176 0.21653095786061735 -0.06393120827157989
  endloop
endfacet
facet normal 0.8143278052711297 0.5789273816670784 -0.04139217701940948
  outer loop
    vertex 0.013351014008420021 0.00032702844165401115 -0.5
    vertex -0.014704900139686172 0.02195617908971072 -0.7494433534118954
    vertex -0.14361614809671525 0.21869111408958206 -0.5339623659266003
  endloop
endfacet
facet normal 0.9106125759032846 0.41290048365200976 0.017260567972152197
  outer loop
    vertex -0.014704900139686172 0.02195617908971072 -0.7494433534118954
    vertex 0.0 0.0 -1.0
    vertex -0.1043131863548471 0.21843791154381487 -0.7221539864372949
  endloop
endfacet
facet normal 0.9663618527873105 0.15968727633794425 0.20160541474188007
  outer loop
    vertex -0.14361614809671525 0.21869111408958206 -0.5339623659266003
    vertex -0.1043131863548471 0.21843791154381487 -0.7221539864372949
    vertex -0.19812698841672713 0.47832084118481033 -0.47832084118481033
  endloop
endfacet
facet normal 0.9032045069142943 0.38579248457012283 0.18811107766135957
  outer loop
    vertex -0.014704900139686172 0.02195617908971072 -0.7494433534118954
    vertex -0.1043131863548471 0.21843791154381487 -0.7221539864372949
    vertex -0.14361614809671525 0.21869111408958206 -0.5339623659266003
  endloop
endfacet
facet normal 0.3921638675869352 0.36142908141801083 -0.845917561033337
  outer loop
    vertex 0.5000375796720662 0.5 -0.11169557200822808
    vertex 0.14673343848227582 0.47507458857576285 -0.2861356046968053
    vertex 0.30450411714731673 0.8078336806478834 -0.07081820154971806
  endloop
endfacet
facet normal 0.4237369050018037 0.5051755289223122 -0.7518275868292905
  outer loop
    vertex 0.14673343848227582 0.47507458857576285 -0.2861356046968053
    vertex -0.19812698841672713 0.47832084118481033 -0.47832084118481033
    vertex -0.10272987744290593 0.7457680509141643 -0.24484834661427052
  endloop
endfacet
facet normal 0.22291703071928162 0.6280038774234693 -0.7455998439889773
  outer loop
    vertex 0.30450411714731673 0.8078336806478834 -0.07081820154971806
    vertex -0.10272987744290593 0.7457680509141643 -0.24484834661427052
    vertex 0.0 1.0 0.0
  endloop
endfacet
facet normal 0.3043918305157504 0.4115453440725113 -0.8590553202719304
  outer loop
    vertex 0.14673343848227582 0.47507458857576285 -0.2861356046968053
    vertex -0.10272987744290593 0.7457680509141643 -0.24484834661427052
    vertex 0.30450411714731673 0.8078336806478834 -0.07081820154971806
  endloop
endfacet
facet normal 0.4944995619058467 0.2248812483700793 -0.839582400605468
  outer loop
    vertex 0.013351014008420021 0.00032702844165401115 -0.5
    vertex -0.14361614809671525 0.21869111408958206 -0.5339623659266003
    vertex 0.2183044507453158 0.28530708149755085 -0.30295435605847704
  endloop
endfacet
facet normal 0.46958032962991475 0.2781676895083581 -0.83792425107419
  outer loop
    vertex -0.14361614809671525 0.21869111408958206 -0.5339623659266003
    vertex -0.19812698841672713 0.47832084118481033 -0.47832084118481033
    vertex 0.14673343848227582 0.47507458857576285 -0.2861356046968053
  endloop
endfacet
facet normal 0.4169284522077225 0.23506218942646315 -0.8780184695333637
  outer loop
    vertex 0.2183044507453158 0.28530708149755085 -0.30295435605847704
    vertex 0.14673343848227582 0.47507458857576285 -0.2861356046968053
    vertex 0.5000375796720662 0.5 -0.11169557200822808
  endloop
endfacet
facet normal 0.4858282995718304 0.2572649354899097 -0.8353356309307753
  outer loop
    vertex -0.14361614809671525 0.21869111408958206 -0.5339623659266003
    vertex 0.14673343848227582 0.47507458857576285 -0.2861356046968053
    vertex 0.2183044507453158 0.28530708149755085 -0.30295435605847704
  endloop
endfacet
facet normal 0.8731201687617675 0.40928379644982626 0.2648545730491359
  outer loop
    vertex 0.0 1.0 -1.0
    vertex -0.14261218152902919 1.1320730904328415 -0.733958921940823
    vertex 0.19809031989237644 0.6877509341975051 -1.1705017584747148
  endloop
endfacet
facet normal -0.38377568892707253 0.6809170629449326 -0.6237532957660404
  outer loop
    vertex -0.14261218152902919 1.1320730904328415 -0.733958921940823
    vertex -0.11431752491398899 1.3623382115501401 -0.5
    vertex 0.11797703665319048 0.9896931857496103 -1.0497195192652002
  endloop
endfacet
facet normal -0.9196243794662811 -0.09116464954119259 -0.38207330103697273
  outer loop
    vertex 0.19809031989237644 0.6877509341975051 -1.1705017584747148
    vertex 0.11797703665319048 0.9896931857496103 -1.0497195192652002
    vertex 0.35243782505923515 0.5 -1.497207341422566
  endloop
endfacet
facet normal -0.7564828977656579 0.05980586111171649 -0.6512732793265507
  outer loop
    vertex -0.14261218152902919 1.1320730904328415 -0.733958921940823
    vertex 0.11797703665319048 0.9896931857496103 -1.0497195192652002
    vertex 0.19809031989237644 0.6877509341975051 -1.1705017584747148
  endloop
endfacet
facet normal 0.894030798520673 -0.1872910400387218 -0.4069778834503191
  outer loop
    vertex -0.11431752491398899 1.3623382115501401 -0.5
    vertex -0.04918268786637878 1.1628404755508113 -0.2651059364027007
    vertex -0.21732992386586708 0.9252404879612832 -0.5251408502993308
  endloop
endfacet
facet normal 0.9559334139155697 -0.13538354039820805 -0.2605045204002624
  outer loop
    vertex -0.04918268786637878 1.1628404755508113 -0.2651059364027007
    vertex 0.0 1.0 0.0
    vertex -0.10272987744290593 0.7457680509141643 -0.24484834661427052
  endloop
endfacet
facet normal 0.9256521894895109 0.0001335713781552072 -0.37837548315391906
  outer loop
    vertex -0.21732992386586708 0.9252404879612832 -0.5251408502993308
    vertex -0.10272987744290593 0.7457680509141643 -0.24484834661427052
    vertex -0.19812698841672713 0.47832084118481033 -0.47832084118481033
  endloop
endfacet
facet normal 0.8837847479081303 -0.1352238066441743 -0.44792749578656327
  outer loop
    vertex -0.04918268786637878 1.1628404755508113 -0.2651059364027007
    vertex -0.10272987744290593 0.7457680509141643 -0.24484834661427052
    vertex -0.21732992386586708 0.9252404879612832 -0.5251408502993308
  endloop
endfacet
facet normal 0.8204908090922357 0.20233692820745378 0.5346537194098065
  outer loop
    vertex 0.35243782505923515 0.5 -1.497207341422566
    vertex 0.027677044669879657 0.5386441375744159 -1.0134473113631723
    vertex 0.21064828994697385 0.2783195427916033 -1.1957203278875665
  endloop
endfacet
facet normal 0.9221156942306378 -0.029119911877774175 0.38581689593093216
  outer loop
    vertex 0.027677044669879657 0.5386441375744159 -1.0134473113631723
    vertex -0.19812698841672713 0.47832084118481033 -0.47832084118481033
    vertex -0.1043131863548471 0.21843791154381487 -0.7221539864372949
  endloop
endfacet
facet normal 0.818876417253246 -0.2598931183311108 0.5117587129796803
  outer loop
    vertex 0.21064828994697385 0.2783195427916033 -1.1957203278875665
    vertex -0.1043131863548471 0.21843791154381487 -0.7221539864372949
    vertex 0.0 0.0 -1.0
  endloop
endfacet
facet normal 0.8091872359836418 0.17631457981685233 0.5604722884007386
  outer loop
    vertex 0.027677044669879657 0.5386441375744159 -1.0134473113631723
    vertex -0.1043131863548471 0.21843791154381487 -0.7221539864372949
    vertex 0.21064828994697385 0.2783195427916033 -1.1957203278875665
  endloop
endfacet
facet normal 0.8332275927660883 -0.2254103197599533 0.5048979762278174
  outer loop
    vertex -0.11431752491398899 1.3623382115501401 -0.5
    vertex -0.21732992386586708 0.9252404879612832 -0.5251408502993308
    vertex 0.11797703665319048 0.9896931857496103 -1.0497195192652002
  endloop
endfacet
facet normal 0.9150366390491729 0.0807196662393428 0.3952116960311308
  outer loop
    vertex -0.21732992386586708 0.9252404879612832 -0.5251408502993308
    vertex -0.19812698841672713 0.47832084118481033 -0.47832084118481033
    vertex 0.027677044669879657 0.5386441375744159 -1.0134473113631723
  endloop
endfacet
facet normal 0.8199195240571301 -0.1191181795385237 0.5599489560427426
  outer loop
    vertex 0.11797703665319048 0.9896931857496103 -1.0497195192652002
    vertex 0.027677044669879657 0.5386441375744159 -1.0134473113631723
    vertex 0.35243782505923515 0.5 -1.497207341422566
  endloop
endfacet
facet normal 0.842783194633854 -0.12665561431077935 0.5231394099150958
  outer loop
    vertex -0.21732992386586708 0.9252404879612832 -0.5251408502993308
    vertex 0.027677044669879657 0.5386441375744159 -1.0134473113631723
    vertex 0.11797703665319048 0.9896931857496103 -1.0497195192652002
  endloop
endfacet
endsolid model
