solid model
facet normal 0.9724292872856238 0.19284132528159922 -0.13112400425860454
  outer loop
    vertex 0.0 0.0 0.0
    vertex -0.05048144930472147 0.24757376741334014 -0.01027413983584422
    vertex 0.007606183121195419 0.12676773885704115 0.2428429041325738
  endloop
endfacet
facet normal 0.985141310082155 0.05256380709322982 0.16350426708034513
  outer loop
    vertex -0.05048144930472147 0.24757376741334014 -0.01027413983584422
    vertex -0.06476011843253562 0.5 -0.005393392500630247
    vertex -0.09654514160800073 0.33580775770604043 0.23890181419624434
  endloop
endfacet
facet normal 0.8947741862331666 0.44515038011124697 -0.03493271729463411
  outer loop
    vertex 0.007606183121195419 0.12676773885704115 0.2428429041325738
    vertex -0.09654514160800073 0.33580775770604043 0.23890181419624434
    vertex -0.026343550459568186 0.2151885133332304 0.5
  endloop
endfacet
facet normal 0.8949761124519131 0.44605099999299747 0.007500902992822094
  outer loop
    vertex -0.05048144930472147 0.24757376741334014 -0.01027413983584422
    vertex -0.09654514160800073 0.33580775770604043 0.23890181419624434
    vertex 0.007606183121195419 0.12676773885704115 0.2428429041325738
  endloop
endfacet
facet normal 0.9842178033448443 -0.11230110711012924 -0.1367617524050078
  outer loop
    vertex -0.06476011843253562 0.5 -0.005393392500630247
    vertex -0.03532058510777527 0.7503420188955453 0.0009038867246892734
    vertex 0.015553245032329993 0.6816176560854897 0.4234544197575237
  endloop
endfacet
facet normal 0.9152417137195921 -0.13086426590239175 -0.3810605586746709
  outer loop
    vertex -0.03532058510777527 0.7503420188955453 0.0009038867246892734
    vertex 0.0 1.0 0.0
    vertex 0.1415926324055973 0.8450969708352741 0.39327805336739285
  endloop
endfacet
facet normal 0.7814583060992158 -0.6181571391445124 -0.08488031075117582
  outer loop
    vertex 0.015553245032329993 0.6816176560854897 0.4234544197575237
    vertex 0.1415926324055973 0.8450969708352741 0.39327805336739285
    vertex 0.1833931364312798 0.8370103759479408 0.8370103759479408
  endloop
endfacet
facet normal 0.7596420763183088 -0.621201085142846 -0.19249188996983543
  outer loop
    vertex -0.03532058510777527 0.7503420188955453 0.0009038867246892734
    vertex 0.1415926324055973 0.8450969708352741 0.39327805336739285
    vertex 0.015553245032329993 0.6816176560854897 0.4234544197575237
  endloop
endfacet
facet normal 0.9717585245840169 -0.19408522793627575 -0.13422478979390784
  outer loop
    vertex -0.026343550459568186 0.2151885133332304 0.5
    vertex 0.05936915269932143 0.5497840539591181 0.636725847879007
    vertex -0.013222818939124824 0.10789633867946452 0.7501326985035648
  endloop
endfacet
facet normal 0.9320545043171765 -0.1853931739645579 -0.3112937070186441
  outer loop
    vertex 0.05936915269932143 0.5497840539591181 0.636725847879007
    vertex 0.1833931364312798 0.8370103759479408 0.8370103759479408
    vertex 0.12251244438392431 0.4099185313483016 0.9090831126919461
  endloop
endfacet
facet normal 0.9290783534701276 -0.3191440297318552 -0.186977275089112
  outer loop
    vertex -0.013222818939124824 0.10789633867946452 0.7501326985035648
    vertex 0.12251244438392431 0.4099185313483016 0.9090831126919461
    vertex 0.0 0.0 1.0
  endloop
endfacet
facet normal 0.9132223754577572 -0.23537985855809965 -0.3325976776053313
  outer loop
    vertex 0.05936915269932143 0.5497840539591181 0.636725847879007
    vertex 0.12251244438392431 0.4099185313483016 0.9090831126919461
    vertex -0.013222818939124824 0.10789633867946452 0.7501326985035648
  endloop
endfacet
facet normal 0.9586655338536916 -0.27771553275874483 -0.0619231545186687
  outer loop
    vertex -0.06476011843253562 0.5 -0.005393392500630247
    vertex 0.015553245032329993 0.6816176560854897 0.4234544197575237
    vertex -0.09654514160800073 0.33580775770604043 0.23890181419624434
  endloop
endfacet
facet normal 0.9326630534873994 -0.1880523825862068 -0.30785699612516737
  outer loop
    vertex 0.015553245032329993 0.6816176560854897 0.4234544197575237
    vertex 0.1833931364312798 0.8370103759479408 0.8370103759479408
    vertex 0.05936915269932143 0.5497840539591181 0.636725847879007
  endloop
endfacet
facet normal 0.9443878581536167 -0.11622345320275446 -0.3076096264710381
  outer loop
    vertex -0.09654514160800073 0.33580775770604043 0.23890181419624434
    vertex 0.05936915269932143 0.5497840539591181 0.636725847879007
    vertex -0.026343550459568186 0.2151885133332304 0.5
  endloop
endfacet
facet normal 0.9452740901261921 -0.1524773376775091 -0.28845719965166167
  outer loop
    vertex 0.015553245032329993 0.6816176560854897 0.4234544197575237
    vertex 0.05936915269932143 0.5497840539591181 0.636725847879007
    vertex -0.09654514160800073 0.33580775770604043 0.23890181419624434
  endloop
endfacet
facet normal 0.9462675436109648 -0.0880709419142772 -0.3111611240158429
  outer loop
    vertex 0.0 1.0 1.0
    vertex 0.0739115764880912 0.7289803585107197 1.3014807242637878
    vertex -0.1065435512173713 0.6417477109379083 0.7773915742961519
  endloop
endfacet
facet normal 0.8439732567328749 -0.4478362650678805 -0.29521487362556065
  outer loop
    vertex 0.0739115764880912 0.7289803585107197 1.3014807242637878
    vertex 0.07224450143392977 0.5 1.6440743765570214
    vertex -0.1518340224515457 0.4500537604102674 1.0792364938053338
  endloop
endfacet
facet normal 0.8239787518121999 -0.5260823401007844 -0.2104670710493487
  outer loop
    vertex -0.1065435512173713 0.6417477109379083 0.7773915742961519
    vertex -0.1518340224515457 0.4500537604102674 1.0792364938053338
    vertex -0.33433153455360803 0.39594842030488886 0.5
  endloop
endfacet
facet normal 0.8336735736828172 -0.5141985108825221 -0.20146529216993483
  outer loop
    vertex 0.0739115764880912 0.7289803585107197 1.3014807242637878
    vertex -0.1518340224515457 0.4500537604102674 1.0792364938053338
    vertex -0.1065435512173713 0.6417477109379083 0.7773915742961519
  endloop
endfacet
facet normal 0.963036175209223 -0.2693428887665853 0.003966548784712465
  outer loop
    vertex 0.07224450143392977 0.5 1.6440743765570214
    vertex -0.0015124677801655606 0.23180933857349212 1.340380150858143
    vertex 0.12314884047790808 0.676103124435168 1.243071942298011
  endloop
endfacet
facet normal 0.9536257653682846 -0.24679303819171577 0.17231104412038112
  outer loop
    vertex -0.0015124677801655606 0.23180933857349212 1.340380150858143
    vertex 0.0 0.0 1.0
    vertex 0.12251244438392431 0.4099185313483016 0.9090831126919461
  endloop
endfacet
facet normal 0.9874631477974958 -0.12435286741094227 0.09722600530998658
  outer loop
    vertex 0.12314884047790808 0.676103124435168 1.243071942298011
    vertex 0.12251244438392431 0.4099185313483016 0.9090831126919461
    vertex 0.1833931364312798 0.8370103759479408 0.8370103759479408
  endloop
endfacet
facet normal 0.9565685386696339 -0.2288494926568715 0.18056727427231564
  outer loop
    vertex -0.0015124677801655606 0.23180933857349212 1.340380150858143
    vertex 0.12251244438392431 0.4099185313483016 0.9090831126919461
    vertex 0.12314884047790808 0.676103124435168 1.243071942298011
  endloop
endfacet
facet normal -0.7564988469717278 0.612845178022296 0.22832056916814727
  outer loop
    vertex -0.33433153455360803 0.39594842030488886 0.5
    vertex -0.09268124360369365 0.6264989669915859 0.6818337077465474
    vertex -0.16676864330386607 0.6964951610108943 0.24847869819376064
  endloop
endfacet
facet normal -0.6304996269025442 0.7727040019448284 0.0734761584066524
  outer loop
    vertex -0.09268124360369365 0.6264989669915859 0.6818337077465474
    vertex 0.1833931364312798 0.8370103759479408 0.8370103759479408
    vertex 0.1415926324055973 0.8450969708352741 0.39327805336739285
  endloop
endfacet
facet normal -0.5524524177582091 0.6883767225770383 0.4700359708864891
  outer loop
    vertex -0.16676864330386607 0.6964951610108943 0.24847869819376064
    vertex 0.1415926324055973 0.8450969708352741 0.39327805336739285
    vertex 0.0 1.0 0.0
  endloop
endfacet
facet normal -0.505700284136765 0.8338835086812114 0.22114591692705327
  outer loop
    vertex -0.09268124360369365 0.6264989669915859 0.6818337077465474
    vertex 0.1415926324055973 0.8450969708352741 0.39327805336739285
    vertex -0.16676864330386607 0.6964951610108943 0.24847869819376064
  endloop
endfacet
facet normal -0.6932728176715912 0.6881120844648582 0.21418347156379886
  outer loop
    vertex 0.07224450143392977 0.5 1.6440743765570214
    vertex 0.12314884047790808 0.676103124435168 1.243071942298011
    vertex -0.1518340224515457 0.4500537604102674 1.0792364938053338
  endloop
endfacet
facet normal -0.6605692930797304 0.726369627094714 0.18982985506613936
  outer loop
    vertex 0.12314884047790808 0.676103124435168 1.243071942298011
    vertex 0.1833931364312798 0.8370103759479408 0.8370103759479408
    vertex -0.09268124360369365 0.6264989669915859 0.6818337077465474
  endloop
endfacet
facet normal -0.7453230972259903 0.643400325405549 0.17472693555800323
  outer loop
    vertex -0.1518340224515457 0.4500537604102674 1.0792364938053338
    vertex -0.09268124360369365 0.6264989669915859 0.6818337077465474
    vertex -0.33433153455360803 0.39594842030488886 0.5
  endloop
endfacet
facet normal -0.6914677763889868 0.6928051153772169 0.20467873930340577
  outer loop
    vertex 0.12314884047790808 0.676103124435168 1.243071942298011
    vertex -0.09268124360369365 0.6264989669915859 0.6818337077465474
    vertex -0.1518340224515457 0.4500537604102674 1.0792364938053338
  endloop
endfacet
facet normal 0.09725741985615309 0.8240614646357509 -0.5580893268871076
  outer loop
    vertex 0.0 0.0 0.0
    vertex 0.17952149856979543 -0.2265358337446319 -0.3032124877433901
    vertex -0.27099577913107553 -0.15649176509937227 -0.27829807154301067
  endloop
endfacet
facet normal 0.05249045706611519 0.7281712466781012 -0.6833823142489497
  outer loop
    vertex 0.17952149856979543 -0.2265358337446319 -0.3032124877433901
    vertex 0.32904155610982116 -0.5 -0.5831149123669361
    vertex -0.11523040138017032 -0.42783029666975025 -0.5403396398341729
  endloop
endfacet
facet normal 0.0401019822673648 0.7059337333147495 -0.7071417079953126
  outer loop
    vertex -0.27099577913107553 -0.15649176509937227 -0.27829807154301067
    vertex -0.11523040138017032 -0.42783029666975025 -0.5403396398341729
    vertex -0.5607299652385717 -0.3621141320598109 -0.5
  endloop
endfacet
facet normal 0.07251361867978663 0.7140741301981245 -0.696304467663216
  outer loop
    vertex 0.17952149856979543 -0.2265358337446319 -0.3032124877433901
    vertex -0.11523040138017032 -0.42783029666975025 -0.5403396398341729
    vertex -0.27099577913107553 -0.15649176509937227 -0.27829807154301067
  endloop
endfacet
facet normal -0.794114468568126 0.5925944164829422 -0.13495950638619064
  outer loop
    vertex 0.32904155610982116 -0.5 -0.5831149123669361
    vertex 0.09533766273092358 -0.7570443480872631 -0.3366365536458569
    vertex 0.3746942064269988 -0.40995503966768293 -0.45636051737785144
  endloop
endfacet
facet normal -0.8559393315873972 0.5028396992929854 0.12049936703841879
  outer loop
    vertex 0.09533766273092358 -0.7570443480872631 -0.3366365536458569
    vertex 0.0 -1.0 0.0
    vertex 0.17476786050548843 -0.6645196472359176 -0.1585249322718709
  endloop
endfacet
facet normal -0.8854332543080674 0.21072466918860913 -0.41425000417715896
  outer loop
    vertex 0.3746942064269988 -0.40995503966768293 -0.45636051737785144
    vertex 0.17476786050548843 -0.6645196472359176 -0.1585249322718709
    vertex 0.3334122505743019 -0.3248111081736017 -0.3248111081736017
  endloop
endfacet
facet normal -0.7757926475144158 0.630721758401599 0.018325707117826023
  outer loop
    vertex 0.09533766273092358 -0.7570443480872631 -0.3366365536458569
    vertex 0.17476786050548843 -0.6645196472359176 -0.1585249322718709
    vertex 0.3746942064269988 -0.40995503966768293 -0.45636051737785144
  endloop
endfacet
facet normal -0.08599771931044489 0.77048315186791 0.6316328878083322
  outer loop
    vertex -0.5607299652385717 -0.3621141320598109 -0.5
    vertex -0.10821657454386763 -0.3642780496697331 -0.4357500497504639
    vertex -0.3169311949107193 -0.12789876080423696 -0.7525087947770365
  endloop
endfacet
facet normal -0.20918528441718848 0.8129009007014604 0.543538078171212
  outer loop
    vertex -0.10821657454386763 -0.3642780496697331 -0.4357500497504639
    vertex 0.3334122505743019 -0.3248111081736017 -0.3248111081736017
    vertex 0.15601403904224817 -0.15170454663923152 -0.6519778371751357
  endloop
endfacet
facet normal -0.042511030470303246 0.9087440749427533 0.4151831144745563
  outer loop
    vertex -0.3169311949107193 -0.12789876080423696 -0.7525087947770365
    vertex 0.15601403904224817 -0.15170454663923152 -0.6519778371751357
    vertex 0.0 0.0 -1.0
  endloop
endfacet
facet normal -0.09648297611089424 0.766185805481058 0.6353348304635337
  outer loop
    vertex -0.10821657454386763 -0.3642780496697331 -0.4357500497504639
    vertex 0.15601403904224817 -0.15170454663923152 -0.6519778371751357
    vertex -0.3169311949107193 -0.12789876080423696 -0.7525087947770365
  endloop
endfacet
facet normal -0.0727628835135518 -0.8005126859137894 0.5948823433872316
  outer loop
    vertex 0.32904155610982116 -0.5 -0.5831149123669361
    vertex 0.3746942064269988 -0.40995503966768293 -0.45636051737785144
    vertex -0.11523040138017032 -0.42783029666975025 -0.5403396398341729
  endloop
endfacet
facet normal -0.0574359636679163 -0.8462406883344081 0.529695957587789
  outer loop
    vertex 0.3746942064269988 -0.40995503966768293 -0.45636051737785144
    vertex 0.3334122505743019 -0.3248111081736017 -0.3248111081736017
    vertex -0.10821657454386763 -0.3642780496697331 -0.4357500497504639
  endloop
endfacet
facet normal -0.07811073734084599 -0.8496568050175534 0.5215189607285942
  outer loop
    vertex -0.11523040138017032 -0.42783029666975025 -0.5403396398341729
    vertex -0.10821657454386763 -0.3642780496697331 -0.4357500497504639
    vertex -0.5607299652385717 -0.3621141320598109 -0.5
  endloop
endfacet
facet normal -0.058285102469686406 -0.851408864989961 0.5212540565277209
  outer loop
    vertex 0.3746942064269988 -0.40995503966768293 -0.45636051737785144
    vertex -0.10821657454386763 -0.3642780496697331 -0.4357500497504639
    vertex -0.11523040138017032 -0.42783029666975025 -0.5403396398341729
  endloop
endfacet
facet normal 0.9091080408813688 0.024240956076647658 0.4158544770148921
  outer loop
    vertex 0.0 -1.0 -1.0
    vertex -0.04807334022642132 -0.757049188801143 -0.9090679497302759
    vertex -0.12053779554654742 -0.6913679654753342 -0.7544805954678574
  endloop
endfacet
facet normal 0.9852253290740054 -0.11515609477080264 0.1267679959144109
  outer loop
    vertex -0.04807334022642132 -0.757049188801143 -0.9090679497302759
    vertex -0.01195777007129739 -0.5 -0.956250156100985
    vertex -0.03487569612668182 -0.4315636152063449 -0.7159672058739835
  endloop
endfacet
facet normal 0.7939653720034549 -0.3368142612819859 0.5061374728830953
  outer loop
    vertex -0.12053779554654742 -0.6913679654753342 -0.7544805954678574
    vertex -0.03487569612668182 -0.4315636152063449 -0.7159672058739835
    vertex -0.1455123710597601 -0.3678269819815374 -0.5
  endloop
endfacet
facet normal 0.7896517380846142 -0.3364237549124172 0.5130976414587947
  outer loop
    vertex -0.04807334022642132 -0.757049188801143 -0.9090679497302759
    vertex -0.03487569612668182 -0.4315636152063449 -0.7159672058739835
    vertex -0.12053779554654742 -0.6913679654753342 -0.7544805954678574
  endloop
endfacet
facet normal 0.8803886466695013 0.07374803358432891 -0.46848378665423246
  outer loop
    vertex -0.01195777007129739 -0.5 -0.956250156100985
    vertex -0.07053358667772504 -0.2527684444778482 -1.027408740025565
    vertex 0.15380342011515558 -0.4257104193923348 -0.6330522468082386
  endloop
endfacet
facet normal 0.8623989422569227 -0.1897572719861013 -0.4693189130245375
  outer loop
    vertex -0.07053358667772504 -0.2527684444778482 -1.027408740025565
    vertex 0.0 0.0 -1.0
    vertex 0.15601403904224817 -0.15170454663923152 -0.6519778371751357
  endloop
endfacet
facet normal 0.8690806534371143 -0.04106053706662338 -0.49296333546940285
  outer loop
    vertex 0.15380342011515558 -0.4257104193923348 -0.6330522468082386
    vertex 0.15601403904224817 -0.15170454663923152 -0.6519778371751357
    vertex 0.3334122505743019 -0.3248111081736017 -0.3248111081736017
  endloop
endfacet
facet normal 0.8604006344240185 -0.04202099934575128 -0.5078828446568472
  outer loop
    vertex -0.07053358667772504 -0.2527684444778482 -1.027408740025565
    vertex 0.15601403904224817 -0.15170454663923152 -0.6519778371751357
    vertex 0.15380342011515558 -0.4257104193923348 -0.6330522468082386
  endloop
endfacet
facet normal 0.27348849961704713 -0.5672970489611122 -0.7767741620427586
  outer loop
    vertex -0.1455123710597601 -0.3678269819815374 -0.5
    vertex 0.10024894223375219 -0.34539908156934024 -0.42985141141277416
    vertex -0.059748181253257496 -0.6764799964082406 -0.24438714168077244
  endloop
endfacet
facet normal 0.38403404802040425 -0.5443909269483039 -0.7457589212456182
  outer loop
    vertex 0.10024894223375219 -0.34539908156934024 -0.42985141141277416
    vertex 0.3334122505743019 -0.3248111081736017 -0.3248111081736017
    vertex 0.17476786050548843 -0.6645196472359176 -0.1585249322718709
  endloop
endfacet
facet normal 0.3144759344060998 -0.5345141133751995 -0.7844740590243472
  outer loop
    vertex -0.059748181253257496 -0.6764799964082406 -0.24438714168077244
    vertex 0.17476786050548843 -0.6645196472359176 -0.1585249322718709
    vertex 0.0 -1.0 0.0
  endloop
endfacet
facet normal 0.3072289747526866 -0.573764913814696 -0.7592128691925788
  outer loop
    vertex 0.10024894223375219 -0.34539908156934024 -0.42985141141277416
    vertex 0.17476786050548843 -0.6645196472359176 -0.1585249322718709
    vertex -0.059748181253257496 -0.6764799964082406 -0.24438714168077244
  endloop
endfacet
facet normal -0.08676383265217681 -0.9602745627149613 0.2652259443306692
  outer loop
    vertex -0.01195777007129739 -0.5 -0.956250156100985
    vertex 0.15380342011515558 -0.4257104193923348 -0.6330522468082386
    vertex -0.03487569612668182 -0.4315636152063449 -0.7159672058739835
  endloop
endfacet
facet normal -0.07493110912879579 -0.9339769678523324 0.3493885407481073
  outer loop
    vertex 0.15380342011515558 -0.4257104193923348 -0.6330522468082386
    vertex 0.3334122505743019 -0.3248111081736017 -0.3248111081736017
    vertex 0.10024894223375219 -0.34539908156934024 -0.42985141141277416
  endloop
endfacet
facet normal 0.005869815583106914 -0.9582675328430459 0.28581266725588333
  outer loop
    vertex -0.03487569612668182 -0.4315636152063449 -0.7159672058739835
    vertex 0.10024894223375219 -0.34539908156934024 -0.42985141141277416
    vertex -0.1455123710597601 -0.3678269819815374 -0.5
  endloop
endfacet
facet normal -0.11937778707720789 -0.9337014780034679 0.3375655401943278
  outer loop
    vertex 0.15380342011515558 -0.4257104193923348 -0.6330522468082386
    vertex 0.10024894223375219 -0.34539908156934024 -0.42985141141277416
    vertex -0.03487569612668182 -0.4315636152063449 -0.7159672058739835
  endloop
endfacet
facet normal 0.30358018343873683 0.840713811841125 -0.44837412815958516
  outer loop
    vertex 0.0 0.0 0.0
    vertex 0.007606183121195419 0.12676773885704115 0.2428429041325738
    vertex 0.17952149856979543 -0.2265358337446319 -0.3032124877433901
  endloop
endfacet
facet normal 0.8361889260239871 0.5431015359116124 -0.07634658921850264
  outer loop
    vertex 0.007606183121195419 0.12676773885704115 0.2428429041325738
    vertex -0.026343550459568186 0.2151885133332304 0.5
    vertex 0.1292759446048625 -0.10502886870808265 -0.07348015168830074
  endloop
endfacet
facet normal 0.8112998187794748 0.5711848771537706 -0.12466130177093125
  outer loop
    vertex 0.17952149856979543 -0.2265358337446319 -0.3032124877433901
    vertex 0.1292759446048625 -0.10502886870808265 -0.07348015168830074
    vertex 0.32904155610982116 -0.5 -0.5831149123669361
  endloop
endfacet
facet normal 0.7653529135814683 0.6228760779289846 -0.16205032926891272
  outer loop
    vertex 0.007606183121195419 0.12676773885704115 0.2428429041325738
    vertex 0.1292759446048625 -0.10502886870808265 -0.07348015168830074
    vertex 0.17952149856979543 -0.2265358337446319 -0.3032124877433901
  endloop
endfacet
facet normal 0.9555671404093555 -0.24941572785019342 -0.1571089904201709
  outer loop
    vertex -0.026343550459568186 0.2151885133332304 0.5
    vertex -0.013222818939124824 0.10789633867946452 0.7501326985035648
    vertex -0.13613646775788762 -0.3607002905155212 0.746460887115384
  endloop
endfacet
facet normal 0.9756119820511274 -0.1779724342842686 -0.1284798548925176
  outer loop
    vertex -0.013222818939124824 0.10789633867946452 0.7501326985035648
    vertex 0.0 0.0 1.0
    vertex -0.08722669592974108 -0.4757964672075357 0.9967251347586173
  endloop
endfacet
facet normal 0.9833409681441109 0.027017528055189248 -0.1797514771766561
  outer loop
    vertex -0.13613646775788762 -0.3607002905155212 0.746460887115384
    vertex -0.08722669592974108 -0.4757964672075357 0.9967251347586173
    vertex -0.08107021091955018 -0.9579365312586154 0.9579365312586154
  endloop
endfacet
facet normal 0.9258090938247073 -0.24055658048882095 -0.2915648356283727
  outer loop
    vertex -0.013222818939124824 0.10789633867946452 0.7501326985035648
    vertex -0.08722669592974108 -0.4757964672075357 0.9967251347586173
    vertex -0.13613646775788762 -0.3607002905155212 0.746460887115384
  endloop
endfacet
facet normal 0.7294470502957369 -0.6837033601446153 -0.02137091813216126
  outer loop
    vertex 0.32904155610982116 -0.5 -0.5831149123669361
    vertex 0.07217150912207232 -0.79707726812852 0.1533826147947323
    vertex 0.09533766273092358 -0.7570443480872631 -0.3366365536458569
  endloop
endfacet
facet normal -0.12894284404506315 -0.9673984074779491 -0.21797721022780897
  outer loop
    vertex 0.07217150912207232 -0.79707726812852 0.1533826147947323
    vertex -0.08107021091955018 -0.9579365312586154 0.9579365312586154
    vertex -0.1289359769385367 -0.8405790159691103 0.4654101553060526
  endloop
endfacet
facet normal 0.9631929706802044 -0.0055833764351731745 0.26875291094205106
  outer loop
    vertex 0.09533766273092358 -0.7570443480872631 -0.3366365536458569
    vertex -0.1289359769385367 -0.8405790159691103 0.4654101553060526
    vertex 0.0 -1.0 0.0
  endloop
endfacet
facet normal 0.09591331889025088 -0.9924422046812856 -0.07654479490341802
  outer loop
    vertex 0.07217150912207232 -0.79707726812852 0.1533826147947323
    vertex -0.1289359769385367 -0.8405790159691103 0.4654101553060526
    vertex 0.09533766273092358 -0.7570443480872631 -0.3366365536458569
  endloop
endfacet
facet normal 0.9549362648651274 -0.057433934921677025 0.291201087162895
  outer loop
    vertex -0.026343550459568186 0.2151885133332304 0.5
    vertex -0.13613646775788762 -0.3607002905155212 0.746460887115384
    vertex 0.1292759446048625 -0.10502886870808265 -0.07348015168830074
  endloop
endfacet
facet normal 0.9622231369947586 0.16531752194113536 0.21632556846385073
  outer loop
    vertex -0.13613646775788762 -0.3607002905155212 0.746460887115384
    vertex -0.08107021091955018 -0.9579365312586154 0.9579365312586154
    vertex 0.07217150912207232 -0.79707726812852 0.1533826147947323
  endloop
endfacet
facet normal 0.9392583945943311 0.03443830214150723 0.3414786545740304
  outer loop
    vertex 0.1292759446048625 -0.10502886870808265 -0.07348015168830074
    vertex 0.07217150912207232 -0.79707726812852 0.1533826147947323
    vertex 0.32904155610982116 -0.5 -0.5831149123669361
  endloop
endfacet
facet normal 0.9487975267720247 0.02493799584548681 0.31489895133915496
  outer loop
    vertex -0.13613646775788762 -0.3607002905155212 0.746460887115384
    vertex 0.07217150912207232 -0.79707726812852 0.1533826147947323
    vertex 0.1292759446048625 -0.10502886870808265 -0.07348015168830074
  endloop
endfacet
facet normal 0.7115705780160497 -0.6136811413750797 -0.3421443689767296
  outer loop
    vertex 0.0 -1.0 1.0
    vertex -0.2316222795000762 -1.0863793977696772 0.6732192547109228
    vertex 0.27520446315819946 -0.7587518760937734 1.1396427333631096
  endloop
endfacet
facet normal -0.49612773273041394 0.8479226137976714 0.18677396453013398
  outer loop
    vertex -0.2316222795000762 -1.0863793977696772 0.6732192547109228
    vertex -0.5674955232578455 -1.2447466612320948 0.5
    vertex 0.02279477487985803 -0.9991390556742412 0.9529707585714734
  endloop
endfacet
facet normal 0.6945067736154296 -0.7193739529580444 -0.01270658127915747
  outer loop
    vertex 0.27520446315819946 -0.7587518760937734 1.1396427333631096
    vertex 0.02279477487985803 -0.9991390556742412 0.9529707585714734
    vertex 0.5453475338172146 -0.5 1.2558685257005178
  endloop
endfacet
facet normal -0.7462740403807417 0.33854623844883436 0.5731156088311922
  outer loop
    vertex -0.2316222795000762 -1.0863793977696772 0.6732192547109228
    vertex 0.02279477487985803 -0.9991390556742412 0.9529707585714734
    vertex 0.27520446315819946 -0.7587518760937734 1.1396427333631096
  endloop
endfacet
facet normal 0.5093447952362449 -0.8422863540406894 0.1764130872769651
  outer loop
    vertex -0.5674955232578455 -1.2447466612320948 0.5
    vertex -0.28084000331716774 -1.1231511090870228 0.2529195622813747
    vertex -0.3745603210847532 -1.072691828321055 0.7644299104054831
  endloop
endfacet
facet normal 0.6461309894058039 -0.6491678383542664 0.40136749018315626
  outer loop
    vertex -0.28084000331716774 -1.1231511090870228 0.2529195622813747
    vertex 0.0 -1.0 0.0
    vertex -0.1289359769385367 -0.8405790159691103 0.4654101553060526
  endloop
endfacet
facet normal 0.4897113234585134 -0.8362127616068457 -0.24684212971525726
  outer loop
    vertex -0.3745603210847532 -1.072691828321055 0.7644299104054831
    vertex -0.1289359769385367 -0.8405790159691103 0.4654101553060526
    vertex -0.08107021091955018 -0.9579365312586154 0.9579365312586154
  endloop
endfacet
facet normal 0.7912506647512227 -0.5771942027476101 0.20191393672874278
  outer loop
    vertex -0.28084000331716774 -1.1231511090870228 0.2529195622813747
    vertex -0.1289359769385367 -0.8405790159691103 0.4654101553060526
    vertex -0.3745603210847532 -1.072691828321055 0.7644299104054831
  endloop
endfacet
facet normal 0.43849271744439483 0.02044670582435848 -0.8985021251890072
  outer loop
    vertex 0.5453475338172146 -0.5 1.2558685257005178
    vertex 0.2279981296776103 -0.7162583185279641 1.0960723841039204
    vertex 0.2723467820381615 -0.2501579768481106 1.1283224777288412
  endloop
endfacet
facet normal 0.3542868205432347 0.07948426305629618 -0.9317527036267527
  outer loop
    vertex 0.2279981296776103 -0.7162583185279641 1.0960723841039204
    vertex -0.08107021091955018 -0.9579365312586154 0.9579365312586154
    vertex -0.08722669592974108 -0.4757964672075357 0.9967251347586173
  endloop
endfacet
facet normal 0.37755683162506126 -0.06285786287102926 -0.9238504900515733
  outer loop
    vertex 0.2723467820381615 -0.2501579768481106 1.1283224777288412
    vertex -0.08722669592974108 -0.4757964672075357 0.9967251347586173
    vertex 0.0 0.0 1.0
  endloop
endfacet
facet normal 0.32428983876199025 0.034552755362026316 -0.9453265084470096
  outer loop
    vertex 0.2279981296776103 -0.7162583185279641 1.0960723841039204
    vertex -0.08722669592974108 -0.4757964672075357 0.9967251347586173
    vertex 0.2723467820381615 -0.2501579768481106 1.1283224777288412
  endloop
endfacet
facet normal 0.14686460981869426 0.7766911152350771 -0.6125207734417626
  outer loop
    vertex -0.5674955232578455 -1.2447466612320948 0.5
    vertex -0.3745603210847532 -1.072691828321055 0.7644299104054831
    vertex 0.02279477487985803 -0.9991390556742412 0.9529707585714734
  endloop
endfacet
facet normal -0.6081014657492061 0.3789558263814803 0.6975708487352352
  outer loop
    vertex -0.3745603210847532 -1.072691828321055 0.7644299104054831
    vertex -0.08107021091955018 -0.9579365312586154 0.9579365312586154
    vertex 0.2279981296776103 -0.7162583185279641 1.0960723841039204
  endloop
endfacet
facet normal 0.28960463297272054 0.2564150005168597 -0.9221607799460322
  outer loop
    vertex 0.02279477487985803 -0.9991390556742412 0.9529707585714734
    vertex 0.2279981296776103 -0.7162583185279641 1.0960723841039204
    vertex 0.5453475338172146 -0.5 1.2558685257005178
  endloop
endfacet
facet normal 0.39692039931088563 0.16849737029232564 -0.9022543060664538
  outer loop
    vertex -0.3745603210847532 -1.072691828321055 0.7644299104054831
    vertex 0.2279981296776103 -0.7162583185279641 1.0960723841039204
    vertex 0.02279477487985803 -0.9991390556742412 0.9529707585714734
  endloop
endfacet
facet normal 0.6809230834105989 0.10878836580867332 -0.7242298295039226
  outer loop
    vertex 0.0 0.0 0.0
    vertex -0.27099577913107553 -0.15649176509937227 -0.27829807154301067
    vertex -0.05048144930472147 0.24757376741334014 -0.01027413983584422
  endloop
endfacet
facet normal 0.48781250614931104 0.22270949478828472 -0.8440612772633722
  outer loop
    vertex -0.27099577913107553 -0.15649176509937227 -0.27829807154301067
    vertex -0.5607299652385717 -0.3621141320598109 -0.5
    vertex -0.29528161455054647 0.050328736639223805 -0.23776315288747246
  endloop
endfacet
facet normal 0.6571449144257014 0.051711819759512556 -0.7519883304557305
  outer loop
    vertex -0.05048144930472147 0.24757376741334014 -0.01027413983584422
    vertex -0.29528161455054647 0.050328736639223805 -0.23776315288747246
    vertex -0.06476011843253562 0.5 -0.005393392500630247
  endloop
endfacet
facet normal 0.5616400930477518 0.22215492617750332 -0.7969991183535781
  outer loop
    vertex -0.27099577913107553 -0.15649176509937227 -0.27829807154301067
    vertex -0.29528161455054647 0.050328736639223805 -0.23776315288747246
    vertex -0.05048144930472147 0.24757376741334014 -0.01027413983584422
  endloop
endfacet
facet normal 0.7739698584991686 -0.13980452682099695 0.6175964316729285
  outer loop
    vertex -0.5607299652385717 -0.3621141320598109 -0.5
    vertex -0.3169311949107193 -0.12789876080423696 -0.7525087947770365
    vertex -0.40818107766539713 0.1730129319211201 -0.5700377345819242
  endloop
endfacet
facet normal 0.6546762043447579 -0.22716306852458568 0.720968798051091
  outer loop
    vertex -0.3169311949107193 -0.12789876080423696 -0.7525087947770365
    vertex 0.0 0.0 -1.0
    vertex -0.12457458438133845 0.30769307164314064 -0.7899319377090729
  endloop
endfacet
facet normal 0.6418075504247038 -0.11313116512119725 0.758475054102745
  outer loop
    vertex -0.40818107766539713 0.1730129319211201 -0.5700377345819242
    vertex -0.12457458438133845 0.30769307164314064 -0.7899319377090729
    vertex -0.1908666929846411 0.6785249531347817 -0.6785249531347817
  endloop
endfacet
facet normal 0.6623468384565461 -0.23126863162652728 0.7126089289450502
  outer loop
    vertex -0.3169311949107193 -0.12789876080423696 -0.7525087947770365
    vertex -0.12457458438133845 0.30769307164314064 -0.7899319377090729
    vertex -0.40818107766539713 0.1730129319211201 -0.5700377345819242
  endloop
endfacet
facet normal 0.98006616099717 -0.11111020227769744 -0.1646962143404593
  outer loop
    vertex -0.06476011843253562 0.5 -0.005393392500630247
    vertex -0.12235872330693459 0.5196908693916636 -0.3614325417549034
    vertex -0.03532058510777527 0.7503420188955453 0.0009038867246892734
  endloop
endfacet
facet normal 0.9817426621636878 0.09808538881742934 -0.16297423657832844
  outer loop
    vertex -0.12235872330693459 0.5196908693916636 -0.3614325417549034
    vertex -0.1908666929846411 0.6785249531347817 -0.6785249531347817
    vertex -0.14723487929252513 0.8339266082639024 -0.3221628316443303
  endloop
endfacet
facet normal 0.9255348004267151 -0.13222550860170965 -0.35482636327378464
  outer loop
    vertex -0.03532058510777527 0.7503420188955453 0.0009038867246892734
    vertex -0.14723487929252513 0.8339266082639024 -0.3221628316443303
    vertex 0.0 1.0 0.0
  endloop
endfacet
facet normal 0.9475581092763427 0.11239890700996266 -0.2991656986481043
  outer loop
    vertex -0.12235872330693459 0.5196908693916636 -0.3614325417549034
    vertex -0.14723487929252513 0.8339266082639024 -0.3221628316443303
    vertex -0.03532058510777527 0.7503420188955453 0.0009038867246892734
  endloop
endfacet
facet normal 0.8643250925536891 -0.2992934710723767 -0.4041850474170281
  outer loop
    vertex -0.5607299652385717 -0.3621141320598109 -0.5
    vertex -0.40818107766539713 0.1730129319211201 -0.5700377345819242
    vertex -0.29528161455054647 0.050328736639223805 -0.23776315288747246
  endloop
endfacet
facet normal 0.8115418296570382 -0.43305460644364274 -0.39225446658368146
  outer loop
    vertex -0.40818107766539713 0.1730129319211201 -0.5700377345819242
    vertex -0.1908666929846411 0.6785249531347817 -0.6785249531347817
    vertex -0.12235872330693459 0.5196908693916636 -0.3614325417549034
  endloop
endfacet
facet normal 0.9097825731941852 -0.3794928892626754 -0.16816901174483306
  outer loop
    vertex -0.29528161455054647 0.050328736639223805 -0.23776315288747246
    vertex -0.12235872330693459 0.5196908693916636 -0.3614325417549034
    vertex -0.06476011843253562 0.5 -0.005393392500630247
  endloop
endfacet
facet normal 0.8070890929064274 -0.40943598892030486 -0.4254049448329581
  outer loop
    vertex -0.40818107766539713 0.1730129319211201 -0.5700377345819242
    vertex -0.12235872330693459 0.5196908693916636 -0.3614325417549034
    vertex -0.29528161455054647 0.050328736639223805 -0.23776315288747246
  endloop
endfacet
facet normal 0.9236642002076283 0.09532669145420859 0.371156661197393
  outer loop
    vertex 0.0 1.0 -1.0
    vertex -0.09232302275546056 0.959498708195331 -0.7598417745380888
    vertex 0.0434153459827788 0.7514355626147514 -1.0442033704632419
  endloop
endfacet
facet normal 0.9946342892336115 0.08693727125947368 0.05607621195038908
  outer loop
    vertex -0.09232302275546056 0.959498708195331 -0.7598417745380888
    vertex -0.10595183882158257 0.9478206945329278 -0.5
    vertex -0.06842109066076028 0.6780496824894882 -0.747452759142473
  endloop
endfacet
facet normal 0.9331885805566477 -0.19093103781319065 0.30447399218693094
  outer loop
    vertex 0.0434153459827788 0.7514355626147514 -1.0442033704632419
    vertex -0.06842109066076028 0.6780496824894882 -0.747452759142473
    vertex -0.0020310359063011626 0.5 -1.062585263335182
  endloop
endfacet
facet normal 0.9235777305428506 0.09478779118341137 0.37150969070521883
  outer loop
    vertex -0.09232302275546056 0.959498708195331 -0.7598417745380888
    vertex -0.06842109066076028 0.6780496824894882 -0.747452759142473
    vertex 0.0434153459827788 0.7514355626147514 -1.0442033704632419
  endloop
endfacet
facet normal 0.9798230876581225 -0.07911684499652318 -0.1835408448544878
  outer loop
    vertex -0.10595183882158257 0.9478206945329278 -0.5
    vertex -0.05910776776684916 0.9357379036049782 -0.2447170155861266
    vertex -0.13207480541528457 0.7986776575735752 -0.5751666979638507
  endloop
endfacet
facet normal 0.7610938658158699 -0.6485004984998991 -0.013536279504977274
  outer loop
    vertex -0.05910776776684916 0.9357379036049782 -0.2447170155861266
    vertex 0.0 1.0 0.0
    vertex -0.14723487929252513 0.8339266082639024 -0.3221628316443303
  endloop
endfacet
facet normal 0.8455191089899535 -0.5195726583030666 0.12305157080151428
  outer loop
    vertex -0.13207480541528457 0.7986776575735752 -0.5751666979638507
    vertex -0.14723487929252513 0.8339266082639024 -0.3221628316443303
    vertex -0.1908666929846411 0.6785249531347817 -0.6785249531347817
  endloop
endfacet
facet normal 0.6934571620718636 -0.7067614305750364 0.1400194437310951
  outer loop
    vertex -0.05910776776684916 0.9357379036049782 -0.2447170155861266
    vertex -0.14723487929252513 0.8339266082639024 -0.3221628316443303
    vertex -0.13207480541528457 0.7986776575735752 -0.5751666979638507
  endloop
endfacet
facet normal 0.8971730108330243 0.25131566048595205 0.3632093438050787
  outer loop
    vertex -0.0020310359063011626 0.5 -1.062585263335182
    vertex -0.10316170002327459 0.5862351844092647 -0.8724484971304893
    vertex 0.04287744749761284 0.2537074871675211 -1.0030975694299276
  endloop
endfacet
facet normal 0.9182153848818784 0.04595675277382922 0.39340625800908297
  outer loop
    vertex -0.10316170002327459 0.5862351844092647 -0.8724484971304893
    vertex -0.1908666929846411 0.6785249531347817 -0.6785249531347817
    vertex -0.12457458438133845 0.30769307164314064 -0.7899319377090729
  endloop
endfacet
facet normal 0.7653468249710437 -0.12162979500637841 0.6320209098387876
  outer loop
    vertex 0.04287744749761284 0.2537074871675211 -1.0030975694299276
    vertex -0.12457458438133845 0.30769307164314064 -0.7899319377090729
    vertex 0.0 0.0 -1.0
  endloop
endfacet
facet normal 0.7951121175209852 0.115262352003212 0.5954085242772248
  outer loop
    vertex -0.10316170002327459 0.5862351844092647 -0.8724484971304893
    vertex -0.12457458438133845 0.30769307164314064 -0.7899319377090729
    vertex 0.04287744749761284 0.2537074871675211 -1.0030975694299276
  endloop
endfacet
facet normal 0.7273751927573532 -0.4061730427882164 0.5531263764035893
  outer loop
    vertex -0.10595183882158257 0.9478206945329278 -0.5
    vertex -0.13207480541528457 0.7986776575735752 -0.5751666979638507
    vertex -0.06842109066076028 0.6780496824894882 -0.747452759142473
  endloop
endfacet
facet normal 0.4684236921396978 -0.6966404163771562 0.5433887879889278
  outer loop
    vertex -0.13207480541528457 0.7986776575735752 -0.5751666979638507
    vertex -0.1908666929846411 0.6785249531347817 -0.6785249531347817
    vertex -0.10316170002327459 0.5862351844092647 -0.8724484971304893
  endloop
endfacet
facet normal 0.28074675546694144 -0.8090937607082761 0.5162833966705922
  outer loop
    vertex -0.06842109066076028 0.6780496824894882 -0.747452759142473
    vertex -0.10316170002327459 0.5862351844092647 -0.8724484971304893
    vertex -0.0020310359063011626 0.5 -1.062585263335182
  endloop
endfacet
facet normal 0.04306090404008199 -0.8108656582218423 0.5836459910422666
  outer loop
    vertex -0.13207480541528457 0.7986776575735752 -0.5751666979638507
    vertex -0.10316170002327459 0.5862351844092647 -0.8724484971304893
    vertex -0.06842109066076028 0.6780496824894882 -0.747452759142473
  endloop
endfacet
endsolid model
