solid model
facet normal 0.9722736053595475 0.18601912630333597 0.14170716626370783
  outer loop
    vertex 0.0 0.0 0.0
    vertex -0.04508469840458542 0.252380768324022 -0.021967751082059297
    vertex -0.030593738127370693 -0.029578938285852202 0.24873641366764285
  endloop
endfacet
facet normal 0.95772686407122 0.21368028703191444 0.19261357369164134
  outer loop
    vertex -0.04508469840458542 0.252380768324022 -0.021967751082059297
    vertex -0.08944940979548689 0.5 -0.07607646410556197
    vertex -0.07379425125646806 0.19647435366085084 0.1828049863627877
  endloop
endfacet
facet normal 0.9742368241071705 0.21009682111325897 0.0819874155689599
  outer loop
    vertex -0.030593738127370693 -0.029578938285852202 0.24873641366764285
    vertex -0.07379425125646806 0.19647435366085084 0.1828049863627877
    vertex -0.048489492985987634 -0.04464698488810028 0.5
  endloop
endfacet
facet normal 0.9503444263785814 0.23955486619289915 0.19864273793538764
  outer loop
    vertex -0.04508469840458542 0.252380768324022 -0.021967751082059297
    vertex -0.07379425125646806 0.19647435366085084 0.1828049863627877
    vertex -0.030593738127370693 -0.029578938285852202 0.24873641366764285
  endloop
endfacet
facet normal 0.9852828060927642 -0.13809487924837335 -0.10073527854404069
  outer loop
    vertex -0.08944940979548689 0.5 -0.07607646410556197
    vertex -0.050741631646587446 0.7517750315253385 -0.04262973377817436
    vertex -0.0529193997302323 0.5392491091904814 0.2274149271061002
  endloop
endfacet
facet normal 0.9737293067958311 -0.17377652548972358 -0.14714943518624024
  outer loop
    vertex -0.050741631646587446 0.7517750315253385 -0.04262973377817436
    vertex 0.0 1.0 0.0
    vertex 0.0032321867285677007 0.7812823773818187 0.2796834620025196
  endloop
endfacet
facet normal 0.9565343126161291 -0.17088356430945417 -0.23630682647119247
  outer loop
    vertex -0.0529193997302323 0.5392491091904814 0.2274149271061002
    vertex 0.0032321867285677007 0.7812823773818187 0.2796834620025196
    vertex 0.018851143396440204 0.5268776020726823 0.5268776020726823
  endloop
endfacet
facet normal 0.9702953234766986 -0.19385125633278055 -0.1447365733235781
  outer loop
    vertex -0.050741631646587446 0.7517750315253385 -0.04262973377817436
    vertex 0.0032321867285677007 0.7812823773818187 0.2796834620025196
    vertex -0.0529193997302323 0.5392491091904814 0.2274149271061002
  endloop
endfacet
facet normal 0.988577725692687 -0.13787933466649407 -0.060855314773644725
  outer loop
    vertex -0.048489492985987634 -0.04464698488810028 0.5
    vertex -0.006693555676492243 0.23909228560087636 0.5360979287184617
    vertex -0.03348424003176012 -0.0488434682544424 0.7532641106327629
  endloop
endfacet
facet normal 0.9907647568264548 -0.08454701510543813 0.10600471153385961
  outer loop
    vertex -0.006693555676492243 0.23909228560087636 0.5360979287184617
    vertex 0.018851143396440204 0.5268776020726823 0.5268776020726823
    vertex -0.029473240720025412 0.28411910971732945 0.7849188755406042
  endloop
endfacet
facet normal 0.9908936549327614 0.0008639161645306864 -0.13464404280492462
  outer loop
    vertex -0.03348424003176012 -0.0488434682544424 0.7532641106327629
    vertex -0.029473240720025412 0.28411910971732945 0.7849188755406042
    vertex 0.0 0.0 1.0
  endloop
endfacet
facet normal 0.9952631512045147 -0.021013329408016708 0.09491943869223828
  outer loop
    vertex -0.006693555676492243 0.23909228560087636 0.5360979287184617
    vertex -0.029473240720025412 0.28411910971732945 0.7849188755406042
    vertex -0.03348424003176012 -0.0488434682544424 0.7532641106327629
  endloop
endfacet
facet normal 0.9924817428989013 -0.0456632326351228 -0.11355553354051016
  outer loop
    vertex -0.08944940979548689 0.5 -0.07607646410556197
    vertex -0.0529193997302323 0.5392491091904814 0.2274149271061002
    vertex -0.07379425125646806 0.19647435366085084 0.1828049863627877
  endloop
endfacet
facet normal 0.9673275137580372 -0.09341427929610632 -0.23569313428753788
  outer loop
    vertex -0.0529193997302323 0.5392491091904814 0.2274149271061002
    vertex 0.018851143396440204 0.5268776020726823 0.5268776020726823
    vertex -0.006693555676492243 0.23909228560087636 0.5360979287184617
  endloop
endfacet
facet normal 0.9776660319246868 -0.1222669974698565 -0.17093832615988516
  outer loop
    vertex -0.07379425125646806 0.19647435366085084 0.1828049863627877
    vertex -0.006693555676492243 0.23909228560087636 0.5360979287184617
    vertex -0.048489492985987634 -0.04464698488810028 0.5
  endloop
endfacet
facet normal 0.982585856125432 -0.036118494039205785 -0.18226488891333856
  outer loop
    vertex -0.0529193997302323 0.5392491091904814 0.2274149271061002
    vertex -0.006693555676492243 0.23909228560087636 0.5360979287184617
    vertex -0.07379425125646806 0.19647435366085084 0.1828049863627877
  endloop
endfacet
facet normal 0.9483452332889888 0.25703623183632507 0.18594002802365237
  outer loop
    vertex 0.0 1.0 1.0
    vertex 0.08832062312779991 0.759005344062899 0.8826821533724662
    vertex 0.041974447218541835 1.0263581167214024 0.7494823549553817
  endloop
endfacet
facet normal 0.9655659466467789 0.23959443862784463 -0.10137508399364117
  outer loop
    vertex 0.08832062312779991 0.759005344062899 0.8826821533724662
    vertex 0.14227769521974076 0.5 0.7844614838809051
    vertex 0.06975928433904041 0.7302276413340111 0.6378766921954012
  endloop
endfacet
facet normal 0.9896307768272484 0.12164083124351943 -0.07638346503453682
  outer loop
    vertex 0.041974447218541835 1.0263581167214024 0.7494823549553817
    vertex 0.06975928433904041 0.7302276413340111 0.6378766921954012
    vertex 0.029236434515818928 0.9733298920348753 0.5
  endloop
endfacet
facet normal 0.9878925048534561 0.12652520237570286 -0.08977623303609786
  outer loop
    vertex 0.08832062312779991 0.759005344062899 0.8826821533724662
    vertex 0.06975928433904041 0.7302276413340111 0.6378766921954012
    vertex 0.041974447218541835 1.0263581167214024 0.7494823549553817
  endloop
endfacet
facet normal 0.7870971846354217 -0.44474163438230985 -0.42741420260204804
  outer loop
    vertex 0.14227769521974076 0.5 0.7844614838809051
    vertex 0.06205421546047549 0.25316292747067687 0.8935712133160824
    vertex 0.07353222225891289 0.5001987658156298 0.6576576310195567
  endloop
endfacet
facet normal 0.6277633907478962 -0.42737830368867896 -0.6505850526817315
  outer loop
    vertex 0.06205421546047549 0.25316292747067687 0.8935712133160824
    vertex 0.0 0.0 1.0
    vertex -0.029473240720025412 0.28411910971732945 0.7849188755406042
  endloop
endfacet
facet normal 0.7039059070210882 -0.5783802155016387 -0.41230183164412076
  outer loop
    vertex 0.07353222225891289 0.5001987658156298 0.6576576310195567
    vertex -0.029473240720025412 0.28411910971732945 0.7849188755406042
    vertex 0.018851143396440204 0.5268776020726823 0.5268776020726823
  endloop
endfacet
facet normal 0.5165219899262261 -0.6038067113368095 -0.6071428903209508
  outer loop
    vertex 0.06205421546047549 0.25316292747067687 0.8935712133160824
    vertex -0.029473240720025412 0.28411910971732945 0.7849188755406042
    vertex 0.07353222225891289 0.5001987658156298 0.6576576310195567
  endloop
endfacet
facet normal 0.9998231763645985 0.0187739389550646 0.0010748117585182588
  outer loop
    vertex 0.029236434515818928 0.9733298920348753 0.5
    vertex 0.03338521722643281 0.7507715912714292 0.5281415275406363
    vertex 0.0291855502690092 0.9903897196907995 0.24934688647673015
  endloop
endfacet
facet normal 0.9897481226129727 -0.0635273592939803 -0.12791766260071122
  outer loop
    vertex 0.03338521722643281 0.7507715912714292 0.5281415275406363
    vertex 0.018851143396440204 0.5268776020726823 0.5268776020726823
    vertex 0.0032321867285677007 0.7812823773818187 0.2796834620025196
  endloop
endfacet
facet normal 0.9828785197301645 -0.13945996803856445 -0.12041898840184216
  outer loop
    vertex 0.0291855502690092 0.9903897196907995 0.24934688647673015
    vertex 0.0032321867285677007 0.7812823773818187 0.2796834620025196
    vertex 0.0 1.0 0.0
  endloop
endfacet
facet normal 0.9805036306814299 -0.14147907394636755 -0.136368258241471
  outer loop
    vertex 0.03338521722643281 0.7507715912714292 0.5281415275406363
    vertex 0.0032321867285677007 0.7812823773818187 0.2796834620025196
    vertex 0.0291855502690092 0.9903897196907995 0.24934688647673015
  endloop
endfacet
facet normal 0.8787899886080881 -0.02655921011776618 -0.47646905910050125
  outer loop
    vertex 0.14227769521974076 0.5 0.7844614838809051
    vertex 0.07353222225891289 0.5001987658156298 0.6576576310195567
    vertex 0.06975928433904041 0.7302276413340111 0.6378766921954012
  endloop
endfacet
facet normal 0.9168736113958001 -0.05728872401172525 -0.39504529212120915
  outer loop
    vertex 0.07353222225891289 0.5001987658156298 0.6576576310195567
    vertex 0.018851143396440204 0.5268776020726823 0.5268776020726823
    vertex 0.03338521722643281 0.7507715912714292 0.5281415275406363
  endloop
endfacet
facet normal 0.9476992811865758 -0.022589396661728874 -0.3183642435904299
  outer loop
    vertex 0.06975928433904041 0.7302276413340111 0.6378766921954012
    vertex 0.03338521722643281 0.7507715912714292 0.5281415275406363
    vertex 0.029236434515818928 0.9733298920348753 0.5
  endloop
endfacet
facet normal 0.9484932157603244 -0.011666769562012022 -0.3165825423876457
  outer loop
    vertex 0.07353222225891289 0.5001987658156298 0.6576576310195567
    vertex 0.03338521722643281 0.7507715912714292 0.5281415275406363
    vertex 0.06975928433904041 0.7302276413340111 0.6378766921954012
  endloop
endfacet
facet normal 0.5630208946415243 -0.7822115944190547 -0.26674424783574585
  outer loop
    vertex 0.0 0.0 0.0
    vertex -0.35695361543736226 -0.21596167569481864 -0.1201323645792267
    vertex -0.08882716252948715 0.02030428719444505 -0.2470298719105084
  endloop
endfacet
facet normal 0.6589981398601855 -0.7520085688491643 -0.014302588515616214
  outer loop
    vertex -0.35695361543736226 -0.21596167569481864 -0.1201323645792267
    vertex -0.6820764990562859 -0.5 -0.16600670201678625
    vertex -0.42729969922647665 -0.27257952229783333 -0.3844783998505656
  endloop
endfacet
facet normal 0.6050341486310111 -0.778203642921581 0.1683234063757262
  outer loop
    vertex -0.08882716252948715 0.02030428719444505 -0.2470298719105084
    vertex -0.42729969922647665 -0.27257952229783333 -0.3844783998505656
    vertex -0.10879398992667054 -0.04993620394644826 -0.5
  endloop
endfacet
facet normal 0.6574344770767563 -0.753389141767103 -0.013590784312916465
  outer loop
    vertex -0.35695361543736226 -0.21596167569481864 -0.1201323645792267
    vertex -0.42729969922647665 -0.27257952229783333 -0.3844783998505656
    vertex -0.08882716252948715 0.02030428719444505 -0.2470298719105084
  endloop
endfacet
facet normal 0.612290975815704 0.7873586052927763 0.0718761963800746
  outer loop
    vertex -0.6820764990562859 -0.5 -0.16600670201678625
    vertex -0.35890142519371904 -0.7622318200513207 -0.04644975274626015
    vertex -0.36286385706957525 -0.71893256711232 -0.4870111585968606
  endloop
endfacet
facet normal 0.4863473234649511 0.8019099192043901 0.3469967758352903
  outer loop
    vertex -0.35890142519371904 -0.7622318200513207 -0.04644975274626015
    vertex 0.0 -1.0 0.0
    vertex 0.05805911568132698 -0.8621594018999466 -0.3999248640446318
  endloop
endfacet
facet normal 0.3125404864821443 0.948613433916678 0.04950754793274684
  outer loop
    vertex -0.36286385706957525 -0.71893256711232 -0.4870111585968606
    vertex 0.05805911568132698 -0.8621594018999466 -0.3999248640446318
    vertex -0.0008117076042182085 -0.8207980689162264 -0.8207980689162264
  endloop
endfacet
facet normal 0.303982599759334 0.9483717964068877 0.09047383502167472
  outer loop
    vertex -0.35890142519371904 -0.7622318200513207 -0.04644975274626015
    vertex 0.05805911568132698 -0.8621594018999466 -0.3999248640446318
    vertex -0.36286385706957525 -0.71893256711232 -0.4870111585968606
  endloop
endfacet
facet normal 0.9597325494971765 0.10864132277874552 0.2590569366385201
  outer loop
    vertex -0.10879398992667054 -0.04993620394644826 -0.5
    vertex -0.027910294192248858 -0.44208972150632325 -0.6351928232239428
    vertex -0.046853514225131204 -0.008760361515145053 -0.7467399231990601
  endloop
endfacet
facet normal 0.9338477284851379 -0.10129604867553443 0.3430270113648081
  outer loop
    vertex -0.027910294192248858 -0.44208972150632325 -0.6351928232239428
    vertex -0.0008117076042182085 -0.8207980689162264 -0.8207980689162264
    vertex 0.05560220643291302 -0.3971064785085859 -0.8492614878007533
  endloop
endfacet
facet normal 0.9611862175617815 0.2047718902096804 0.18490410527954793
  outer loop
    vertex -0.046853514225131204 -0.008760361515145053 -0.7467399231990601
    vertex 0.05560220643291302 -0.3971064785085859 -0.8492614878007533
    vertex 0.0 0.0 -1.0
  endloop
endfacet
facet normal 0.9123299777149556 0.13902315157203887 0.38513189310885004
  outer loop
    vertex -0.027910294192248858 -0.44208972150632325 -0.6351928232239428
    vertex 0.05560220643291302 -0.3971064785085859 -0.8492614878007533
    vertex -0.046853514225131204 -0.008760361515145053 -0.7467399231990601
  endloop
endfacet
facet normal 0.6838022182326879 -0.06816633640867445 0.7264763429876262
  outer loop
    vertex -0.6820764990562859 -0.5 -0.16600670201678625
    vertex -0.36286385706957525 -0.71893256711232 -0.4870111585968606
    vertex -0.42729969922647665 -0.27257952229783333 -0.3844783998505656
  endloop
endfacet
facet normal 0.5918752540724983 -0.32017984657391135 0.739708421923478
  outer loop
    vertex -0.36286385706957525 -0.71893256711232 -0.4870111585968606
    vertex -0.0008117076042182085 -0.8207980689162264 -0.8207980689162264
    vertex -0.027910294192248858 -0.44208972150632325 -0.6351928232239428
  endloop
endfacet
facet normal 0.4568066268481442 -0.20426033473091135 0.865797563708305
  outer loop
    vertex -0.42729969922647665 -0.27257952229783333 -0.3844783998505656
    vertex -0.027910294192248858 -0.44208972150632325 -0.6351928232239428
    vertex -0.10879398992667054 -0.04993620394644826 -0.5
  endloop
endfacet
facet normal 0.4877775930207211 -0.1279498596972562 0.8635403019838531
  outer loop
    vertex -0.36286385706957525 -0.71893256711232 -0.4870111585968606
    vertex -0.027910294192248858 -0.44208972150632325 -0.6351928232239428
    vertex -0.42729969922647665 -0.27257952229783333 -0.3844783998505656
  endloop
endfacet
facet normal 0.516069039841871 0.38122336000873525 0.7670342208143907
  outer loop
    vertex 0.0 -1.0 -1.0
    vertex -0.0744271333584915 -0.7442551292166953 -1.077032260218817
    vertex -0.30802200582205314 -1.0182321119166693 -0.7836978804106971
  endloop
endfacet
facet normal 0.3598266283638747 0.4731997956594464 0.804118617436597
  outer loop
    vertex -0.0744271333584915 -0.7442551292166953 -1.077032260218817
    vertex -0.1260266804663662 -0.5 -1.1976793688287999
    vertex -0.3922819730206452 -0.7856358862034551 -0.9104473831739788
  endloop
endfacet
facet normal 0.6702221871292505 0.5273590088414956 0.522201776781159
  outer loop
    vertex -0.30802200582205314 -1.0182321119166693 -0.7836978804106971
    vertex -0.3922819730206452 -0.7856358862034551 -0.9104473831739788
    vertex -0.5540045622435084 -0.9865356215549369 -0.5
  endloop
endfacet
facet normal 0.3339008727030004 0.5414287206392893 0.7715990848070501
  outer loop
    vertex -0.0744271333584915 -0.7442551292166953 -1.077032260218817
    vertex -0.3922819730206452 -0.7856358862034551 -0.9104473831739788
    vertex -0.30802200582205314 -1.0182321119166693 -0.7836978804106971
  endloop
endfacet
facet normal 0.8626111479561648 -0.002695246461043545 -0.5058603987942343
  outer loop
    vertex -0.1260266804663662 -0.5 -1.1976793688287999
    vertex -0.06191412756920524 -0.2539049179474786 -1.0896635682555986
    vertex -0.007592708494343833 -0.6219649134728926 -0.9950717121205438
  endloop
endfacet
facet normal 0.8846033941449755 -0.052053621658182225 -0.4634298820096258
  outer loop
    vertex -0.06191412756920524 -0.2539049179474786 -1.0896635682555986
    vertex 0.0 0.0 -1.0
    vertex 0.05560220643291302 -0.3971064785085859 -0.8492614878007533
  endloop
endfacet
facet normal 0.9693090916978003 -0.1425194919193154 -0.20031994203035622
  outer loop
    vertex -0.007592708494343833 -0.6219649134728926 -0.9950717121205438
    vertex 0.05560220643291302 -0.3971064785085859 -0.8492614878007533
    vertex -0.0008117076042182085 -0.8207980689162264 -0.8207980689162264
  endloop
endfacet
facet normal 0.9035932212559593 0.023427588169524657 -0.42775043964073056
  outer loop
    vertex -0.06191412756920524 -0.2539049179474786 -1.0896635682555986
    vertex 0.05560220643291302 -0.3971064785085859 -0.8492614878007533
    vertex -0.007592708494343833 -0.6219649134728926 -0.9950717121205438
  endloop
endfacet
facet normal 0.08551282800542175 -0.9663216817739878 -0.24271374823031167
  outer loop
    vertex -0.5540045622435084 -0.9865356215549369 -0.5
    vertex -0.2919122437932685 -0.9152669218138164 -0.6914033909542895
    vertex -0.23424046011307187 -1.0090246360431885 -0.2978047995742414
  endloop
endfacet
facet normal 0.2534586860797289 -0.9586170358186881 -0.1296613785555651
  outer loop
    vertex -0.2919122437932685 -0.9152669218138164 -0.6914033909542895
    vertex -0.0008117076042182085 -0.8207980689162264 -0.8207980689162264
    vertex 0.05805911568132698 -0.8621594018999466 -0.3999248640446318
  endloop
endfacet
facet normal 0.3608391520268615 -0.8966192710666168 -0.25664954532689976
  outer loop
    vertex -0.23424046011307187 -1.0090246360431885 -0.2978047995742414
    vertex 0.05805911568132698 -0.8621594018999466 -0.3999248640446318
    vertex 0.0 -1.0 0.0
  endloop
endfacet
facet normal 0.35712917202227323 -0.8954858373442212 -0.26563860714625953
  outer loop
    vertex -0.2919122437932685 -0.9152669218138164 -0.6914033909542895
    vertex 0.05805911568132698 -0.8621594018999466 -0.3999248640446318
    vertex -0.23424046011307187 -1.0090246360431885 -0.2978047995742414
  endloop
endfacet
facet normal 0.20302821179081437 -0.7819269070721524 -0.5893809101197643
  outer loop
    vertex -0.1260266804663662 -0.5 -1.1976793688287999
    vertex -0.007592708494343833 -0.6219649134728926 -0.9950717121205438
    vertex -0.3922819730206452 -0.7856358862034551 -0.9104473831739788
  endloop
endfacet
facet normal -0.11790713591348977 -0.6568088586128704 -0.7447818677628614
  outer loop
    vertex -0.007592708494343833 -0.6219649134728926 -0.9950717121205438
    vertex -0.0008117076042182085 -0.8207980689162264 -0.8207980689162264
    vertex -0.2919122437932685 -0.9152669218138164 -0.6914033909542895
  endloop
endfacet
facet normal -0.10521626236926573 -0.8761983189536162 -0.47032546602953457
  outer loop
    vertex -0.3922819730206452 -0.7856358862034551 -0.9104473831739788
    vertex -0.2919122437932685 -0.9152669218138164 -0.6914033909542895
    vertex -0.5540045622435084 -0.9865356215549369 -0.5
  endloop
endfacet
facet normal 0.21321265595500896 -0.7948607677215049 -0.5680992195715383
  outer loop
    vertex -0.007592708494343833 -0.6219649134728926 -0.9950717121205438
    vertex -0.2919122437932685 -0.9152669218138164 -0.6914033909542895
    vertex -0.3922819730206452 -0.7856358862034551 -0.9104473831739788
  endloop
endfacet
facet normal 0.5262210359289561 -0.8495724608202644 -0.03630502942646835
  outer loop
    vertex 0.0 0.0 0.0
    vertex -0.030593738127370693 -0.029578938285852202 0.24873641366764285
    vertex -0.35695361543736226 -0.21596167569481864 -0.1201323645792267
  endloop
endfacet
facet normal 0.39078998636042483 -0.9200736720198894 -0.027342725106618664
  outer loop
    vertex -0.030593738127370693 -0.029578938285852202 0.24873641366764285
    vertex -0.048489492985987634 -0.04464698488810028 0.5
    vertex -0.40822751872756696 -0.18702610286672844 0.1495323623390838
  endloop
endfacet
facet normal 0.6284411052659058 -0.7516668316526086 0.20014682462006675
  outer loop
    vertex -0.35695361543736226 -0.21596167569481864 -0.1201323645792267
    vertex -0.40822751872756696 -0.18702610286672844 0.1495323623390838
    vertex -0.6820764990562859 -0.5 -0.16600670201678625
  endloop
endfacet
facet normal 0.34249117487523245 -0.9250294394821146 0.16437862155398408
  outer loop
    vertex -0.030593738127370693 -0.029578938285852202 0.24873641366764285
    vertex -0.40822751872756696 -0.18702610286672844 0.1495323623390838
    vertex -0.35695361543736226 -0.21596167569481864 -0.1201323645792267
  endloop
endfacet
facet normal 0.9639546177394012 0.2607769493529285 -0.05279088581436306
  outer loop
    vertex -0.048489492985987634 -0.04464698488810028 0.5
    vertex -0.03348424003176012 -0.0488434682544424 0.7532641106327629
    vertex 0.02420493097667294 -0.30772353843307276 0.5278423928732837
  endloop
endfacet
facet normal 0.9646960328509263 0.20061536822844983 -0.1706312932385146
  outer loop
    vertex -0.03348424003176012 -0.0488434682544424 0.7532641106327629
    vertex 0.0 0.0 1.0
    vertex 0.030387408233534117 -0.3055385854581783 0.81257175602909
  endloop
endfacet
facet normal 0.9992599186537153 -0.03192816467236359 -0.021452442117967714
  outer loop
    vertex 0.02420493097667294 -0.30772353843307276 0.5278423928732837
    vertex 0.030387408233534117 -0.3055385854581783 0.81257175602909
    vertex 0.016651697026628283 -0.5774478408733321 0.5774478408733321
  endloop
endfacet
facet normal 0.9713833111745236 0.2364101595371487 -0.022906314396657475
  outer loop
    vertex -0.03348424003176012 -0.0488434682544424 0.7532641106327629
    vertex 0.030387408233534117 -0.3055385854581783 0.81257175602909
    vertex 0.02420493097667294 -0.30772353843307276 0.5278423928732837
  endloop
endfacet
facet normal 0.647081811705037 0.5631367860479678 -0.5139670117430615
  outer loop
    vertex -0.6820764990562859 -0.5 -0.16600670201678625
    vertex -0.339874949678635 -0.5487517482241628 0.21140758975367174
    vertex -0.35890142519371904 -0.7622318200513207 -0.04644975274626015
  endloop
endfacet
facet normal 0.5545891430738854 0.6745175450869662 -0.48729556098370747
  outer loop
    vertex -0.339874949678635 -0.5487517482241628 0.21140758975367174
    vertex 0.016651697026628283 -0.5774478408733321 0.5774478408733321
    vertex -0.02673754554806553 -0.7631478846807455 0.27101956102566205
  endloop
endfacet
facet normal 0.5135335502516853 0.6705699531975255 -0.5353683130654712
  outer loop
    vertex -0.35890142519371904 -0.7622318200513207 -0.04644975274626015
    vertex -0.02673754554806553 -0.7631478846807455 0.27101956102566205
    vertex 0.0 -1.0 0.0
  endloop
endfacet
facet normal 0.5377655115505238 0.6294968574228564 -0.5608404060707034
  outer loop
    vertex -0.339874949678635 -0.5487517482241628 0.21140758975367174
    vertex -0.02673754554806553 -0.7631478846807455 0.27101956102566205
    vertex -0.35890142519371904 -0.7622318200513207 -0.04644975274626015
  endloop
endfacet
facet normal 0.6714876702550916 0.10796059151344213 -0.7331090092035816
  outer loop
    vertex -0.048489492985987634 -0.04464698488810028 0.5
    vertex 0.02420493097667294 -0.30772353843307276 0.5278423928732837
    vertex -0.40822751872756696 -0.18702610286672844 0.1495323623390838
  endloop
endfacet
facet normal 0.7026882778044523 -0.14768075383544588 -0.6960025712472672
  outer loop
    vertex 0.02420493097667294 -0.30772353843307276 0.5278423928732837
    vertex 0.016651697026628283 -0.5774478408733321 0.5774478408733321
    vertex -0.339874949678635 -0.5487517482241628 0.21140758975367174
  endloop
endfacet
facet normal 0.74222624529211 0.025704393430098307 -0.6696562438729046
  outer loop
    vertex -0.40822751872756696 -0.18702610286672844 0.1495323623390838
    vertex -0.339874949678635 -0.5487517482241628 0.21140758975367174
    vertex -0.6820764990562859 -0.5 -0.16600670201678625
  endloop
endfacet
facet normal 0.6577079507088976 -0.004567149136982347 -0.7532591803111747
  outer loop
    vertex 0.02420493097667294 -0.30772353843307276 0.5278423928732837
    vertex -0.339874949678635 -0.5487517482241628 0.21140758975367174
    vertex -0.40822751872756696 -0.18702610286672844 0.1495323623390838
  endloop
endfacet
facet normal 0.35522202409896975 0.5743283255888921 0.7375393467614392
  outer loop
    vertex 0.0 -1.0 1.0
    vertex 0.09282476360909196 -0.7456998016173206 0.7572669060493067
    vertex -0.2510184712874471 -0.754603520310321 0.9298059689209077
  endloop
endfacet
facet normal 0.3055644157836188 0.6394348829875701 0.7055164195293319
  outer loop
    vertex 0.09282476360909196 -0.7456998016173206 0.7572669060493067
    vertex 0.22183047093927896 -0.5234934806822822 0.5
    vertex -0.13135488447861307 -0.5247877466943669 0.6541402476502801
  endloop
endfacet
facet normal 0.374021937432809 0.626019797247767 0.6842563874549308
  outer loop
    vertex -0.2510184712874471 -0.754603520310321 0.9298059689209077
    vertex -0.13135488447861307 -0.5247877466943669 0.6541402476502801
    vertex -0.4778865188360364 -0.5 0.82088010597831
  endloop
endfacet
facet normal 0.32678306414960107 0.6513141217080524 0.6848377500172329
  outer loop
    vertex 0.09282476360909196 -0.7456998016173206 0.7572669060493067
    vertex -0.13135488447861307 -0.5247877466943669 0.6541402476502801
    vertex -0.2510184712874471 -0.754603520310321 0.9298059689209077
  endloop
endfacet
facet normal -0.22650572824273452 0.6421087262528404 -0.7323875604781825
  outer loop
    vertex 0.22183047093927896 -0.5234934806822822 0.5
    vertex 0.15255866330837292 -0.8060231761088568 0.2737204581729531
    vertex 0.10802647638268924 -0.5645244036548392 0.49922301107552547
  endloop
endfacet
facet normal 0.18859040328844817 0.7486079794986268 -0.6356254815679467
  outer loop
    vertex 0.15255866330837292 -0.8060231761088568 0.2737204581729531
    vertex 0.0 -1.0 0.0
    vertex -0.02673754554806553 -0.7631478846807455 0.27101956102566205
  endloop
endfacet
facet normal -0.4626625776851074 0.7856992099631682 -0.4106337670881746
  outer loop
    vertex 0.10802647638268924 -0.5645244036548392 0.49922301107552547
    vertex -0.02673754554806553 -0.7631478846807455 0.27101956102566205
    vertex 0.016651697026628283 -0.5774478408733321 0.5774478408733321
  endloop
endfacet
facet normal 0.175352720222731 0.6889914020512294 -0.7032369951943438
  outer loop
    vertex 0.15255866330837292 -0.8060231761088568 0.2737204581729531
    vertex -0.02673754554806553 -0.7631478846807455 0.27101956102566205
    vertex 0.10802647638268924 -0.5645244036548392 0.49922301107552547
  endloop
endfacet
facet normal 0.22775214363828605 -0.5292876276135703 0.8173026173476773
  outer loop
    vertex -0.4778865188360364 -0.5 0.82088010597831
    vertex -0.21025416896634755 -0.5187299072660019 0.7341712810365797
    vertex -0.21087870841169026 -0.27117194496269365 0.8946645964593435
  endloop
endfacet
facet normal 0.3258298034505371 -0.627756424339708 0.7069347995986679
  outer loop
    vertex -0.21025416896634755 -0.5187299072660019 0.7341712810365797
    vertex 0.016651697026628283 -0.5774478408733321 0.5774478408733321
    vertex 0.030387408233534117 -0.3055385854581783 0.81257175602909
  endloop
endfacet
facet normal 0.2159115520514529 -0.49486635880756447 0.8417181764767087
  outer loop
    vertex -0.21087870841169026 -0.27117194496269365 0.8946645964593435
    vertex 0.030387408233534117 -0.3055385854581783 0.81257175602909
    vertex 0.0 0.0 1.0
  endloop
endfacet
facet normal 0.20378713456497186 -0.5322112178570854 0.8217189442704094
  outer loop
    vertex -0.21025416896634755 -0.5187299072660019 0.7341712810365797
    vertex 0.030387408233534117 -0.3055385854581783 0.81257175602909
    vertex -0.21087870841169026 -0.27117194496269365 0.8946645964593435
  endloop
endfacet
facet normal -0.2665449531007275 0.7507391806299086 -0.6044373173817649
  outer loop
    vertex 0.22183047093927896 -0.5234934806822822 0.5
    vertex 0.10802647638268924 -0.5645244036548392 0.49922301107552547
    vertex -0.13135488447861307 -0.5247877466943669 0.6541402476502801
  endloop
endfacet
facet normal -0.5933709608675852 -0.30742578751153793 -0.743908790089208
  outer loop
    vertex 0.10802647638268924 -0.5645244036548392 0.49922301107552547
    vertex 0.016651697026628283 -0.5774478408733321 0.5774478408733321
    vertex -0.21025416896634755 -0.5187299072660019 0.7341712810365797
  endloop
endfacet
facet normal -0.06664279646351577 -0.9977285599487794 0.009821320789855127
  outer loop
    vertex -0.13135488447861307 -0.5247877466943669 0.6541402476502801
    vertex -0.21025416896634755 -0.5187299072660019 0.7341712810365797
    vertex -0.4778865188360364 -0.5 0.82088010597831
  endloop
endfacet
facet normal -0.2996671518600576 -0.9270702631383563 -0.22525613265937985
  outer loop
    vertex 0.10802647638268924 -0.5645244036548392 0.49922301107552547
    vertex -0.21025416896634755 -0.5187299072660019 0.7341712810365797
    vertex -0.13135488447861307 -0.5247877466943669 0.6541402476502801
  endloop
endfacet
facet normal 0.9354795849992417 0.1388257923607734 -0.32496976078559986
  outer loop
    vertex 0.0 0.0 0.0
    vertex -0.08882716252948715 0.02030428719444505 -0.2470298719105084
    vertex -0.04508469840458542 0.252380768324022 -0.021967751082059297
  endloop
endfacet
facet normal 0.9677534549750699 -0.25181632946407057 -0.006464255491396559
  outer loop
    vertex -0.08882716252948715 0.02030428719444505 -0.2470298719105084
    vertex -0.10879398992667054 -0.04993620394644826 -0.5
    vertex -0.03682867153817629 0.2211352114338506 -0.285825812888799
  endloop
endfacet
facet normal 0.983911754016746 0.17839372508597476 0.00966121926258101
  outer loop
    vertex -0.04508469840458542 0.252380768324022 -0.021967751082059297
    vertex -0.03682867153817629 0.2211352114338506 -0.285825812888799
    vertex -0.08944940979548689 0.5 -0.07607646410556197
  endloop
endfacet
facet normal 0.9691012892292953 -0.2395783676318974 0.058693244730148586
  outer loop
    vertex -0.08882716252948715 0.02030428719444505 -0.2470298719105084
    vertex -0.03682867153817629 0.2211352114338506 -0.285825812888799
    vertex -0.04508469840458542 0.252380768324022 -0.021967751082059297
  endloop
endfacet
facet normal 0.9574950003779675 -0.20108048263643005 0.20680900307746883
  outer loop
    vertex -0.10879398992667054 -0.04993620394644826 -0.5
    vertex -0.046853514225131204 -0.008760361515145053 -0.7467399231990601
    vertex -0.04554265366721899 0.2295706592733504 -0.5210796590784094
  endloop
endfacet
facet normal 0.9444244575047158 -0.2843871558638058 0.164882957417129
  outer loop
    vertex -0.046853514225131204 -0.008760361515145053 -0.7467399231990601
    vertex 0.0 0.0 -1.0
    vertex 0.04530781375137084 0.27790167901278107 -0.7801964420757475
  endloop
endfacet
facet normal 0.9310646424241872 -0.229491958272957 0.283640745866252
  outer loop
    vertex -0.04554265366721899 0.2295706592733504 -0.5210796590784094
    vertex 0.04530781375137084 0.27790167901278107 -0.7801964420757475
    vertex 0.019735744945531916 0.5091518238270646 -0.5091518238270646
  endloop
endfacet
facet normal 0.9242849786320863 -0.26510473576597526 0.2746211159935382
  outer loop
    vertex -0.046853514225131204 -0.008760361515145053 -0.7467399231990601
    vertex 0.04530781375137084 0.27790167901278107 -0.7801964420757475
    vertex -0.04554265366721899 0.2295706592733504 -0.5210796590784094
  endloop
endfacet
facet normal 0.9787195614241834 -0.16641662831152434 0.12005634471812854
  outer loop
    vertex -0.08944940979548689 0.5 -0.07607646410556197
    vertex -0.05422611157990735 0.5480787667073359 -0.29657813600642774
    vertex -0.050741631646587446 0.7517750315253385 -0.04262973377817436
  endloop
endfacet
facet normal 0.8532040123514796 -0.37250981598066607 0.3650744448812965
  outer loop
    vertex -0.05422611157990735 0.5480787667073359 -0.29657813600642774
    vertex 0.019735744945531916 0.5091518238270646 -0.5091518238270646
    vertex -0.0024474343446238608 0.7303029753750051 -0.23165293623155248
  endloop
endfacet
facet normal 0.934566288847442 -0.23666603029358602 0.2656596353513172
  outer loop
    vertex -0.050741631646587446 0.7517750315253385 -0.04262973377817436
    vertex -0.0024474343446238608 0.7303029753750051 -0.23165293623155248
    vertex 0.0 1.0 0.0
  endloop
endfacet
facet normal 0.8970036086016586 -0.3507318347341664 0.2690198993747634
  outer loop
    vertex -0.05422611157990735 0.5480787667073359 -0.29657813600642774
    vertex -0.0024474343446238608 0.7303029753750051 -0.23165293623155248
    vertex -0.050741631646587446 0.7517750315253385 -0.04262973377817436
  endloop
endfacet
facet normal 0.9736691521762928 -0.22366240522888126 -0.0440852649706337
  outer loop
    vertex -0.10879398992667054 -0.04993620394644826 -0.5
    vertex -0.04554265366721899 0.2295706592733504 -0.5210796590784094
    vertex -0.03682867153817629 0.2211352114338506 -0.285825812888799
  endloop
endfacet
facet normal 0.906213481465234 -0.22681237631271697 0.35683787910203524
  outer loop
    vertex -0.04554265366721899 0.2295706592733504 -0.5210796590784094
    vertex 0.019735744945531916 0.5091518238270646 -0.5091518238270646
    vertex -0.05422611157990735 0.5480787667073359 -0.29657813600642774
  endloop
endfacet
facet normal 0.9837773392898168 0.057932808806491626 0.16978202603231873
  outer loop
    vertex -0.03682867153817629 0.2211352114338506 -0.285825812888799
    vertex -0.05422611157990735 0.5480787667073359 -0.29657813600642774
    vertex -0.08944940979548689 0.5 -0.07607646410556197
  endloop
endfacet
facet normal 0.9980323185713799 0.051953148422816404 -0.03510500613861727
  outer loop
    vertex -0.04554265366721899 0.2295706592733504 -0.5210796590784094
    vertex -0.05422611157990735 0.5480787667073359 -0.29657813600642774
    vertex -0.03682867153817629 0.2211352114338506 -0.285825812888799
  endloop
endfacet
facet normal 0.8513371771886477 -0.5224925031875123 -0.04718680800088481
  outer loop
    vertex 0.0 1.0 -1.0
    vertex -0.013776921591455308 0.9550380074710256 -0.7507036609358579
    vertex -0.1615354366259409 0.721999832299503 -0.8361431679131237
  endloop
endfacet
facet normal 0.8633594578520504 -0.4916077432202686 -0.11372015363728742
  outer loop
    vertex -0.013776921591455308 0.9550380074710256 -0.7507036609358579
    vertex -0.001783534240596591 0.9181072335188455 -0.5
    vertex -0.1501456652088141 0.678842180874179 -0.592026752177553
  endloop
endfacet
facet normal 0.6345974785156725 -0.7554234594731785 -0.16316077083394034
  outer loop
    vertex -0.1615354366259409 0.721999832299503 -0.8361431679131237
    vertex -0.1501456652088141 0.678842180874179 -0.592026752177553
    vertex -0.3784801845130221 0.5 -0.6520836591335231
  endloop
endfacet
facet normal 0.8581486114338036 -0.49720446105700683 -0.1279401602283121
  outer loop
    vertex -0.013776921591455308 0.9550380074710256 -0.7507036609358579
    vertex -0.1501456652088141 0.678842180874179 -0.592026752177553
    vertex -0.1615354366259409 0.721999832299503 -0.8361431679131237
  endloop
endfacet
facet normal 0.9860800309394248 0.16564549432909384 -0.014413285224863247
  outer loop
    vertex -0.001783534240596591 0.9181072335188455 -0.5
    vertex 0.0008640903441808211 0.9245898694926467 -0.24436160004985177
    vertex 0.032096177924170105 0.7150872169503791 -0.515349962210616
  endloop
endfacet
facet normal 0.9998270714213281 -0.016477677108553804 0.00862052261505114
  outer loop
    vertex 0.0008640903441808211 0.9245898694926467 -0.24436160004985177
    vertex 0.0 1.0 0.0
    vertex -0.0024474343446238608 0.7303029753750051 -0.23165293623155248
  endloop
endfacet
facet normal 0.9907616877296322 -0.05574556235292679 0.12362730444803365
  outer loop
    vertex 0.032096177924170105 0.7150872169503791 -0.515349962210616
    vertex -0.0024474343446238608 0.7303029753750051 -0.23165293623155248
    vertex 0.019735744945531916 0.5091518238270646 -0.5091518238270646
  endloop
endfacet
facet normal 0.9925704514399712 -0.008980843856890937 0.12133937271912151
  outer loop
    vertex 0.0008640903441808211 0.9245898694926467 -0.24436160004985177
    vertex -0.0024474343446238608 0.7303029753750051 -0.23165293623155248
    vertex 0.032096177924170105 0.7150872169503791 -0.515349962210616
  endloop
endfacet
facet normal 0.07115501711127549 0.6046237253810025 -0.7933266125917448
  outer loop
    vertex -0.3784801845130221 0.5 -0.6520836591335231
    vertex -0.17426944277769263 0.547479815117501 -0.5975814644094957
    vertex -0.2144720054470017 0.23836766585106453 -0.8367731797418848
  endloop
endfacet
facet normal 0.4019953532150637 0.7149496974318958 -0.5720547754678189
  outer loop
    vertex -0.17426944277769263 0.547479815117501 -0.5975814644094957
    vertex 0.019735744945531916 0.5091518238270646 -0.5091518238270646
    vertex 0.04530781375137084 0.27790167901278107 -0.7801964420757475
  endloop
endfacet
facet normal 0.07872934866008585 0.6104994109895435 -0.7880940038098113
  outer loop
    vertex -0.2144720054470017 0.23836766585106453 -0.8367731797418848
    vertex 0.04530781375137084 0.27790167901278107 -0.7801964420757475
    vertex 0.0 0.0 -1.0
  endloop
endfacet
facet normal 0.08095911363739669 0.6033636499183835 -0.7933460328735585
  outer loop
    vertex -0.17426944277769263 0.547479815117501 -0.5975814644094957
    vertex 0.04530781375137084 0.27790167901278107 -0.7801964420757475
    vertex -0.2144720054470017 0.23836766585106453 -0.8367731797418848
  endloop
endfacet
facet normal 0.3623893788179889 0.130252316427429 -0.9228804213901176
  outer loop
    vertex -0.001783534240596591 0.9181072335188455 -0.5
    vertex 0.032096177924170105 0.7150872169503791 -0.515349962210616
    vertex -0.1501456652088141 0.678842180874179 -0.592026752177553
  endloop
endfacet
facet normal 0.405705840183896 -0.05181581615688452 -0.9125337760525223
  outer loop
    vertex 0.032096177924170105 0.7150872169503791 -0.515349962210616
    vertex 0.019735744945531916 0.5091518238270646 -0.5091518238270646
    vertex -0.17426944277769263 0.547479815117501 -0.5975814644094957
  endloop
endfacet
facet normal 0.25933263225084674 -0.006786878559766674 -0.9657642176687133
  outer loop
    vertex -0.1501456652088141 0.678842180874179 -0.592026752177553
    vertex -0.17426944277769263 0.547479815117501 -0.5975814644094957
    vertex -0.3784801845130221 0.5 -0.6520836591335231
  endloop
endfacet
facet normal 0.39322756899955436 -0.03336013376154795 -0.9188357744744773
  outer loop
    vertex 0.032096177924170105 0.7150872169503791 -0.515349962210616
    vertex -0.17426944277769263 0.547479815117501 -0.5975814644094957
    vertex -0.1501456652088141 0.678842180874179 -0.592026752177553
  endloop
endfacet
endsolid model
