solid Exported from Blender-3.6.1
facet normal 0.016813 -0.727610 -0.685784
outer loop
vertex -757.952209 -786.666748 -537.270020
vertex -1406.256226 -1029.922607 -295.072052
vertex -1720.345703 -488.052551 -877.690918
endloop
endfacet
facet normal 0.116806 0.307155 -0.944464
outer loop
vertex -1448.182983 136.733017 -1087.541870
vertex -623.789185 1132.639893 -661.700256
vertex -576.253235 -149.596451 -1072.825195
endloop
endfacet
facet normal 0.064404 -0.652848 -0.754746
outer loop
vertex -576.253235 -149.596451 -1072.825195
vertex -757.952209 -786.666748 -537.270020
vertex -1720.345703 -488.052551 -877.690918
endloop
endfacet
facet normal 0.667320 -0.744508 -0.019788
outer loop
vertex 2291.071777 -333.355133 434.518463
vertex 1419.979980 -1112.155273 360.016998
vertex 1876.988403 -674.273071 -703.030212
endloop
endfacet
facet normal 0.882645 0.115311 0.455677
outer loop
vertex 1083.606812 723.415161 630.974060
vertex 620.712769 954.052124 1469.235596
vertex 696.608459 -400.030457 1664.883301
endloop
endfacet
facet normal -0.138449 -0.953859 0.266429
outer loop
vertex -38.451866 -1195.177979 959.249939
vertex -651.732666 -1034.849976 1214.561279
vertex -568.279907 -1329.326660 203.651627
endloop
endfacet
facet normal -0.352055 -0.935501 0.029918
outer loop
vertex -1299.194092 -1037.922363 714.605286
vertex -1406.256226 -1029.922607 -295.072052
vertex -568.279907 -1329.326660 203.651627
endloop
endfacet
facet normal -0.574775 0.344554 0.742238
outer loop
vertex -651.732666 -1034.849976 1214.561279
vertex -1238.783813 -355.774841 444.726105
vertex -1299.194092 -1037.922363 714.605286
endloop
endfacet
facet normal 0.739805 -0.672703 -0.012617
outer loop
vertex 696.608459 -400.030457 1664.883301
vertex -38.451866 -1195.177979 959.249939
vertex 641.718018 -432.074249 154.819366
endloop
endfacet
facet normal 0.073764 -0.795466 -0.601492
outer loop
vertex -757.952209 -786.666748 -537.270020
vertex -568.279907 -1329.326660 203.651627
vertex -1406.256226 -1029.922607 -295.072052
endloop
endfacet
facet normal 0.457845 0.007192 -0.889003
outer loop
vertex -576.253235 -149.596451 -1072.825195
vertex 408.109283 873.090149 -557.595947
vertex 147.525070 -15.495440 -698.987671
endloop
endfacet
facet normal -0.961733 -0.256936 0.095153
outer loop
vertex -1870.360229 266.160767 -357.368713
vertex -1720.345703 -488.052551 -877.690918
vertex -1560.778442 -710.247375 135.111008
endloop
endfacet
facet normal -0.239636 -0.010205 0.970809
outer loop
vertex 1083.606812 723.415161 630.974060
vertex 996.104797 -318.577850 598.421936
vertex 1997.802002 -67.160614 848.325439
endloop
endfacet
facet normal 0.451108 -0.570242 0.686532
outer loop
vertex 2291.071777 -333.355133 434.518463
vertex 1997.802002 -67.160614 848.325439
vertex 1419.979980 -1112.155273 360.016998
endloop
endfacet
facet normal 0.520513 0.725630 0.450031
outer loop
vertex 1083.606812 723.415161 630.974060
vertex 1997.802002 -67.160614 848.325439
vertex 2123.221191 630.021118 -420.871338
endloop
endfacet
facet normal 0.051381 -0.189049 -0.980623
outer loop
vertex 2123.221191 630.021118 -420.871338
vertex 408.109283 873.090149 -557.595947
vertex -623.789185 1132.639893 -661.700256
endloop
endfacet
facet normal 0.520351 -0.794312 -0.313533
outer loop
vertex 641.718018 -432.074249 154.819366
vertex -38.451866 -1195.177979 959.249939
vertex 231.496674 -798.249329 401.678070
endloop
endfacet
facet normal -0.302346 -0.033576 0.952607
outer loop
vertex 696.608459 -400.030457 1664.883301
vertex -136.168518 17.466457 1415.285400
vertex -651.732666 -1034.849976 1214.561279
endloop
endfacet
facet normal -0.580692 -0.811908 -0.060025
outer loop
vertex 1014.735291 -594.020142 -1263.311768
vertex 641.718018 -432.074249 154.819366
vertex 147.525070 -15.495440 -698.987671
endloop
endfacet
facet normal -0.669696 -0.669267 0.321852
outer loop
vertex 1419.979980 -1112.155273 360.016998
vertex 641.718018 -432.074249 154.819366
vertex 1097.313721 -1170.109741 -431.885010
endloop
endfacet
facet normal 0.425182 -0.674874 -0.603130
outer loop
vertex -568.279907 -1329.326660 203.651627
vertex -757.952209 -786.666748 -537.270020
vertex -227.435593 -573.140076 -402.203430
endloop
endfacet
facet normal -0.834915 0.190231 -0.516458
outer loop
vertex -1870.360229 266.160767 -357.368713
vertex -1448.182983 136.733017 -1087.541870
vertex -1720.345703 -488.052551 -877.690918
endloop
endfacet
facet normal 0.171563 0.306556 -0.936264
outer loop
vertex -623.789185 1132.639893 -661.700256
vertex 408.109283 873.090149 -557.595947
vertex -576.253235 -149.596451 -1072.825195
endloop
endfacet
facet normal -0.806942 0.277696 0.521277
outer loop
vertex -1238.783813 -355.774841 444.726105
vertex -1560.778442 -710.247375 135.111008
vertex -1299.194092 -1037.922363 714.605286
endloop
endfacet
facet normal 0.560896 -0.656711 -0.504110
outer loop
vertex -568.279907 -1329.326660 203.651627
vertex -227.435593 -573.140076 -402.203430
vertex 231.496674 -798.249329 401.678070
endloop
endfacet
facet normal 0.160264 0.832708 -0.530012
outer loop
vertex 408.109283 873.090149 -557.595947
vertex 2123.221191 630.021118 -420.871338
vertex 1249.826294 222.728592 -1324.869995
endloop
endfacet
facet normal 0.172300 0.981529 0.083146
outer loop
vertex 2123.221191 630.021118 -420.871338
vertex -623.789185 1132.639893 -661.700256
vertex 1083.606812 723.415161 630.974060
endloop
endfacet
facet normal -0.684740 0.201905 0.700261
outer loop
vertex -136.168518 17.466457 1415.285400
vertex -1238.783813 -355.774841 444.726105
vertex -651.732666 -1034.849976 1214.561279
endloop
endfacet
facet normal 0.715464 0.016030 -0.698465
outer loop
vertex 1249.826294 222.728592 -1324.869995
vertex 2123.221191 630.021118 -420.871338
vertex 1876.988403 -674.273071 -703.030212
endloop
endfacet
facet normal -0.895713 -0.402145 -0.189680
outer loop
vertex 641.718018 -432.074249 154.819366
vertex 1014.735291 -594.020142 -1263.311768
vertex 1097.313721 -1170.109741 -431.885010
endloop
endfacet
facet normal -0.385346 -0.235193 0.892296
outer loop
vertex 247.291580 573.483398 1727.442505
vertex -136.168518 17.466457 1415.285400
vertex 696.608459 -400.030457 1664.883301
endloop
endfacet
facet normal -0.846984 -0.524672 0.085654
outer loop
vertex -1560.778442 -710.247375 135.111008
vertex -1406.256226 -1029.922607 -295.072052
vertex -1299.194092 -1037.922363 714.605286
endloop
endfacet
facet normal -0.195763 -0.945740 0.259332
outer loop
vertex -651.732666 -1034.849976 1214.561279
vertex -1299.194092 -1037.922363 714.605286
vertex -568.279907 -1329.326660 203.651627
endloop
endfacet
facet normal 0.566864 -0.650312 -0.505726
outer loop
vertex 231.496674 -798.249329 401.678070
vertex -227.435593 -573.140076 -402.203430
vertex 147.525070 -15.495440 -698.987671
endloop
endfacet
facet normal -0.682788 0.351440 0.640539
outer loop
vertex -801.178162 934.373657 203.340042
vertex -1238.783813 -355.774841 444.726105
vertex -136.168518 17.466457 1415.285400
endloop
endfacet
facet normal 0.444122 -0.635020 -0.632064
outer loop
vertex -576.253235 -149.596451 -1072.825195
vertex 147.525070 -15.495440 -698.987671
vertex -227.435593 -573.140076 -402.203430
endloop
endfacet
facet normal 0.422540 -0.650802 -0.630806
outer loop
vertex -576.253235 -149.596451 -1072.825195
vertex -227.435593 -573.140076 -402.203430
vertex -757.952209 -786.666748 -537.270020
endloop
endfacet
facet normal 0.960691 -0.088891 0.263004
outer loop
vertex 1083.606812 723.415161 630.974060
vertex 696.608459 -400.030457 1664.883301
vertex 996.104797 -318.577850 598.421936
endloop
endfacet
facet normal -0.078037 -0.286713 -0.954833
outer loop
vertex -1448.182983 136.733017 -1087.541870
vertex -576.253235 -149.596451 -1072.825195
vertex -1720.345703 -488.052551 -877.690918
endloop
endfacet
facet normal 0.944102 -0.111090 -0.310373
outer loop
vertex 2123.221191 630.021118 -420.871338
vertex 2291.071777 -333.355133 434.518463
vertex 1876.988403 -674.273071 -703.030212
endloop
endfacet
facet normal 0.294079 -0.955733 0.009591
outer loop
vertex 696.608459 -400.030457 1664.883301
vertex 641.718018 -432.074249 154.819366
vertex 996.104797 -318.577850 598.421936
endloop
endfacet
facet normal -0.439455 0.758107 0.481823
outer loop
vertex 620.712769 954.052124 1469.235596
vertex -801.178162 934.373657 203.340042
vertex 247.291580 573.483398 1727.442505
endloop
endfacet
facet normal -0.580435 0.675145 -0.455274
outer loop
vertex -623.789185 1132.639893 -661.700256
vertex -1448.182983 136.733017 -1087.541870
vertex -1870.360229 266.160767 -357.368713
endloop
endfacet
facet normal 0.294578 -0.771549 -0.563859
outer loop
vertex 1014.735291 -594.020142 -1263.311768
vertex 1876.988403 -674.273071 -703.030212
vertex 1097.313721 -1170.109741 -431.885010
endloop
endfacet
facet normal -0.556636 0.827321 0.075475
outer loop
vertex -623.789185 1132.639893 -661.700256
vertex -1870.360229 266.160767 -357.368713
vertex -801.178162 934.373657 203.340042
endloop
endfacet
facet normal -0.880511 -0.472732 0.035014
outer loop
vertex -1560.778442 -710.247375 135.111008
vertex -1720.345703 -488.052551 -877.690918
vertex -1406.256226 -1029.922607 -295.072052
endloop
endfacet
facet normal 0.335601 -0.755391 -0.562811
outer loop
vertex 641.718018 -432.074249 154.819366
vertex 231.496674 -798.249329 401.678070
vertex 147.525070 -15.495440 -698.987671
endloop
endfacet
facet normal 0.578124 -0.770474 -0.268593
outer loop
vertex -38.451866 -1195.177979 959.249939
vertex -568.279907 -1329.326660 203.651627
vertex 231.496674 -798.249329 401.678070
endloop
endfacet
facet normal 0.452371 0.152320 0.878726
outer loop
vertex 620.712769 954.052124 1469.235596
vertex 247.291580 573.483398 1727.442505
vertex 696.608459 -400.030457 1664.883301
endloop
endfacet
facet normal -0.519062 0.280682 -0.807336
outer loop
vertex 147.525070 -15.495440 -698.987671
vertex 408.109283 873.090149 -557.595947
vertex 1249.826294 222.728592 -1324.869995
endloop
endfacet
facet normal 0.496370 -0.856822 -0.139544
outer loop
vertex 1876.988403 -674.273071 -703.030212
vertex 1419.979980 -1112.155273 360.016998
vertex 1097.313721 -1170.109741 -431.885010
endloop
endfacet
facet normal 0.518583 -0.211704 -0.828404
outer loop
vertex 1249.826294 222.728592 -1324.869995
vertex 1876.988403 -674.273071 -703.030212
vertex 1014.735291 -594.020142 -1263.311768
endloop
endfacet
facet normal -0.781761 0.209384 0.587374
outer loop
vertex -801.178162 934.373657 203.340042
vertex -136.168518 17.466457 1415.285400
vertex 247.291580 573.483398 1727.442505
endloop
endfacet
facet normal 0.103122 -0.711845 0.694725
outer loop
vertex -651.732666 -1034.849976 1214.561279
vertex -38.451866 -1195.177979 959.249939
vertex 696.608459 -400.030457 1664.883301
endloop
endfacet
facet normal 0.843430 0.431332 0.320280
outer loop
vertex 2123.221191 630.021118 -420.871338
vertex 1997.802002 -67.160614 848.325439
vertex 2291.071777 -333.355133 434.518463
endloop
endfacet
facet normal 0.299857 0.949185 -0.095573
outer loop
vertex -623.789185 1132.639893 -661.700256
vertex 620.712769 954.052124 1469.235596
vertex 1083.606812 723.415161 630.974060
endloop
endfacet
facet normal -0.505275 0.080681 -0.859179
outer loop
vertex 1249.826294 222.728592 -1324.869995
vertex 1014.735291 -594.020142 -1263.311768
vertex 147.525070 -15.495440 -698.987671
endloop
endfacet
facet normal -0.178076 0.966470 0.184997
outer loop
vertex -623.789185 1132.639893 -661.700256
vertex -801.178162 934.373657 203.340042
vertex 620.712769 954.052124 1469.235596
endloop
endfacet
facet normal -0.743638 0.097811 0.661389
outer loop
vertex -1238.783813 -355.774841 444.726105
vertex -1870.360229 266.160767 -357.368713
vertex -1560.778442 -710.247375 135.111008
endloop
endfacet
facet normal -0.605196 -0.507509 0.613328
outer loop
vertex 1419.979980 -1112.155273 360.016998
vertex 996.104797 -318.577850 598.421936
vertex 641.718018 -432.074249 154.819366
endloop
endfacet
facet normal -0.141922 -0.353566 0.924581
outer loop
vertex 1997.802002 -67.160614 848.325439
vertex 996.104797 -318.577850 598.421936
vertex 1419.979980 -1112.155273 360.016998
endloop
endfacet
facet normal -0.594076 0.338072 0.729918
outer loop
vertex -801.178162 934.373657 203.340042
vertex -1870.360229 266.160767 -357.368713
vertex -1238.783813 -355.774841 444.726105
endloop
endfacet
endsolid Exported from Blender-3.6.1
