solid model
facet normal 0.9447841405210551 0.11378241520894945 0.3073052062837684
  outer loop
    vertex 0.0 0.0 0.0
    vertex 0.04180228978332068 0.2297228739775406 -0.21357452627745818
    vertex -0.08535003862560978 -0.03243149815016927 0.27440959459970116
  endloop
endfacet
facet normal 0.8700402777274469 0.3205012895933271 0.37457821413018855
  outer loop
    vertex 0.04180228978332068 0.2297228739775406 -0.21357452627745818
    vertex 0.011914374668576847 0.5 -0.37541116061407515
    vertex -0.07794325527577248 0.23383176385756807 0.061045136303184554
  endloop
endfacet
facet normal 0.7779108337044273 0.37962011207197116 0.5007427536327879
  outer loop
    vertex -0.08535003862560978 -0.03243149815016927 0.27440959459970116
    vertex -0.07794325527577248 0.23383176385756807 0.061045136303184554
    vertex -0.2576112120993188 0.022995154994499386 0.5
  endloop
endfacet
facet normal 0.8814780202787238 0.28012047293856185 0.3801697257885985
  outer loop
    vertex 0.04180228978332068 0.2297228739775406 -0.21357452627745818
    vertex -0.07794325527577248 0.23383176385756807 0.061045136303184554
    vertex -0.08535003862560978 -0.03243149815016927 0.27440959459970116
  endloop
endfacet
facet normal 0.9786804855970408 -0.1587152493473747 0.13036094789522215
  outer loop
    vertex 0.011914374668576847 0.5 -0.37541116061407515
    vertex 0.022509084305224233 0.7356411279110814 -0.16805608045098516
    vertex -0.05638119655707168 0.2814600698498851 -0.12875812667821104
  endloop
endfacet
facet normal 0.8702344472825777 -0.20938383406275887 0.44592647016740944
  outer loop
    vertex 0.022509084305224233 0.7356411279110814 -0.16805608045098516
    vertex 0.0 1.0 0.0
    vertex -0.12358311260622737 0.5623872400162283 0.035694773100545515
  endloop
endfacet
facet normal 0.868332613272493 -0.07892700983703689 0.48966212825329625
  outer loop
    vertex -0.05638119655707168 0.2814600698498851 -0.12875812667821104
    vertex -0.12358311260622737 0.5623872400162283 0.035694773100545515
    vertex -0.21319988163637113 0.12394362279082305 0.12394362279082305
  endloop
endfacet
facet normal 0.8475272581894424 -0.10214899543884512 0.5208292708332752
  outer loop
    vertex 0.022509084305224233 0.7356411279110814 -0.16805608045098516
    vertex -0.12358311260622737 0.5623872400162283 0.035694773100545515
    vertex -0.05638119655707168 0.2814600698498851 -0.12875812667821104
  endloop
endfacet
facet normal 0.3731862536509565 -0.9116257919532117 -0.17225108281704204
  outer loop
    vertex -0.2576112120993188 0.022995154994499386 0.5
    vertex -0.2288667766635372 0.0703044948746704 0.31189444076895106
    vertex -0.0923894341744653 0.046633398481585424 0.7328534789452158
  endloop
endfacet
facet normal 0.32656450058026204 -0.9157212794037756 -0.23411570944273719
  outer loop
    vertex -0.2288667766635372 0.0703044948746704 0.31189444076895106
    vertex -0.21319988163637113 0.12394362279082305 0.12394362279082305
    vertex -0.02241292285302751 0.0844206519443112 0.5446598300721076
  endloop
endfacet
facet normal 0.03589896448399238 -0.9822919573808518 -0.1838852218474111
  outer loop
    vertex -0.0923894341744653 0.046633398481585424 0.7328534789452158
    vertex -0.02241292285302751 0.0844206519443112 0.5446598300721076
    vertex 0.0 0.0 1.0
  endloop
endfacet
facet normal 0.20187534332646162 -0.972018844657532 -0.12010708300287727
  outer loop
    vertex -0.2288667766635372 0.0703044948746704 0.31189444076895106
    vertex -0.02241292285302751 0.0844206519443112 0.5446598300721076
    vertex -0.0923894341744653 0.046633398481585424 0.7328534789452158
  endloop
endfacet
facet normal -0.9674081183161433 0.2487302901885207 -0.047484474923422636
  outer loop
    vertex 0.011914374668576847 0.5 -0.37541116061407515
    vertex -0.05638119655707168 0.2814600698498851 -0.12875812667821104
    vertex -0.07794325527577248 0.23383176385756807 0.061045136303184554
  endloop
endfacet
facet normal -0.5224108710577913 0.8304583419761853 0.1934575510100476
  outer loop
    vertex -0.05638119655707168 0.2814600698498851 -0.12875812667821104
    vertex -0.21319988163637113 0.12394362279082305 0.12394362279082305
    vertex -0.2288667766635372 0.0703044948746704 0.31189444076895106
  endloop
endfacet
facet normal -0.6632371230840413 0.743493052127746 0.08564227928408503
  outer loop
    vertex -0.07794325527577248 0.23383176385756807 0.061045136303184554
    vertex -0.2288667766635372 0.0703044948746704 0.31189444076895106
    vertex -0.2576112120993188 0.022995154994499386 0.5
  endloop
endfacet
facet normal -0.6301435041594303 0.7670111660925804 0.1208843879703837
  outer loop
    vertex -0.05638119655707168 0.2814600698498851 -0.12875812667821104
    vertex -0.2288667766635372 0.0703044948746704 0.31189444076895106
    vertex -0.07794325527577248 0.23383176385756807 0.061045136303184554
  endloop
endfacet
facet normal 0.570171275606812 -0.7361541913913331 -0.364666591518709
  outer loop
    vertex 0.0 1.0 1.0
    vertex -0.20131497716070018 0.7549201570456913 1.1799795698765132
    vertex -0.23083366874226444 0.9516413068496647 0.7367039511157836
  endloop
endfacet
facet normal 0.5059516689373513 -0.7148230739323322 -0.4827430803993366
  outer loop
    vertex -0.20131497716070018 0.7549201570456913 1.1799795698765132
    vertex -0.38294437320471025 0.5 1.3670917582800075
    vertex -0.4505218736279967 0.7386506797206664 0.9428827537172876
  endloop
endfacet
facet normal 0.3946775855062392 -0.8159735505023975 -0.4223940913169554
  outer loop
    vertex -0.23083366874226444 0.9516413068496647 0.7367039511157836
    vertex -0.4505218736279967 0.7386506797206664 0.9428827537172876
    vertex -0.4933201734970713 0.9472107838508631 0.5
  endloop
endfacet
facet normal 0.42499981217842875 -0.8165458834454112 -0.390676310872125
  outer loop
    vertex -0.20131497716070018 0.7549201570456913 1.1799795698765132
    vertex -0.4505218736279967 0.7386506797206664 0.9428827537172876
    vertex -0.23083366874226444 0.9516413068496647 0.7367039511157836
  endloop
endfacet
facet normal 0.7795667677859073 0.6256975281417689 -0.02789727300496482
  outer loop
    vertex -0.38294437320471025 0.5 1.3670917582800075
    vertex -0.18971583303421927 0.2510856149286399 1.1838994099644597
    vertex -0.29373837479921955 0.36051502808047614 0.7314249568786315
  endloop
endfacet
facet normal 0.8186296268504968 0.5705756048387532 0.06549055814014106
  outer loop
    vertex -0.18971583303421927 0.2510856149286399 1.1838994099644597
    vertex 0.0 0.0 1.0
    vertex -0.02241292285302751 0.0844206519443112 0.5446598300721076
  endloop
endfacet
facet normal 0.6219313945659087 0.7540538561027623 -0.21119688101356582
  outer loop
    vertex -0.29373837479921955 0.36051502808047614 0.7314249568786315
    vertex -0.02241292285302751 0.0844206519443112 0.5446598300721076
    vertex -0.21319988163637113 0.12394362279082305 0.12394362279082305
  endloop
endfacet
facet normal 0.7148444627496855 0.6992671847618296 0.004774766107193885
  outer loop
    vertex -0.18971583303421927 0.2510856149286399 1.1838994099644597
    vertex -0.02241292285302751 0.0844206519443112 0.5446598300721076
    vertex -0.29373837479921955 0.36051502808047614 0.7314249568786315
  endloop
endfacet
facet normal 0.5820301299448912 -0.154207953869011 0.7984114445571695
  outer loop
    vertex -0.4933201734970713 0.9472107838508631 0.5
    vertex -0.27902572859309815 0.5788075042561354 0.2726278339364846
    vertex -0.2032530610534058 0.9642844339287846 0.2918430307610226
  endloop
endfacet
facet normal 0.8327493642486157 -0.05941814272551952 0.5504525235282115
  outer loop
    vertex -0.27902572859309815 0.5788075042561354 0.2726278339364846
    vertex -0.21319988163637113 0.12394362279082305 0.12394362279082305
    vertex -0.12358311260622737 0.5623872400162283 0.035694773100545515
  endloop
endfacet
facet normal 0.8167968784187987 -0.18612387822122037 0.5460776147776053
  outer loop
    vertex -0.2032530610534058 0.9642844339287846 0.2918430307610226
    vertex -0.12358311260622737 0.5623872400162283 0.035694773100545515
    vertex 0.0 1.0 0.0
  endloop
endfacet
facet normal 0.8152685289982676 -0.18756610733142387 0.5478651120536309
  outer loop
    vertex -0.27902572859309815 0.5788075042561354 0.2726278339364846
    vertex -0.12358311260622737 0.5623872400162283 0.035694773100545515
    vertex -0.2032530610534058 0.9642844339287846 0.2918430307610226
  endloop
endfacet
facet normal 0.9325134529670785 0.357304623450209 0.05246013816718918
  outer loop
    vertex -0.38294437320471025 0.5 1.3670917582800075
    vertex -0.29373837479921955 0.36051502808047614 0.7314249568786315
    vertex -0.4505218736279967 0.7386506797206664 0.9428827537172876
  endloop
endfacet
facet normal 0.9896030489660075 0.11495864631899805 0.08643098468538589
  outer loop
    vertex -0.29373837479921955 0.36051502808047614 0.7314249568786315
    vertex -0.21319988163637113 0.12394362279082305 0.12394362279082305
    vertex -0.27902572859309815 0.5788075042561354 0.2726278339364846
  endloop
endfacet
facet normal 0.8888330578910827 0.44166597476605685 0.12209407001953852
  outer loop
    vertex -0.4505218736279967 0.7386506797206664 0.9428827537172876
    vertex -0.27902572859309815 0.5788075042561354 0.2726278339364846
    vertex -0.4933201734970713 0.9472107838508631 0.5
  endloop
endfacet
facet normal 0.940310947007571 0.29462188727235467 0.17033281092555558
  outer loop
    vertex -0.29373837479921955 0.36051502808047614 0.7314249568786315
    vertex -0.27902572859309815 0.5788075042561354 0.2726278339364846
    vertex -0.4505218736279967 0.7386506797206664 0.9428827537172876
  endloop
endfacet
facet normal 0.778455297399434 0.447115213936112 -0.44056252157624975
  outer loop
    vertex 0.0 0.0 0.0
    vertex -3.230333023765408e-05 -0.24092072162324596 -0.24456112676874514
    vertex -0.09999903568397846 -0.06368927589722692 -0.24133061273767775
  endloop
endfacet
facet normal 0.8735429813191831 0.09696515494240578 -0.4769910046478745
  outer loop
    vertex -3.230333023765408e-05 -0.24092072162324596 -0.24456112676874514
    vertex -0.08514302145617277 -0.5 -0.4530965747224131
    vertex -0.13014646570333874 -0.30898889805419383 -0.4966844444281629
  endloop
endfacet
facet normal 0.9636714480932729 0.1264616133315145 -0.2352547565585126
  outer loop
    vertex -0.09999903568397846 -0.06368927589722692 -0.24133061273767775
    vertex -0.13014646570333874 -0.30898889805419383 -0.4966844444281629
    vertex -0.157094256244835 -0.10980738003024151 -0.5
  endloop
endfacet
facet normal 0.7488513034018105 0.43155479519784584 -0.5029733433643924
  outer loop
    vertex -3.230333023765408e-05 -0.24092072162324596 -0.24456112676874514
    vertex -0.13014646570333874 -0.30898889805419383 -0.4966844444281629
    vertex -0.09999903568397846 -0.06368927589722692 -0.24133061273767775
  endloop
endfacet
facet normal -0.9582713258881477 -0.10037194501504697 0.26765937053364663
  outer loop
    vertex -0.08514302145617277 -0.5 -0.4530965747224131
    vertex 0.005118510991086067 -0.7337793787156921 -0.21761015292010158
    vertex -0.05113897108977371 -0.24346649090469982 -0.2351558630510684
  endloop
endfacet
facet normal -0.9809500073582532 0.1339012934252572 0.1407392151565651
  outer loop
    vertex 0.005118510991086067 -0.7337793787156921 -0.21761015292010158
    vertex 0.0 -1.0 0.0
    vertex 0.061611447760230656 -0.5111979069559737 -0.03562249759770155
  endloop
endfacet
facet normal -0.8659526571022271 0.008002495316000627 0.5000619518882736
  outer loop
    vertex -0.05113897108977371 -0.24346649090469982 -0.2351558630510684
    vertex 0.061611447760230656 -0.5111979069559737 -0.03562249759770155
    vertex 0.0764702032840053 -0.017787774284327873 -0.017787774284327873
  endloop
endfacet
facet normal -0.9142610351039621 -0.09077168730722801 0.3948256076725907
  outer loop
    vertex 0.005118510991086067 -0.7337793787156921 -0.21761015292010158
    vertex 0.061611447760230656 -0.5111979069559737 -0.03562249759770155
    vertex -0.05113897108977371 -0.24346649090469982 -0.2351558630510684
  endloop
endfacet
facet normal -0.5878007338269755 0.7987548757746255 0.12837813575033677
  outer loop
    vertex -0.157094256244835 -0.10980738003024151 -0.5
    vertex -0.07868847346941664 -0.09479844082431005 -0.23439002614090218
    vertex -0.09706110336449049 -0.02554970733382145 -0.7493703104782043
  endloop
endfacet
facet normal -0.639386390791925 0.7441559249071255 0.1934347504862981
  outer loop
    vertex -0.07868847346941664 -0.09479844082431005 -0.23439002614090218
    vertex 0.0764702032840053 -0.017787774284327873 -0.017787774284327873
    vertex -0.04549146764229642 0.0033269315585143597 -0.5021540311673144
  endloop
endfacet
facet normal -0.34437506202351964 0.9380734314596509 -0.03773663797707202
  outer loop
    vertex -0.09706110336449049 -0.02554970733382145 -0.7493703104782043
    vertex -0.04549146764229642 0.0033269315585143597 -0.5021540311673144
    vertex 0.0 0.0 -1.0
  endloop
endfacet
facet normal -0.8192205622103801 0.563777306699029 0.10503722627191468
  outer loop
    vertex -0.07868847346941664 -0.09479844082431005 -0.23439002614090218
    vertex -0.04549146764229642 0.0033269315585143597 -0.5021540311673144
    vertex -0.09706110336449049 -0.02554970733382145 -0.7493703104782043
  endloop
endfacet
facet normal -0.9359522176002183 -0.14755798699944955 0.31971876210492256
  outer loop
    vertex -0.08514302145617277 -0.5 -0.4530965747224131
    vertex -0.05113897108977371 -0.24346649090469982 -0.2351558630510684
    vertex -0.13014646570333874 -0.30898889805419383 -0.4966844444281629
  endloop
endfacet
facet normal -0.7785086647090642 -0.1474072383037175 0.6100781630812407
  outer loop
    vertex -0.05113897108977371 -0.24346649090469982 -0.2351558630510684
    vertex 0.0764702032840053 -0.017787774284327873 -0.017787774284327873
    vertex -0.07868847346941664 -0.09479844082431005 -0.23439002614090218
  endloop
endfacet
facet normal -0.9497981038530221 -0.12371726045269453 0.28736318724444165
  outer loop
    vertex -0.13014646570333874 -0.30898889805419383 -0.4966844444281629
    vertex -0.07868847346941664 -0.09479844082431005 -0.23439002614090218
    vertex -0.157094256244835 -0.10980738003024151 -0.5
  endloop
endfacet
facet normal -0.9297628149026425 -0.1739646815649233 0.3244647863672257
  outer loop
    vertex -0.05113897108977371 -0.24346649090469982 -0.2351558630510684
    vertex -0.07868847346941664 -0.09479844082431005 -0.23439002614090218
    vertex -0.13014646570333874 -0.30898889805419383 -0.4966844444281629
  endloop
endfacet
facet normal 0.8937506139359491 -0.010057093500856488 -0.4484514410272634
  outer loop
    vertex 0.0 -1.0 -1.0
    vertex 0.005007392818526615 -0.7495840254673928 -0.9956363089584205
    vertex 0.12502965191196747 -0.9527142887258971 -0.7518800004698476
  endloop
endfacet
facet normal 0.942915744155947 -0.06401625433852479 -0.3268207744365432
  outer loop
    vertex 0.005007392818526615 -0.7495840254673928 -0.9956363089584205
    vertex 0.02480955341472894 -0.5 -0.9873922352885156
    vertex 0.09864714011946124 -0.673358607345508 -0.7404055134280686
  endloop
endfacet
facet normal 0.9488163426633658 0.10188579013031615 -0.2989428601997971
  outer loop
    vertex 0.12502965191196747 -0.9527142887258971 -0.7518800004698476
    vertex 0.09864714011946124 -0.673358607345508 -0.7404055134280686
    vertex 0.19293553694857046 -0.8460505992365793 -0.5
  endloop
endfacet
facet normal 0.9235978081197737 0.10239954548695761 -0.3694339209120006
  outer loop
    vertex 0.005007392818526615 -0.7495840254673928 -0.9956363089584205
    vertex 0.09864714011946124 -0.673358607345508 -0.7404055134280686
    vertex 0.12502965191196747 -0.9527142887258971 -0.7518800004698476
  endloop
endfacet
facet normal 0.9570536298160328 -0.28940103004511364 -0.017187014423200985
  outer loop
    vertex 0.02480955341472894 -0.5 -0.9873922352885156
    vertex 0.101526677942039 -0.24568010015364067 -0.9977511303363661
    vertex 0.10439689225133783 -0.2656236681771298 -0.502107271427545
  endloop
endfacet
facet normal 0.9208492935880893 0.381285535674927 0.0815960708821252
  outer loop
    vertex 0.101526677942039 -0.24568010015364067 -0.9977511303363661
    vertex 0.0 0.0 -1.0
    vertex -0.04549146764229642 0.0033269315585143597 -0.5021540311673144
  endloop
endfacet
facet normal 0.8567668054401771 0.4774492308566311 -0.19491760579856537
  outer loop
    vertex 0.10439689225133783 -0.2656236681771298 -0.502107271427545
    vertex -0.04549146764229642 0.0033269315585143597 -0.5021540311673144
    vertex 0.0764702032840053 -0.017787774284327873 -0.017787774284327873
  endloop
endfacet
facet normal 0.8734133173397707 0.4867628817988818 0.014528385883682469
  outer loop
    vertex 0.101526677942039 -0.24568010015364067 -0.9977511303363661
    vertex -0.04549146764229642 0.0033269315585143597 -0.5021540311673144
    vertex 0.10439689225133783 -0.2656236681771298 -0.502107271427545
  endloop
endfacet
facet normal 0.9829073544681961 1.0728998541982918e-05 0.18410087565576724
  outer loop
    vertex 0.19293553694857046 -0.8460505992365793 -0.5
    vertex 0.13719031932977668 -0.4644595825419435 -0.20240070782213904
    vertex 0.14463200774742838 -0.9577381010055865 -0.24210284321302136
  endloop
endfacet
facet normal 0.9144126242283671 -0.042088922576186086 0.40258921402363307
  outer loop
    vertex 0.13719031932977668 -0.4644595825419435 -0.20240070782213904
    vertex 0.0764702032840053 -0.017787774284327873 -0.017787774284327873
    vertex 0.061611447760230656 -0.5111979069559737 -0.03562249759770155
  endloop
endfacet
facet normal 0.8617320386208588 -0.07201686826600612 0.5022265069662251
  outer loop
    vertex 0.14463200774742838 -0.9577381010055865 -0.24210284321302136
    vertex 0.061611447760230656 -0.5111979069559737 -0.03562249759770155
    vertex 0.0 -1.0 0.0
  endloop
endfacet
facet normal 0.9126723393166871 -0.019089448079061298 0.40824599694086766
  outer loop
    vertex 0.13719031932977668 -0.4644595825419435 -0.20240070782213904
    vertex 0.061611447760230656 -0.5111979069559737 -0.03562249759770155
    vertex 0.14463200774742838 -0.9577381010055865 -0.24210284321302136
  endloop
endfacet
facet normal 0.9708564523895098 0.11057790573994192 -0.21262708109698628
  outer loop
    vertex 0.02480955341472894 -0.5 -0.9873922352885156
    vertex 0.10439689225133783 -0.2656236681771298 -0.502107271427545
    vertex 0.09864714011946124 -0.673358607345508 -0.7404055134280686
  endloop
endfacet
facet normal 0.9899330167144739 0.14074581023627666 -0.014941195384409965
  outer loop
    vertex 0.10439689225133783 -0.2656236681771298 -0.502107271427545
    vertex 0.0764702032840053 -0.017787774284327873 -0.017787774284327873
    vertex 0.13719031932977668 -0.4644595825419435 -0.20240070782213904
  endloop
endfacet
facet normal 0.9458348459700868 0.27398835197010196 -0.17414599373356163
  outer loop
    vertex 0.09864714011946124 -0.673358607345508 -0.7404055134280686
    vertex 0.13719031932977668 -0.4644595825419435 -0.20240070782213904
    vertex 0.19293553694857046 -0.8460505992365793 -0.5
  endloop
endfacet
facet normal 0.9957198677802963 0.0357659823227101 -0.08522170742293811
  outer loop
    vertex 0.10439689225133783 -0.2656236681771298 -0.502107271427545
    vertex 0.13719031932977668 -0.4644595825419435 -0.20240070782213904
    vertex 0.09864714011946124 -0.673358607345508 -0.7404055134280686
  endloop
endfacet
facet normal 0.9298171851896523 -0.26223604242763116 0.2582097213078654
  outer loop
    vertex 0.0 0.0 0.0
    vertex -0.08535003862560978 -0.03243149815016927 0.27440959459970116
    vertex -3.230333023765408e-05 -0.24092072162324596 -0.24456112676874514
  endloop
endfacet
facet normal 0.4313693474879052 -0.7428747471664662 0.5119156142082577
  outer loop
    vertex -0.08535003862560978 -0.03243149815016927 0.27440959459970116
    vertex -0.2576112120993188 0.022995154994499386 0.5
    vertex -0.17111610875564676 -0.25057245085181645 0.030122161465423892
  endloop
endfacet
facet normal 0.7062794215318702 -0.5699801075178225 0.4198714752809226
  outer loop
    vertex -3.230333023765408e-05 -0.24092072162324596 -0.24456112676874514
    vertex -0.17111610875564676 -0.25057245085181645 0.030122161465423892
    vertex -0.08514302145617277 -0.5 -0.4530965747224131
  endloop
endfacet
facet normal 0.6395901215176748 -0.671166899272336 0.37477922805054714
  outer loop
    vertex -0.08535003862560978 -0.03243149815016927 0.27440959459970116
    vertex -0.17111610875564676 -0.25057245085181645 0.030122161465423892
    vertex -3.230333023765408e-05 -0.24092072162324596 -0.24456112676874514
  endloop
endfacet
facet normal 0.0075344812285519855 0.9943072957852757 -0.10628373883520069
  outer loop
    vertex -0.2576112120993188 0.022995154994499386 0.5
    vertex -0.0923894341744653 0.046633398481585424 0.7328534789452158
    vertex -0.031594058802419424 1.5459794540152207e-05 0.3010424094490769
  endloop
endfacet
facet normal 0.3897999910333884 0.9205357594427748 0.02588208989792326
  outer loop
    vertex -0.0923894341744653 0.046633398481585424 0.7328534789452158
    vertex 0.0 0.0 1.0
    vertex 0.034899434886164926 -0.0011392413642841923 0.5149121635558169
  endloop
endfacet
facet normal 0.1630254294204959 0.9855783971119146 -0.045364441014651036
  outer loop
    vertex -0.031594058802419424 1.5459794540152207e-05 0.3010424094490769
    vertex 0.034899434886164926 -0.0011392413642841923 0.5149121635558169
    vertex 0.10725134870551303 -0.035187902400879156 0.035187902400879156
  endloop
endfacet
facet normal 0.2428102940949531 0.9675255209193994 -0.07026754194624434
  outer loop
    vertex -0.0923894341744653 0.046633398481585424 0.7328534789452158
    vertex 0.034899434886164926 -0.0011392413642841923 0.5149121635558169
    vertex -0.031594058802419424 1.5459794540152207e-05 0.3010424094490769
  endloop
endfacet
facet normal 0.9205109314653369 -0.036447131103994036 -0.389013151046473
  outer loop
    vertex -0.08514302145617277 -0.5 -0.4530965747224131
    vertex 0.03053481450515733 -0.2856359928490884 -0.19945538240636165
    vertex 0.005118510991086067 -0.7337793787156921 -0.21761015292010158
  endloop
endfacet
facet normal 0.974678967694527 -0.12460456479850773 -0.1856734024175395
  outer loop
    vertex 0.03053481450515733 -0.2856359928490884 -0.19945538240636165
    vertex 0.10725134870551303 -0.035187902400879156 0.035187902400879156
    vertex 0.036555564681381394 -0.5145354914922176 -0.014236495211112046
  endloop
endfacet
facet normal 0.9945197099789493 -0.07696265211095675 -0.07076225436936193
  outer loop
    vertex 0.005118510991086067 -0.7337793787156921 -0.21761015292010158
    vertex 0.036555564681381394 -0.5145354914922176 -0.014236495211112046
    vertex 0.0 -1.0 0.0
  endloop
endfacet
facet normal 0.993891723958943 -0.05243430651441215 -0.09710759262937547
  outer loop
    vertex 0.03053481450515733 -0.2856359928490884 -0.19945538240636165
    vertex 0.036555564681381394 -0.5145354914922176 -0.014236495211112046
    vertex 0.005118510991086067 -0.7337793787156921 -0.21761015292010158
  endloop
endfacet
facet normal -0.3768504528119102 0.7686450330565425 -0.5168834969052166
  outer loop
    vertex -0.2576112120993188 0.022995154994499386 0.5
    vertex -0.031594058802419424 1.5459794540152207e-05 0.3010424094490769
    vertex -0.17111610875564676 -0.25057245085181645 0.030122161465423892
  endloop
endfacet
facet normal -0.6684714408521275 0.6071752800393673 -0.4295161371522571
  outer loop
    vertex -0.031594058802419424 1.5459794540152207e-05 0.3010424094490769
    vertex 0.10725134870551303 -0.035187902400879156 0.035187902400879156
    vertex 0.03053481450515733 -0.2856359928490884 -0.19945538240636165
  endloop
endfacet
facet normal -0.4052427161081811 0.7809845052323093 -0.47522788599608623
  outer loop
    vertex -0.17111610875564676 -0.25057245085181645 0.030122161465423892
    vertex 0.03053481450515733 -0.2856359928490884 -0.19945538240636165
    vertex -0.08514302145617277 -0.5 -0.4530965747224131
  endloop
endfacet
facet normal -0.423060235426628 0.7633455389784796 -0.4881840076471376
  outer loop
    vertex -0.031594058802419424 1.5459794540152207e-05 0.3010424094490769
    vertex 0.03053481450515733 -0.2856359928490884 -0.19945538240636165
    vertex -0.17111610875564676 -0.25057245085181645 0.030122161465423892
  endloop
endfacet
facet normal 0.7350544789323343 0.018077530796423127 0.6777670070767821
  outer loop
    vertex 0.0 -1.0 1.0
    vertex 0.2093738522474872 -0.7444799299335384 0.7661137851999269
    vertex -0.04228276274324634 -0.747862407934032 1.0391316024144317
  endloop
endfacet
facet normal 0.6917069473956912 0.2199085478512211 0.6878820607535147
  outer loop
    vertex 0.2093738522474872 -0.7444799299335384 0.7661137851999269
    vertex 0.39776637468907045 -0.504641675061859 0.5
    vertex 0.1771718984500704 -0.5081674944006732 0.722948232454877
  endloop
endfacet
facet normal 0.8475326525883993 -0.08486633091371218 0.5239142188123126
  outer loop
    vertex -0.04228276274324634 -0.747862407934032 1.0391316024144317
    vertex 0.1771718984500704 -0.5081674944006732 0.722948232454877
    vertex 0.012895973833535935 -0.5 0.990019349070883
  endloop
endfacet
facet normal 0.7161415984969803 0.21866011832007445 0.6628189523229108
  outer loop
    vertex 0.2093738522474872 -0.7444799299335384 0.7661137851999269
    vertex 0.1771718984500704 -0.5081674944006732 0.722948232454877
    vertex -0.04228276274324634 -0.747862407934032 1.0391316024144317
  endloop
endfacet
facet normal 0.8060455879299414 -0.16629564228723884 -0.5680108005442763
  outer loop
    vertex 0.39776637468907045 -0.504641675061859 0.5
    vertex 0.1979213228580791 -0.8069865845885622 0.30492346048736174
    vertex 0.2297805724460338 -0.3381573374157929 0.21287546920548983
  endloop
endfacet
facet normal 0.8583702949874789 -0.07949859537378995 -0.5068337104186176
  outer loop
    vertex 0.1979213228580791 -0.8069865845885622 0.30492346048736174
    vertex 0.0 -1.0 0.0
    vertex 0.036555564681381394 -0.5145354914922176 -0.014236495211112046
  endloop
endfacet
facet normal 0.7797365049137575 -0.05065325954708738 -0.6240554704528544
  outer loop
    vertex 0.2297805724460338 -0.3381573374157929 0.21287546920548983
    vertex 0.036555564681381394 -0.5145354914922176 -0.014236495211112046
    vertex 0.10725134870551303 -0.035187902400879156 0.035187902400879156
  endloop
endfacet
facet normal 0.8108282770597781 -0.16533196008751586 -0.5614471017770878
  outer loop
    vertex 0.1979213228580791 -0.8069865845885622 0.30492346048736174
    vertex 0.036555564681381394 -0.5145354914922176 -0.014236495211112046
    vertex 0.2297805724460338 -0.3381573374157929 0.21287546920548983
  endloop
endfacet
facet normal 0.9050846813385637 0.3345228212989412 0.2625189548136804
  outer loop
    vertex 0.012895973833535935 -0.5 0.990019349070883
    vertex 0.06261079598121772 -0.2621353433527453 0.5155115937025455
    vertex -0.08262142072858869 -0.25247509073611923 1.0039177726472763
  endloop
endfacet
facet normal 0.9844375778432375 0.10484694325039903 0.1410311094091919
  outer loop
    vertex 0.06261079598121772 -0.2621353433527453 0.5155115937025455
    vertex 0.10725134870551303 -0.035187902400879156 0.035187902400879156
    vertex 0.034899434886164926 -0.0011392413642841923 0.5149121635558169
  endloop
endfacet
facet normal 0.9484578193794061 -0.3093087389674403 0.06896280777661006
  outer loop
    vertex -0.08262142072858869 -0.25247509073611923 1.0039177726472763
    vertex 0.034899434886164926 -0.0011392413642841923 0.5149121635558169
    vertex 0.0 0.0 1.0
  endloop
endfacet
facet normal 0.954075179404355 0.10194624835602438 0.28168690862494766
  outer loop
    vertex 0.06261079598121772 -0.2621353433527453 0.5155115937025455
    vertex 0.034899434886164926 -0.0011392413642841923 0.5149121635558169
    vertex -0.08262142072858869 -0.25247509073611923 1.0039177726472763
  endloop
endfacet
facet normal 0.3184447651329087 0.8889650673141628 0.3291413687985339
  outer loop
    vertex 0.39776637468907045 -0.504641675061859 0.5
    vertex 0.2297805724460338 -0.3381573374157929 0.21287546920548983
    vertex 0.1771718984500704 -0.5081674944006732 0.722948232454877
  endloop
endfacet
facet normal 0.8013038552606931 0.508715571819116 0.3148342397724555
  outer loop
    vertex 0.2297805724460338 -0.3381573374157929 0.21287546920548983
    vertex 0.10725134870551303 -0.035187902400879156 0.035187902400879156
    vertex 0.06261079598121772 -0.2621353433527453 0.5155115937025455
  endloop
endfacet
facet normal 0.6646372573018052 0.6377222312143036 0.38931693004721024
  outer loop
    vertex 0.1771718984500704 -0.5081674944006732 0.722948232454877
    vertex 0.06261079598121772 -0.2621353433527453 0.5155115937025455
    vertex 0.012895973833535935 -0.5 0.990019349070883
  endloop
endfacet
facet normal 0.7625324912483643 0.5860676981386262 0.27398695769882053
  outer loop
    vertex 0.2297805724460338 -0.3381573374157929 0.21287546920548983
    vertex 0.06261079598121772 -0.2621353433527453 0.5155115937025455
    vertex 0.1771718984500704 -0.5081674944006732 0.722948232454877
  endloop
endfacet
facet normal 0.8790977562973634 -0.40039062899222827 -0.2586010036487662
  outer loop
    vertex 0.0 0.0 0.0
    vertex -0.09999903568397846 -0.06368927589722692 -0.24133061273767775
    vertex 0.04180228978332068 0.2297228739775406 -0.21357452627745818
  endloop
endfacet
facet normal 0.9584106191660715 -0.22865551406577084 -0.1707798025441696
  outer loop
    vertex -0.09999903568397846 -0.06368927589722692 -0.24133061273767775
    vertex -0.157094256244835 -0.10980738003024151 -0.5
    vertex -0.07298970207416063 0.19483686035091555 -0.4358934002570876
  endloop
endfacet
facet normal 0.8870228839441098 -0.16102520734596698 -0.4327369708710625
  outer loop
    vertex 0.04180228978332068 0.2297228739775406 -0.21357452627745818
    vertex -0.07298970207416063 0.19483686035091555 -0.4358934002570876
    vertex 0.011914374668576847 0.5 -0.37541116061407515
  endloop
endfacet
facet normal 0.8468488347789714 -0.37344791713182196 -0.3786604075202507
  outer loop
    vertex -0.09999903568397846 -0.06368927589722692 -0.24133061273767775
    vertex -0.07298970207416063 0.19483686035091555 -0.4358934002570876
    vertex 0.04180228978332068 0.2297228739775406 -0.21357452627745818
  endloop
endfacet
facet normal 0.5535149848992872 -0.8203106326387202 -0.14391534828434518
  outer loop
    vertex -0.157094256244835 -0.10980738003024151 -0.5
    vertex -0.09706110336449049 -0.02554970733382145 -0.7493703104782043
    vertex 0.11403109422617205 0.04280140759966057 -0.3270835359707959
  endloop
endfacet
facet normal 0.23986903846778426 -0.9707862782577915 -0.00607011786758597
  outer loop
    vertex -0.09706110336449049 -0.02554970733382145 -0.7493703104782043
    vertex 0.0 0.0 -1.0
    vertex 0.228785134232847 0.053901838118433035 -0.5796942659825106
  endloop
endfacet
facet normal 0.26578117136296503 -0.96083073613498 0.07851538350694559
  outer loop
    vertex 0.11403109422617205 0.04280140759966057 -0.3270835359707959
    vertex 0.228785134232847 0.053901838118433035 -0.5796942659825106
    vertex 0.39998559492505037 0.13740111854038534 -0.13740111854038534
  endloop
endfacet
facet normal 0.21054923099884962 -0.976158953516526 0.05275148145136521
  outer loop
    vertex -0.09706110336449049 -0.02554970733382145 -0.7493703104782043
    vertex 0.228785134232847 0.053901838118433035 -0.5796942659825106
    vertex 0.11403109422617205 0.04280140759966057 -0.3270835359707959
  endloop
endfacet
facet normal -0.6522417207674982 -0.4840119176722639 0.5833636955120456
  outer loop
    vertex 0.011914374668576847 0.5 -0.37541116061407515
    vertex 0.22086543281034512 0.3021442589669505 -0.3059483856926168
    vertex 0.022509084305224233 0.7356411279110814 -0.16805608045098516
  endloop
endfacet
facet normal -0.7923891438610483 -0.49050946229680464 0.36265674140770404
  outer loop
    vertex 0.22086543281034512 0.3021442589669505 -0.3059483856926168
    vertex 0.39998559492505037 0.13740111854038534 -0.13740111854038534
    vertex 0.17313115724161432 0.5559647644730381 -0.06694210777672835
  endloop
endfacet
facet normal -0.783307975900898 -0.37962626012776746 0.49225249365690654
  outer loop
    vertex 0.022509084305224233 0.7356411279110814 -0.16805608045098516
    vertex 0.17313115724161432 0.5559647644730381 -0.06694210777672835
    vertex 0.0 1.0 0.0
  endloop
endfacet
facet normal -0.8055840120288107 -0.479370851907026 0.3481924552679122
  outer loop
    vertex 0.22086543281034512 0.3021442589669505 -0.3059483856926168
    vertex 0.17313115724161432 0.5559647644730381 -0.06694210777672835
    vertex 0.022509084305224233 0.7356411279110814 -0.16805608045098516
  endloop
endfacet
facet normal -0.5234688453980818 -0.03463201461526531 0.851340702340307
  outer loop
    vertex -0.157094256244835 -0.10980738003024151 -0.5
    vertex 0.11403109422617205 0.04280140759966057 -0.3270835359707959
    vertex -0.07298970207416063 0.19483686035091555 -0.4358934002570876
  endloop
endfacet
facet normal -0.5839115158150636 0.1759515056023724 0.792520289566654
  outer loop
    vertex 0.11403109422617205 0.04280140759966057 -0.3270835359707959
    vertex 0.39998559492505037 0.13740111854038534 -0.13740111854038534
    vertex 0.22086543281034512 0.3021442589669505 -0.3059483856926168
  endloop
endfacet
facet normal -0.3795300237198814 -0.07713403073414805 0.9219584060020766
  outer loop
    vertex -0.07298970207416063 0.19483686035091555 -0.4358934002570876
    vertex 0.22086543281034512 0.3021442589669505 -0.3059483856926168
    vertex 0.011914374668576847 0.5 -0.37541116061407515
  endloop
endfacet
facet normal -0.43427194356370213 0.10599583353109054 0.8945237628523091
  outer loop
    vertex 0.11403109422617205 0.04280140759966057 -0.3270835359707959
    vertex 0.22086543281034512 0.3021442589669505 -0.3059483856926168
    vertex -0.07298970207416063 0.19483686035091555 -0.4358934002570876
  endloop
endfacet
facet normal 0.8365181536493913 -0.531165769760967 -0.1345373689695643
  outer loop
    vertex 0.0 1.0 -1.0
    vertex -0.059313027822714456 0.8437374382448151 -0.7518540786578496
    vertex -0.14257141066513546 0.7137471336290307 -0.7563193694768371
  endloop
endfacet
facet normal 0.9138566165536652 -0.314975112919773 0.25623575594023484
  outer loop
    vertex -0.059313027822714456 0.8437374382448151 -0.7518540786578496
    vertex -0.1703499408374413 0.7264653240569082 -0.5
    vertex -0.22179663788806764 0.6269346870385052 -0.4388639934024189
  endloop
endfacet
facet normal 0.9705788018420396 -0.005483937595281272 0.2407212409475362
  outer loop
    vertex -0.14257141066513546 0.7137471336290307 -0.7563193694768371
    vertex -0.22179663788806764 0.6269346870385052 -0.4388639934024189
    vertex -0.2256823466465531 0.5 -0.426088699304494
  endloop
endfacet
facet normal 0.839500398772901 -0.5398232388934321 0.061886599605606156
  outer loop
    vertex -0.059313027822714456 0.8437374382448151 -0.7518540786578496
    vertex -0.22179663788806764 0.6269346870385052 -0.4388639934024189
    vertex -0.14257141066513546 0.7137471336290307 -0.7563193694768371
  endloop
endfacet
facet normal 0.7480546993099483 0.39678286649981914 -0.5319563174664718
  outer loop
    vertex -0.1703499408374413 0.7264653240569082 -0.5
    vertex -0.06087662152033459 0.8522212337116103 -0.2522544296419383
    vertex 0.11479378140742896 0.4318782529651489 -0.31875203708148736
  endloop
endfacet
facet normal 0.8208525188842516 0.38381691270498164 -0.4229488382334155
  outer loop
    vertex -0.06087662152033459 0.8522212337116103 -0.2522544296419383
    vertex 0.0 1.0 0.0
    vertex 0.17313115724161432 0.5559647644730381 -0.06694210777672835
  endloop
endfacet
facet normal 0.7676076023366263 0.48630605204693755 -0.4174745412328003
  outer loop
    vertex 0.11479378140742896 0.4318782529651489 -0.31875203708148736
    vertex 0.17313115724161432 0.5559647644730381 -0.06694210777672835
    vertex 0.39998559492505037 0.13740111854038534 -0.13740111854038534
  endloop
endfacet
facet normal 0.8252598769698396 0.4068571203082184 -0.3916802511210248
  outer loop
    vertex -0.06087662152033459 0.8522212337116103 -0.2522544296419383
    vertex 0.17313115724161432 0.5559647644730381 -0.06694210777672835
    vertex 0.11479378140742896 0.4318782529651489 -0.31875203708148736
  endloop
endfacet
facet normal 0.5811566997806104 0.6424677190773957 -0.4994918620394109
  outer loop
    vertex -0.2256823466465531 0.5 -0.426088699304494
    vertex 0.09105638086287414 0.33696657610075326 -0.2672650474791073
    vertex -0.12837830238088171 0.21073266652822714 -0.6849438209286068
  endloop
endfacet
facet normal 0.6087530017459013 0.7026950220444071 -0.36829266739831357
  outer loop
    vertex 0.09105638086287414 0.33696657610075326 -0.2672650474791073
    vertex 0.39998559492505037 0.13740111854038534 -0.13740111854038534
    vertex 0.228785134232847 0.053901838118433035 -0.5796942659825106
  endloop
endfacet
facet normal 0.46162763422228503 0.8127214994441269 -0.3555048405628627
  outer loop
    vertex -0.12837830238088171 0.21073266652822714 -0.6849438209286068
    vertex 0.228785134232847 0.053901838118433035 -0.5796942659825106
    vertex 0.0 0.0 -1.0
  endloop
endfacet
facet normal 0.46732839353314864 0.7478359287886488 -0.47153536050920447
  outer loop
    vertex 0.09105638086287414 0.33696657610075326 -0.2672650474791073
    vertex 0.228785134232847 0.053901838118433035 -0.5796942659825106
    vertex -0.12837830238088171 0.21073266652822714 -0.6849438209286068
  endloop
endfacet
facet normal 0.000584097219811472 -0.5236108424519811 -0.851957360727146
  outer loop
    vertex -0.1703499408374413 0.7264653240569082 -0.5
    vertex 0.11479378140742896 0.4318782529651489 -0.31875203708148736
    vertex -0.22179663788806764 0.6269346870385052 -0.4388639934024189
  endloop
endfacet
facet normal 0.05251467836437771 -0.4862887206888295 -0.8722187160839348
  outer loop
    vertex 0.11479378140742896 0.4318782529651489 -0.31875203708148736
    vertex 0.39998559492505037 0.13740111854038534 -0.13740111854038534
    vertex 0.09105638086287414 0.33696657610075326 -0.2672650474791073
  endloop
endfacet
facet normal 0.4025828078685065 -0.10385736195393994 -0.9094727764901365
  outer loop
    vertex -0.22179663788806764 0.6269346870385052 -0.4388639934024189
    vertex 0.09105638086287414 0.33696657610075326 -0.2672650474791073
    vertex -0.2256823466465531 0.5 -0.426088699304494
  endloop
endfacet
facet normal 0.03247049660150702 -0.4828416619246479 -0.8751054772770511
  outer loop
    vertex 0.11479378140742896 0.4318782529651489 -0.31875203708148736
    vertex 0.09105638086287414 0.33696657610075326 -0.2672650474791073
    vertex -0.22179663788806764 0.6269346870385052 -0.4388639934024189
  endloop
endfacet
endsolid model
