solid Exported from Blender-3.6.1
facet normal 0.000000 0.000000 1.000000
outer loop
vertex 500.000000 500.000000 500.000000
vertex -500.000000 500.000000 500.000000
vertex -500.000000 -500.000000 500.000000
endloop
endfacet
facet normal 0.000000 0.000000 1.000000
outer loop
vertex 500.000000 500.000000 500.000000
vertex -500.000000 -500.000000 500.000000
vertex 500.000000 -500.000000 500.000000
endloop
endfacet
facet normal 0.000000 -1.000000 0.000000
outer loop
vertex 500.000000 -500.000000 -500.000000
vertex 500.000000 -500.000000 500.000000
vertex -500.000000 -500.000000 500.000000
endloop
endfacet
facet normal 0.000000 -1.000000 0.000000
outer loop
vertex 500.000000 -500.000000 -500.000000
vertex -500.000000 -500.000000 500.000000
vertex -500.000000 -500.000000 -500.000000
endloop
endfacet
facet normal -1.000000 0.000000 0.000000
outer loop
vertex -500.000000 -500.000000 -500.000000
vertex -500.000000 -500.000000 500.000000
vertex -500.000000 500.000000 500.000000
endloop
endfacet
facet normal -1.000000 0.000000 0.000000
outer loop
vertex -500.000000 -500.000000 -500.000000
vertex -500.000000 500.000000 500.000000
vertex -500.000000 500.000000 -500.000000
endloop
endfacet
facet normal 0.000000 0.000000 -1.000000
outer loop
vertex -500.000000 500.000000 -500.000000
vertex 500.000000 500.000000 -500.000000
vertex 500.000000 -500.000000 -500.000000
endloop
endfacet
facet normal 0.000000 0.000000 -1.000000
outer loop
vertex -500.000000 500.000000 -500.000000
vertex 500.000000 -500.000000 -500.000000
vertex -500.000000 -500.000000 -500.000000
endloop
endfacet
facet normal 1.000000 0.000000 0.000000
outer loop
vertex 500.000000 500.000000 -500.000000
vertex 500.000000 500.000000 500.000000
vertex 500.000000 -500.000000 500.000000
endloop
endfacet
facet normal 1.000000 0.000000 0.000000
outer loop
vertex 500.000000 500.000000 -500.000000
vertex 500.000000 -500.000000 500.000000
vertex 500.000000 -500.000000 -500.000000
endloop
endfacet
facet normal 0.000000 1.000000 0.000000
outer loop
vertex -500.000000 500.000000 -500.000000
vertex -500.000000 500.000000 500.000000
vertex 500.000000 500.000000 500.000000
endloop
endfacet
facet normal 0.000000 1.000000 0.000000
outer loop
vertex -500.000000 500.000000 -500.000000
vertex 500.000000 500.000000 500.000000
vertex 500.000000 500.000000 -500.000000
endloop
endfacet
endsolid Exported from Blender-3.6.1
