solid Exported from Blender-3.6.1
facet normal 0.102381 -0.315090 -0.943523
outer loop
vertex 0.000000 0.000000 -250.000000
vertex 106.330673 -77.252853 -212.663544
vertex -40.613892 -124.998817 -212.663605
endloop
endfacet
facet normal 0.700224 -0.268032 -0.661699
outer loop
vertex 180.901825 -131.431320 -111.804878
vertex 106.330673 -77.252853 -212.663544
vertex 212.661972 0.000000 -131.433975
endloop
endfacet
facet normal -0.268034 -0.194736 -0.943523
outer loop
vertex 0.000000 0.000000 -250.000000
vertex -40.613892 -124.998817 -212.663605
vertex -131.432449 0.000000 -212.662918
endloop
endfacet
facet normal -0.268034 0.194736 -0.943523
outer loop
vertex 0.000000 0.000000 -250.000000
vertex -131.432449 0.000000 -212.662918
vertex -40.613892 124.998817 -212.663605
endloop
endfacet
facet normal 0.102381 0.315090 -0.943523
outer loop
vertex 0.000000 0.000000 -250.000000
vertex -40.613892 124.998817 -212.663605
vertex 106.330673 77.252853 -212.663544
endloop
endfacet
facet normal 0.904989 -0.268032 -0.330385
outer loop
vertex 180.901825 -131.431320 -111.804878
vertex 212.661972 0.000000 -131.433975
vertex 237.764465 -77.253159 0.000000
endloop
endfacet
facet normal 0.024747 -0.943521 -0.330386
outer loop
vertex -69.097008 -212.662308 -111.804962
vertex 65.717209 -202.252914 -131.434418
vertex 0.000000 -249.999985 0.000000
endloop
endfacet
facet normal -0.889697 -0.315095 -0.330385
outer loop
vertex -223.606552 0.000000 -111.803902
vertex -172.047348 -124.999229 -131.434052
vertex -237.764465 -77.253159 0.000000
endloop
endfacet
facet normal -0.574602 0.748784 -0.330388
outer loop
vertex -69.097008 212.662308 -111.804962
vertex -172.047348 124.999229 -131.434052
vertex -146.946396 202.254181 0.000000
endloop
endfacet
facet normal 0.534576 0.777865 -0.330387
outer loop
vertex 180.901825 131.431320 -111.804878
vertex 65.717209 202.252914 -131.434418
vertex 146.946396 202.254181 0.000000
endloop
endfacet
facet normal 0.802609 -0.583127 -0.125627
outer loop
vertex 180.901825 -131.431320 -111.804878
vertex 237.764465 -77.253159 0.000000
vertex 146.946396 -202.254181 0.000000
endloop
endfacet
facet normal -0.306569 -0.943522 -0.125628
outer loop
vertex -69.097008 -212.662308 -111.804962
vertex 0.000000 -249.999985 0.000000
vertex -146.946396 -202.254181 0.000000
endloop
endfacet
facet normal -0.992077 0.000000 -0.125628
outer loop
vertex -223.606552 0.000000 -111.803902
vertex -237.764465 -77.253159 0.000000
vertex -237.764465 77.253159 0.000000
endloop
endfacet
facet normal -0.306569 0.943522 -0.125628
outer loop
vertex -69.097008 212.662308 -111.804962
vertex -146.946396 202.254181 0.000000
vertex 0.000000 249.999985 0.000000
endloop
endfacet
facet normal 0.802609 0.583127 -0.125627
outer loop
vertex 180.901825 131.431320 -111.804878
vertex 146.946396 202.254181 0.000000
vertex 237.764465 77.253159 0.000000
endloop
endfacet
facet normal 0.408946 -0.628425 0.661699
outer loop
vertex 69.097008 -212.662308 111.804962
vertex 172.047348 -124.999229 131.434052
vertex 40.613892 -124.998817 212.663589
endloop
endfacet
facet normal -0.471300 -0.583122 0.661699
outer loop
vertex -180.901825 -131.431320 111.804878
vertex -65.717209 -202.252914 131.434418
vertex -106.330673 -77.252853 212.663544
endloop
endfacet
facet normal -0.700224 0.268032 0.661699
outer loop
vertex -180.901825 131.431320 111.804878
vertex -212.661972 0.000000 131.433975
vertex -106.330673 77.252853 212.663544
endloop
endfacet
facet normal 0.038531 0.748779 0.661699
outer loop
vertex 69.097008 212.662308 111.804962
vertex -65.717209 202.252914 131.434418
vertex 40.613892 124.998817 212.663589
endloop
endfacet
facet normal 0.724042 0.194736 0.661695
outer loop
vertex 223.606552 0.000000 111.803902
vertex 172.047348 124.999229 131.434052
vertex 131.432449 0.000000 212.662918
endloop
endfacet
facet normal 0.268034 0.194737 0.943523
outer loop
vertex 131.432449 0.000000 212.662918
vertex 40.613892 124.998817 212.663589
vertex 0.000000 0.000000 250.000000
endloop
endfacet
facet normal 0.491119 0.356821 0.794658
outer loop
vertex 131.432449 0.000000 212.662918
vertex 172.047348 124.999229 131.434052
vertex 40.613892 124.998817 212.663589
endloop
endfacet
facet normal 0.408946 0.628425 0.661699
outer loop
vertex 172.047348 124.999229 131.434052
vertex 69.097008 212.662308 111.804962
vertex 40.613892 124.998817 212.663589
endloop
endfacet
facet normal -0.102381 0.315090 0.943523
outer loop
vertex 40.613892 124.998817 212.663589
vertex -106.330673 77.252853 212.663544
vertex 0.000000 0.000000 250.000000
endloop
endfacet
facet normal -0.187594 0.577345 0.794658
outer loop
vertex 40.613892 124.998817 212.663589
vertex -65.717209 202.252914 131.434418
vertex -106.330673 77.252853 212.663544
endloop
endfacet
facet normal -0.471300 0.583122 0.661699
outer loop
vertex -65.717209 202.252914 131.434418
vertex -180.901825 131.431320 111.804878
vertex -106.330673 77.252853 212.663544
endloop
endfacet
facet normal -0.331305 0.000000 0.943524
outer loop
vertex -106.330673 77.252853 212.663544
vertex -106.330673 -77.252853 212.663544
vertex 0.000000 0.000000 250.000000
endloop
endfacet
facet normal -0.607060 0.000000 0.794656
outer loop
vertex -106.330673 77.252853 212.663544
vertex -212.661972 0.000000 131.433975
vertex -106.330673 -77.252853 212.663544
endloop
endfacet
facet normal -0.700224 -0.268032 0.661699
outer loop
vertex -212.661972 0.000000 131.433975
vertex -180.901825 -131.431320 111.804878
vertex -106.330673 -77.252853 212.663544
endloop
endfacet
facet normal -0.102381 -0.315090 0.943523
outer loop
vertex -106.330673 -77.252853 212.663544
vertex 40.613892 -124.998817 212.663589
vertex 0.000000 0.000000 250.000000
endloop
endfacet
facet normal -0.187594 -0.577345 0.794658
outer loop
vertex -106.330673 -77.252853 212.663544
vertex -65.717209 -202.252914 131.434418
vertex 40.613892 -124.998817 212.663589
endloop
endfacet
facet normal 0.038531 -0.748779 0.661699
outer loop
vertex -65.717209 -202.252914 131.434418
vertex 69.097008 -212.662308 111.804962
vertex 40.613892 -124.998817 212.663589
endloop
endfacet
facet normal 0.268034 -0.194737 0.943523
outer loop
vertex 40.613892 -124.998817 212.663589
vertex 131.432449 0.000000 212.662918
vertex 0.000000 0.000000 250.000000
endloop
endfacet
facet normal 0.491119 -0.356821 0.794658
outer loop
vertex 40.613892 -124.998817 212.663589
vertex 172.047348 -124.999229 131.434052
vertex 131.432449 0.000000 212.662918
endloop
endfacet
facet normal 0.724042 -0.194736 0.661695
outer loop
vertex 172.047348 -124.999229 131.434052
vertex 223.606552 0.000000 111.803902
vertex 131.432449 0.000000 212.662918
endloop
endfacet
facet normal 0.889697 0.315095 0.330385
outer loop
vertex 237.764465 77.253159 0.000000
vertex 172.047348 124.999229 131.434052
vertex 223.606552 0.000000 111.803902
endloop
endfacet
facet normal 0.794656 0.577348 0.187595
outer loop
vertex 237.764465 77.253159 0.000000
vertex 146.946396 202.254181 0.000000
vertex 172.047348 124.999229 131.434052
endloop
endfacet
facet normal 0.574602 0.748784 0.330388
outer loop
vertex 146.946396 202.254181 0.000000
vertex 69.097008 212.662308 111.804962
vertex 172.047348 124.999229 131.434052
endloop
endfacet
facet normal -0.024747 0.943521 0.330386
outer loop
vertex 0.000000 249.999985 0.000000
vertex -65.717209 202.252914 131.434418
vertex 69.097008 212.662308 111.804962
endloop
endfacet
facet normal -0.303531 0.934171 0.187597
outer loop
vertex 0.000000 249.999985 0.000000
vertex -146.946396 202.254181 0.000000
vertex -65.717209 202.252914 131.434418
endloop
endfacet
facet normal -0.534576 0.777864 0.330387
outer loop
vertex -146.946396 202.254181 0.000000
vertex -180.901825 131.431320 111.804878
vertex -65.717209 202.252914 131.434418
endloop
endfacet
facet normal -0.904989 0.268032 0.330385
outer loop
vertex -237.764465 77.253159 0.000000
vertex -212.661972 0.000000 131.433975
vertex -180.901825 131.431320 111.804878
endloop
endfacet
facet normal -0.982246 0.000000 0.187599
outer loop
vertex -237.764465 77.253159 0.000000
vertex -237.764465 -77.253159 0.000000
vertex -212.661972 0.000000 131.433975
endloop
endfacet
facet normal -0.904989 -0.268032 0.330385
outer loop
vertex -237.764465 -77.253159 0.000000
vertex -180.901825 -131.431320 111.804878
vertex -212.661972 0.000000 131.433975
endloop
endfacet
facet normal -0.534576 -0.777864 0.330387
outer loop
vertex -146.946396 -202.254181 0.000000
vertex -65.717209 -202.252914 131.434418
vertex -180.901825 -131.431320 111.804878
endloop
endfacet
facet normal -0.303531 -0.934171 0.187597
outer loop
vertex -146.946396 -202.254181 0.000000
vertex 0.000000 -249.999985 0.000000
vertex -65.717209 -202.252914 131.434418
endloop
endfacet
facet normal -0.024747 -0.943521 0.330386
outer loop
vertex 0.000000 -249.999985 0.000000
vertex 69.097008 -212.662308 111.804962
vertex -65.717209 -202.252914 131.434418
endloop
endfacet
facet normal 0.574602 -0.748784 0.330388
outer loop
vertex 146.946396 -202.254181 0.000000
vertex 172.047348 -124.999229 131.434052
vertex 69.097008 -212.662308 111.804962
endloop
endfacet
facet normal 0.794656 -0.577348 0.187595
outer loop
vertex 146.946396 -202.254181 0.000000
vertex 237.764465 -77.253159 0.000000
vertex 172.047348 -124.999229 131.434052
endloop
endfacet
facet normal 0.889697 -0.315095 0.330385
outer loop
vertex 237.764465 -77.253159 0.000000
vertex 223.606552 0.000000 111.803902
vertex 172.047348 -124.999229 131.434052
endloop
endfacet
facet normal 0.306569 0.943521 0.125628
outer loop
vertex 146.946396 202.254181 0.000000
vertex 0.000000 249.999985 0.000000
vertex 69.097008 212.662308 111.804962
endloop
endfacet
facet normal 0.303531 0.934171 -0.187597
outer loop
vertex 146.946396 202.254181 0.000000
vertex 65.717209 202.252914 -131.434418
vertex 0.000000 249.999985 0.000000
endloop
endfacet
facet normal 0.024747 0.943521 -0.330386
outer loop
vertex 65.717209 202.252914 -131.434418
vertex -69.097008 212.662308 -111.804962
vertex 0.000000 249.999985 0.000000
endloop
endfacet
facet normal -0.802609 0.583127 0.125627
outer loop
vertex -146.946396 202.254181 0.000000
vertex -237.764465 77.253159 0.000000
vertex -180.901825 131.431320 111.804878
endloop
endfacet
facet normal -0.794656 0.577348 -0.187595
outer loop
vertex -146.946396 202.254181 0.000000
vertex -172.047348 124.999229 -131.434052
vertex -237.764465 77.253159 0.000000
endloop
endfacet
facet normal -0.889697 0.315095 -0.330385
outer loop
vertex -172.047348 124.999229 -131.434052
vertex -223.606552 0.000000 -111.803902
vertex -237.764465 77.253159 0.000000
endloop
endfacet
facet normal -0.802609 -0.583127 0.125627
outer loop
vertex -237.764465 -77.253159 0.000000
vertex -146.946396 -202.254181 0.000000
vertex -180.901825 -131.431320 111.804878
endloop
endfacet
facet normal -0.794656 -0.577348 -0.187595
outer loop
vertex -237.764465 -77.253159 0.000000
vertex -172.047348 -124.999229 -131.434052
vertex -146.946396 -202.254181 0.000000
endloop
endfacet
facet normal -0.574602 -0.748784 -0.330388
outer loop
vertex -172.047348 -124.999229 -131.434052
vertex -69.097008 -212.662308 -111.804962
vertex -146.946396 -202.254181 0.000000
endloop
endfacet
facet normal 0.306569 -0.943521 0.125629
outer loop
vertex 0.000000 -249.999985 0.000000
vertex 146.946396 -202.254181 0.000000
vertex 69.097008 -212.662308 111.804962
endloop
endfacet
facet normal 0.303531 -0.934171 -0.187597
outer loop
vertex 0.000000 -249.999985 0.000000
vertex 65.717209 -202.252914 -131.434418
vertex 146.946396 -202.254181 0.000000
endloop
endfacet
facet normal 0.534576 -0.777865 -0.330387
outer loop
vertex 65.717209 -202.252914 -131.434418
vertex 180.901825 -131.431320 -111.804878
vertex 146.946396 -202.254181 0.000000
endloop
endfacet
facet normal 0.992077 0.000000 0.125628
outer loop
vertex 237.764465 -77.253159 0.000000
vertex 237.764465 77.253159 0.000000
vertex 223.606552 0.000000 111.803902
endloop
endfacet
facet normal 0.982246 0.000000 -0.187599
outer loop
vertex 237.764465 -77.253159 0.000000
vertex 212.661972 0.000000 -131.433975
vertex 237.764465 77.253159 0.000000
endloop
endfacet
facet normal 0.904989 0.268032 -0.330385
outer loop
vertex 212.661972 0.000000 -131.433975
vertex 180.901825 131.431320 -111.804878
vertex 237.764465 77.253159 0.000000
endloop
endfacet
facet normal 0.471300 0.583122 -0.661699
outer loop
vertex 106.330673 77.252853 -212.663544
vertex 65.717209 202.252914 -131.434418
vertex 180.901825 131.431320 -111.804878
endloop
endfacet
facet normal 0.187594 0.577345 -0.794658
outer loop
vertex 106.330673 77.252853 -212.663544
vertex -40.613892 124.998817 -212.663605
vertex 65.717209 202.252914 -131.434418
endloop
endfacet
facet normal -0.038530 0.748779 -0.661699
outer loop
vertex -40.613892 124.998817 -212.663605
vertex -69.097008 212.662308 -111.804962
vertex 65.717209 202.252914 -131.434418
endloop
endfacet
facet normal -0.408946 0.628425 -0.661699
outer loop
vertex -40.613892 124.998817 -212.663605
vertex -172.047348 124.999229 -131.434052
vertex -69.097008 212.662308 -111.804962
endloop
endfacet
facet normal -0.491119 0.356821 -0.794657
outer loop
vertex -40.613892 124.998817 -212.663605
vertex -131.432449 0.000000 -212.662918
vertex -172.047348 124.999229 -131.434052
endloop
endfacet
facet normal -0.724042 0.194736 -0.661695
outer loop
vertex -131.432449 0.000000 -212.662918
vertex -223.606552 0.000000 -111.803902
vertex -172.047348 124.999229 -131.434052
endloop
endfacet
facet normal -0.724042 -0.194736 -0.661695
outer loop
vertex -131.432449 0.000000 -212.662918
vertex -172.047348 -124.999229 -131.434052
vertex -223.606552 0.000000 -111.803902
endloop
endfacet
facet normal -0.491119 -0.356821 -0.794657
outer loop
vertex -131.432449 0.000000 -212.662918
vertex -40.613892 -124.998817 -212.663605
vertex -172.047348 -124.999229 -131.434052
endloop
endfacet
facet normal -0.408946 -0.628425 -0.661699
outer loop
vertex -40.613892 -124.998817 -212.663605
vertex -69.097008 -212.662308 -111.804962
vertex -172.047348 -124.999229 -131.434052
endloop
endfacet
facet normal 0.700224 0.268032 -0.661699
outer loop
vertex 212.661972 0.000000 -131.433975
vertex 106.330673 77.252853 -212.663544
vertex 180.901825 131.431320 -111.804878
endloop
endfacet
facet normal 0.607060 0.000000 -0.794656
outer loop
vertex 212.661972 0.000000 -131.433975
vertex 106.330673 -77.252853 -212.663544
vertex 106.330673 77.252853 -212.663544
endloop
endfacet
facet normal 0.331305 0.000000 -0.943524
outer loop
vertex 106.330673 -77.252853 -212.663544
vertex 0.000000 0.000000 -250.000000
vertex 106.330673 77.252853 -212.663544
endloop
endfacet
facet normal -0.038530 -0.748779 -0.661699
outer loop
vertex -40.613892 -124.998817 -212.663605
vertex 65.717209 -202.252914 -131.434418
vertex -69.097008 -212.662308 -111.804962
endloop
endfacet
facet normal 0.187594 -0.577345 -0.794658
outer loop
vertex -40.613892 -124.998817 -212.663605
vertex 106.330673 -77.252853 -212.663544
vertex 65.717209 -202.252914 -131.434418
endloop
endfacet
facet normal 0.471300 -0.583122 -0.661699
outer loop
vertex 106.330673 -77.252853 -212.663544
vertex 180.901825 -131.431320 -111.804878
vertex 65.717209 -202.252914 -131.434418
endloop
endfacet
endsolid Exported from Blender-3.6.1
