solid Exported from Blender-3.6.1
facet normal 0.102381 -0.315090 -0.943523
outer loop
vertex 0.000000 0.000000 -2500.000000
vertex 1063.306763 -772.528442 -2126.635498
vertex -406.138885 -1249.988159 -2126.635986
endloop
endfacet
facet normal 0.700224 -0.268031 -0.661699
outer loop
vertex 1809.018311 -1314.313232 -1118.048828
vertex 1063.306763 -772.528442 -2126.635498
vertex 2126.619629 0.000000 -1314.339600
endloop
endfacet
facet normal -0.268034 -0.194736 -0.943523
outer loop
vertex 0.000000 0.000000 -2500.000000
vertex -406.138885 -1249.988159 -2126.635986
vertex -1314.324463 0.000000 -2126.628906
endloop
endfacet
facet normal -0.268034 0.194736 -0.943523
outer loop
vertex 0.000000 0.000000 -2500.000000
vertex -1314.324463 0.000000 -2126.628906
vertex -406.138885 1249.988159 -2126.635986
endloop
endfacet
facet normal 0.102381 0.315090 -0.943523
outer loop
vertex 0.000000 0.000000 -2500.000000
vertex -406.138885 1249.988159 -2126.635986
vertex 1063.306763 772.528442 -2126.635498
endloop
endfacet
facet normal 0.904989 -0.268031 -0.330385
outer loop
vertex 1809.018311 -1314.313232 -1118.048828
vertex 2126.619629 0.000000 -1314.339600
vertex 2377.645020 -772.531616 0.000000
endloop
endfacet
facet normal 0.024747 -0.943521 -0.330386
outer loop
vertex -690.970032 -2126.623047 -1118.049561
vertex 657.172119 -2022.529053 -1314.344116
vertex 0.000000 -2500.000000 0.000000
endloop
endfacet
facet normal -0.889697 -0.315095 -0.330385
outer loop
vertex -2236.065430 0.000000 -1118.038940
vertex -1720.473389 -1249.992432 -1314.340576
vertex -2377.645020 -772.531616 0.000000
endloop
endfacet
facet normal -0.574602 0.748784 -0.330388
outer loop
vertex -690.970032 2126.623047 -1118.049561
vertex -1720.473389 1249.992432 -1314.340576
vertex -1469.463989 2022.541748 0.000000
endloop
endfacet
facet normal 0.534576 0.777865 -0.330386
outer loop
vertex 1809.018311 1314.313232 -1118.048828
vertex 657.171997 2022.529053 -1314.344116
vertex 1469.463989 2022.541748 0.000000
endloop
endfacet
facet normal 0.802609 -0.583126 -0.125627
outer loop
vertex 1809.018311 -1314.313232 -1118.048828
vertex 2377.645020 -772.531616 0.000000
vertex 1469.463989 -2022.541748 0.000000
endloop
endfacet
facet normal -0.306569 -0.943521 -0.125629
outer loop
vertex -690.970032 -2126.623047 -1118.049561
vertex 0.000000 -2500.000000 0.000000
vertex -1469.463989 -2022.541748 0.000000
endloop
endfacet
facet normal -0.992077 0.000000 -0.125629
outer loop
vertex -2236.065430 0.000000 -1118.038940
vertex -2377.645020 -772.531616 0.000000
vertex -2377.645020 772.531616 0.000000
endloop
endfacet
facet normal -0.306569 0.943521 -0.125629
outer loop
vertex -690.970032 2126.623047 -1118.049561
vertex -1469.463989 2022.541748 0.000000
vertex 0.000000 2500.000000 0.000000
endloop
endfacet
facet normal 0.802609 0.583126 -0.125627
outer loop
vertex 1809.018311 1314.313232 -1118.048828
vertex 1469.463989 2022.541748 0.000000
vertex 2377.645020 772.531616 0.000000
endloop
endfacet
facet normal 0.408946 -0.628425 0.661699
outer loop
vertex 690.970032 -2126.623047 1118.049561
vertex 1720.473389 -1249.992432 1314.340576
vertex 406.138885 -1249.988159 2126.635986
endloop
endfacet
facet normal -0.471299 -0.583122 0.661699
outer loop
vertex -1809.018311 -1314.313232 1118.048828
vertex -657.171997 -2022.529053 1314.344116
vertex -1063.306763 -772.528442 2126.635498
endloop
endfacet
facet normal -0.700224 0.268031 0.661699
outer loop
vertex -1809.018311 1314.313232 1118.048828
vertex -2126.619629 0.000000 1314.339600
vertex -1063.306763 772.528442 2126.635498
endloop
endfacet
facet normal 0.038530 0.748779 0.661699
outer loop
vertex 690.970032 2126.623047 1118.049561
vertex -657.172119 2022.529053 1314.344116
vertex 406.138885 1249.988159 2126.635986
endloop
endfacet
facet normal 0.724042 0.194736 0.661695
outer loop
vertex 2236.065430 0.000000 1118.038940
vertex 1720.473389 1249.992432 1314.340576
vertex 1314.324463 0.000000 2126.628906
endloop
endfacet
facet normal 0.268034 0.194736 0.943523
outer loop
vertex 1314.324463 0.000000 2126.628906
vertex 406.138885 1249.988159 2126.635986
vertex 0.000000 0.000000 2500.000000
endloop
endfacet
facet normal 0.491119 0.356821 0.794658
outer loop
vertex 1314.324463 0.000000 2126.628906
vertex 1720.473389 1249.992432 1314.340576
vertex 406.138885 1249.988159 2126.635986
endloop
endfacet
facet normal 0.408946 0.628425 0.661699
outer loop
vertex 1720.473389 1249.992432 1314.340576
vertex 690.970032 2126.623047 1118.049561
vertex 406.138885 1249.988159 2126.635986
endloop
endfacet
facet normal -0.102381 0.315090 0.943523
outer loop
vertex 406.138885 1249.988159 2126.635986
vertex -1063.306763 772.528442 2126.635498
vertex 0.000000 0.000000 2500.000000
endloop
endfacet
facet normal -0.187594 0.577345 0.794658
outer loop
vertex 406.138885 1249.988159 2126.635986
vertex -657.172119 2022.529053 1314.344116
vertex -1063.306763 772.528442 2126.635498
endloop
endfacet
facet normal -0.471300 0.583122 0.661699
outer loop
vertex -657.172119 2022.529053 1314.344116
vertex -1809.018311 1314.313232 1118.048828
vertex -1063.306763 772.528442 2126.635498
endloop
endfacet
facet normal -0.331305 0.000000 0.943524
outer loop
vertex -1063.306763 772.528442 2126.635498
vertex -1063.306763 -772.528442 2126.635498
vertex 0.000000 0.000000 2500.000000
endloop
endfacet
facet normal -0.607060 0.000000 0.794656
outer loop
vertex -1063.306763 772.528442 2126.635498
vertex -2126.619629 0.000000 1314.339600
vertex -1063.306763 -772.528442 2126.635498
endloop
endfacet
facet normal -0.700224 -0.268031 0.661699
outer loop
vertex -2126.619629 0.000000 1314.339600
vertex -1809.018311 -1314.313232 1118.048828
vertex -1063.306763 -772.528442 2126.635498
endloop
endfacet
facet normal -0.102381 -0.315090 0.943523
outer loop
vertex -1063.306763 -772.528442 2126.635498
vertex 406.138885 -1249.988159 2126.635986
vertex 0.000000 0.000000 2500.000000
endloop
endfacet
facet normal -0.187594 -0.577345 0.794658
outer loop
vertex -1063.306763 -772.528442 2126.635498
vertex -657.171997 -2022.529053 1314.344116
vertex 406.138885 -1249.988159 2126.635986
endloop
endfacet
facet normal 0.038530 -0.748779 0.661699
outer loop
vertex -657.171997 -2022.529053 1314.344116
vertex 690.970032 -2126.623047 1118.049561
vertex 406.138885 -1249.988159 2126.635986
endloop
endfacet
facet normal 0.268034 -0.194736 0.943523
outer loop
vertex 406.138885 -1249.988159 2126.635986
vertex 1314.324463 0.000000 2126.628906
vertex 0.000000 0.000000 2500.000000
endloop
endfacet
facet normal 0.491119 -0.356821 0.794658
outer loop
vertex 406.138885 -1249.988159 2126.635986
vertex 1720.473389 -1249.992432 1314.340576
vertex 1314.324463 0.000000 2126.628906
endloop
endfacet
facet normal 0.724042 -0.194736 0.661695
outer loop
vertex 1720.473389 -1249.992432 1314.340576
vertex 2236.065430 0.000000 1118.038940
vertex 1314.324463 0.000000 2126.628906
endloop
endfacet
facet normal 0.889697 0.315095 0.330385
outer loop
vertex 2377.645020 772.531616 0.000000
vertex 1720.473389 1249.992432 1314.340576
vertex 2236.065430 0.000000 1118.038940
endloop
endfacet
facet normal 0.794655 0.577348 0.187595
outer loop
vertex 2377.645020 772.531616 0.000000
vertex 1469.463989 2022.541748 0.000000
vertex 1720.473389 1249.992432 1314.340576
endloop
endfacet
facet normal 0.574602 0.748784 0.330388
outer loop
vertex 1469.463989 2022.541748 0.000000
vertex 690.970032 2126.623047 1118.049561
vertex 1720.473389 1249.992432 1314.340576
endloop
endfacet
facet normal -0.024747 0.943521 0.330386
outer loop
vertex 0.000000 2500.000000 0.000000
vertex -657.172119 2022.529053 1314.344116
vertex 690.970032 2126.623047 1118.049561
endloop
endfacet
facet normal -0.303531 0.934171 0.187597
outer loop
vertex 0.000000 2500.000000 0.000000
vertex -1469.463989 2022.541748 0.000000
vertex -657.172119 2022.529053 1314.344116
endloop
endfacet
facet normal -0.534576 0.777864 0.330387
outer loop
vertex -1469.463989 2022.541748 0.000000
vertex -1809.018311 1314.313232 1118.048828
vertex -657.172119 2022.529053 1314.344116
endloop
endfacet
facet normal -0.904989 0.268031 0.330385
outer loop
vertex -2377.645020 772.531616 0.000000
vertex -2126.619629 0.000000 1314.339600
vertex -1809.018311 1314.313232 1118.048828
endloop
endfacet
facet normal -0.982246 0.000000 0.187599
outer loop
vertex -2377.645020 772.531616 0.000000
vertex -2377.645020 -772.531616 0.000000
vertex -2126.619629 0.000000 1314.339600
endloop
endfacet
facet normal -0.904989 -0.268031 0.330385
outer loop
vertex -2377.645020 -772.531616 0.000000
vertex -1809.018311 -1314.313232 1118.048828
vertex -2126.619629 0.000000 1314.339600
endloop
endfacet
facet normal -0.534576 -0.777865 0.330386
outer loop
vertex -1469.463989 -2022.541748 0.000000
vertex -657.171997 -2022.529053 1314.344116
vertex -1809.018311 -1314.313232 1118.048828
endloop
endfacet
facet normal -0.303531 -0.934171 0.187598
outer loop
vertex -1469.463989 -2022.541748 0.000000
vertex 0.000000 -2500.000000 0.000000
vertex -657.171997 -2022.529053 1314.344116
endloop
endfacet
facet normal -0.024747 -0.943521 0.330386
outer loop
vertex 0.000000 -2500.000000 0.000000
vertex 690.970032 -2126.623047 1118.049561
vertex -657.171997 -2022.529053 1314.344116
endloop
endfacet
facet normal 0.574602 -0.748784 0.330388
outer loop
vertex 1469.463989 -2022.541748 0.000000
vertex 1720.473389 -1249.992432 1314.340576
vertex 690.970032 -2126.623047 1118.049561
endloop
endfacet
facet normal 0.794655 -0.577348 0.187595
outer loop
vertex 1469.463989 -2022.541748 0.000000
vertex 2377.645020 -772.531616 0.000000
vertex 1720.473389 -1249.992432 1314.340576
endloop
endfacet
facet normal 0.889697 -0.315095 0.330385
outer loop
vertex 2377.645020 -772.531616 0.000000
vertex 2236.065430 0.000000 1118.038940
vertex 1720.473389 -1249.992432 1314.340576
endloop
endfacet
facet normal 0.306569 0.943521 0.125629
outer loop
vertex 1469.463989 2022.541748 0.000000
vertex 0.000000 2500.000000 0.000000
vertex 690.970032 2126.623047 1118.049561
endloop
endfacet
facet normal 0.303531 0.934171 -0.187598
outer loop
vertex 1469.463989 2022.541748 0.000000
vertex 657.171997 2022.529053 -1314.344116
vertex 0.000000 2500.000000 0.000000
endloop
endfacet
facet normal 0.024747 0.943521 -0.330386
outer loop
vertex 657.171997 2022.529053 -1314.344116
vertex -690.970032 2126.623047 -1118.049561
vertex 0.000000 2500.000000 0.000000
endloop
endfacet
facet normal -0.802609 0.583126 0.125627
outer loop
vertex -1469.463989 2022.541748 0.000000
vertex -2377.645020 772.531616 0.000000
vertex -1809.018311 1314.313232 1118.048828
endloop
endfacet
facet normal -0.794655 0.577348 -0.187595
outer loop
vertex -1469.463989 2022.541748 0.000000
vertex -1720.473389 1249.992432 -1314.340576
vertex -2377.645020 772.531616 0.000000
endloop
endfacet
facet normal -0.889697 0.315095 -0.330385
outer loop
vertex -1720.473389 1249.992432 -1314.340576
vertex -2236.065430 0.000000 -1118.038940
vertex -2377.645020 772.531616 0.000000
endloop
endfacet
facet normal -0.802609 -0.583126 0.125627
outer loop
vertex -2377.645020 -772.531616 0.000000
vertex -1469.463989 -2022.541748 0.000000
vertex -1809.018311 -1314.313232 1118.048828
endloop
endfacet
facet normal -0.794655 -0.577348 -0.187595
outer loop
vertex -2377.645020 -772.531616 0.000000
vertex -1720.473389 -1249.992432 -1314.340576
vertex -1469.463989 -2022.541748 0.000000
endloop
endfacet
facet normal -0.574602 -0.748784 -0.330388
outer loop
vertex -1720.473389 -1249.992432 -1314.340576
vertex -690.970032 -2126.623047 -1118.049561
vertex -1469.463989 -2022.541748 0.000000
endloop
endfacet
facet normal 0.306569 -0.943521 0.125629
outer loop
vertex 0.000000 -2500.000000 0.000000
vertex 1469.463989 -2022.541748 0.000000
vertex 690.970032 -2126.623047 1118.049561
endloop
endfacet
facet normal 0.303531 -0.934171 -0.187597
outer loop
vertex 0.000000 -2500.000000 0.000000
vertex 657.172119 -2022.529053 -1314.344116
vertex 1469.463989 -2022.541748 0.000000
endloop
endfacet
facet normal 0.534576 -0.777865 -0.330387
outer loop
vertex 657.172119 -2022.529053 -1314.344116
vertex 1809.018311 -1314.313232 -1118.048828
vertex 1469.463989 -2022.541748 0.000000
endloop
endfacet
facet normal 0.992077 0.000000 0.125629
outer loop
vertex 2377.645020 -772.531616 0.000000
vertex 2377.645020 772.531616 0.000000
vertex 2236.065430 0.000000 1118.038940
endloop
endfacet
facet normal 0.982246 0.000000 -0.187599
outer loop
vertex 2377.645020 -772.531616 0.000000
vertex 2126.619629 0.000000 -1314.339600
vertex 2377.645020 772.531616 0.000000
endloop
endfacet
facet normal 0.904989 0.268031 -0.330385
outer loop
vertex 2126.619629 0.000000 -1314.339600
vertex 1809.018311 1314.313232 -1118.048828
vertex 2377.645020 772.531616 0.000000
endloop
endfacet
facet normal 0.471300 0.583122 -0.661699
outer loop
vertex 1063.306763 772.528442 -2126.635498
vertex 657.171997 2022.529053 -1314.344116
vertex 1809.018311 1314.313232 -1118.048828
endloop
endfacet
facet normal 0.187594 0.577345 -0.794658
outer loop
vertex 1063.306763 772.528442 -2126.635498
vertex -406.138885 1249.988159 -2126.635986
vertex 657.171997 2022.529053 -1314.344116
endloop
endfacet
facet normal -0.038530 0.748779 -0.661699
outer loop
vertex -406.138885 1249.988159 -2126.635986
vertex -690.970032 2126.623047 -1118.049561
vertex 657.171997 2022.529053 -1314.344116
endloop
endfacet
facet normal -0.408946 0.628425 -0.661699
outer loop
vertex -406.138885 1249.988159 -2126.635986
vertex -1720.473389 1249.992432 -1314.340576
vertex -690.970032 2126.623047 -1118.049561
endloop
endfacet
facet normal -0.491119 0.356821 -0.794658
outer loop
vertex -406.138885 1249.988159 -2126.635986
vertex -1314.324463 0.000000 -2126.628906
vertex -1720.473389 1249.992432 -1314.340576
endloop
endfacet
facet normal -0.724042 0.194736 -0.661695
outer loop
vertex -1314.324463 0.000000 -2126.628906
vertex -2236.065430 0.000000 -1118.038940
vertex -1720.473389 1249.992432 -1314.340576
endloop
endfacet
facet normal -0.724042 -0.194736 -0.661695
outer loop
vertex -1314.324463 0.000000 -2126.628906
vertex -1720.473389 -1249.992432 -1314.340576
vertex -2236.065430 0.000000 -1118.038940
endloop
endfacet
facet normal -0.491119 -0.356821 -0.794658
outer loop
vertex -1314.324463 0.000000 -2126.628906
vertex -406.138885 -1249.988159 -2126.635986
vertex -1720.473389 -1249.992432 -1314.340576
endloop
endfacet
facet normal -0.408946 -0.628425 -0.661699
outer loop
vertex -406.138885 -1249.988159 -2126.635986
vertex -690.970032 -2126.623047 -1118.049561
vertex -1720.473389 -1249.992432 -1314.340576
endloop
endfacet
facet normal 0.700224 0.268031 -0.661699
outer loop
vertex 2126.619629 0.000000 -1314.339600
vertex 1063.306763 772.528442 -2126.635498
vertex 1809.018311 1314.313232 -1118.048828
endloop
endfacet
facet normal 0.607060 0.000000 -0.794656
outer loop
vertex 2126.619629 0.000000 -1314.339600
vertex 1063.306763 -772.528442 -2126.635498
vertex 1063.306763 772.528442 -2126.635498
endloop
endfacet
facet normal 0.331305 0.000000 -0.943524
outer loop
vertex 1063.306763 -772.528442 -2126.635498
vertex 0.000000 0.000000 -2500.000000
vertex 1063.306763 772.528442 -2126.635498
endloop
endfacet
facet normal -0.038530 -0.748779 -0.661699
outer loop
vertex -406.138885 -1249.988159 -2126.635986
vertex 657.172119 -2022.529053 -1314.344116
vertex -690.970032 -2126.623047 -1118.049561
endloop
endfacet
facet normal 0.187594 -0.577345 -0.794658
outer loop
vertex -406.138885 -1249.988159 -2126.635986
vertex 1063.306763 -772.528442 -2126.635498
vertex 657.172119 -2022.529053 -1314.344116
endloop
endfacet
facet normal 0.471300 -0.583122 -0.661698
outer loop
vertex 1063.306763 -772.528442 -2126.635498
vertex 1809.018311 -1314.313232 -1118.048828
vertex 657.172119 -2022.529053 -1314.344116
endloop
endfacet
endsolid Exported from Blender-3.6.1
