solid Exported from Blender-3.6.1
facet normal -0.683377 0.336944 0.647661
outer loop
vertex -136.375580 145.751785 120.257629
vertex -144.790680 2.396741 185.958618
vertex -69.778084 100.930664 213.845749
endloop
endfacet
facet normal -0.451190 -0.325252 0.831047
outer loop
vertex -144.790680 2.396741 185.958618
vertex -171.002213 -108.221123 128.434677
vertex -63.985779 -151.435883 169.622635
endloop
endfacet
facet normal -0.454974 0.632617 0.626733
outer loop
vertex -31.534359 167.774719 174.136963
vertex -136.375580 145.751785 120.257629
vertex -69.778084 100.930664 213.845749
endloop
endfacet
facet normal -0.631654 -0.402176 0.662772
outer loop
vertex -58.901344 -81.492592 216.910553
vertex -144.790680 2.396741 185.958618
vertex -63.985779 -151.435883 169.622635
endloop
endfacet
facet normal -0.385509 0.032501 0.922131
outer loop
vertex -69.778084 100.930664 213.845749
vertex -144.790680 2.396741 185.958618
vertex 29.483282 -20.999590 259.640839
endloop
endfacet
facet normal -0.396236 -0.067847 0.915638
outer loop
vertex -144.790680 2.396741 185.958618
vertex -58.901344 -81.492592 216.910553
vertex 29.483282 -20.999590 259.640839
endloop
endfacet
facet normal -0.070231 -0.555201 0.828746
outer loop
vertex -58.901344 -81.492592 216.910553
vertex -63.985779 -151.435883 169.622635
vertex 41.282444 -156.316757 175.273651
endloop
endfacet
facet normal 0.139368 0.445594 0.884320
outer loop
vertex -31.534359 167.774719 174.136963
vertex -69.778084 100.930664 213.845749
vertex 29.483282 -20.999590 259.640839
endloop
endfacet
facet normal 0.285301 0.528367 0.799645
outer loop
vertex -31.534359 167.774719 174.136963
vertex 72.272957 22.213350 233.280075
vertex 127.487671 156.498642 124.851044
endloop
endfacet
facet normal -0.045289 -0.531367 0.845930
outer loop
vertex 29.483282 -20.999590 259.640839
vertex -58.901344 -81.492592 216.910553
vertex 41.282444 -156.316757 175.273651
endloop
endfacet
facet normal 0.106713 0.438653 0.892298
outer loop
vertex 72.272957 22.213350 233.280075
vertex -31.534359 167.774719 174.136963
vertex 29.483282 -20.999590 259.640839
endloop
endfacet
facet normal 0.439283 0.448080 0.778624
outer loop
vertex 72.272957 22.213350 233.280075
vertex 174.236221 70.378601 148.036621
vertex 127.487671 156.498642 124.851044
endloop
endfacet
facet normal 0.577675 -0.076255 0.812697
outer loop
vertex 72.272957 22.213350 233.280075
vertex 29.483282 -20.999590 259.640839
vertex 203.325867 -60.876751 132.329834
endloop
endfacet
facet normal 0.440681 -0.446944 0.778487
outer loop
vertex 29.483282 -20.999590 259.640839
vertex 41.282444 -156.316757 175.273651
vertex 141.189056 -176.748077 106.989265
endloop
endfacet
facet normal 0.470704 -0.421883 0.774889
outer loop
vertex 29.483282 -20.999590 259.640839
vertex 141.189056 -176.748077 106.989265
vertex 203.325867 -60.876751 132.329834
endloop
endfacet
facet normal 0.627794 0.046154 0.777010
outer loop
vertex 72.272957 22.213350 233.280075
vertex 203.325867 -60.876751 132.329834
vertex 174.236221 70.378601 148.036621
endloop
endfacet
facet normal -0.541496 -0.652414 0.530224
outer loop
vertex -254.219742 -141.326324 2.713694
vertex -134.777130 -219.032120 29.082462
vertex -171.002213 -108.221123 128.434677
endloop
endfacet
facet normal -0.612171 -0.684516 -0.395834
outer loop
vertex -254.219742 -141.326324 2.713694
vertex -209.256439 -125.197945 -94.714287
vertex -95.087654 -243.997696 -65.840019
endloop
endfacet
facet normal -0.455143 -0.597793 -0.659915
outer loop
vertex -95.087654 -243.997696 -65.840019
vertex -209.256439 -125.197945 -94.714287
vertex -115.996773 -168.492294 -119.816620
endloop
endfacet
facet normal -0.544237 -0.838903 -0.006920
outer loop
vertex -134.777130 -219.032120 29.082462
vertex -254.219742 -141.326324 2.713694
vertex -95.087654 -243.997696 -65.840019
endloop
endfacet
facet normal -0.486558 -0.666007 0.565416
outer loop
vertex -171.002213 -108.221123 128.434677
vertex -134.777130 -219.032120 29.082462
vertex -63.985779 -151.435883 169.622635
endloop
endfacet
facet normal -0.293592 -0.795287 0.530398
outer loop
vertex -63.985779 -151.435883 169.622635
vertex -134.777130 -219.032120 29.082462
vertex 9.462724 -258.725311 49.407280
endloop
endfacet
facet normal -0.280330 -0.950670 0.132823
outer loop
vertex -134.777130 -219.032120 29.082462
vertex -95.087654 -243.997696 -65.840019
vertex 9.462724 -258.725311 49.407280
endloop
endfacet
facet normal -0.265302 -0.845712 -0.463018
outer loop
vertex -115.996773 -168.492294 -119.816620
vertex -24.129852 -170.973251 -167.923431
vertex 9.477177 -206.439865 -122.399246
endloop
endfacet
facet normal -0.199069 -0.605799 -0.770311
outer loop
vertex -95.087654 -243.997696 -65.840019
vertex -115.996773 -168.492294 -119.816620
vertex 9.477177 -206.439865 -122.399246
endloop
endfacet
facet normal -0.026493 -0.994325 -0.103033
outer loop
vertex 9.462724 -258.725311 49.407280
vertex -95.087654 -243.997696 -65.840019
vertex 112.705475 -252.568130 -36.560726
endloop
endfacet
facet normal 0.035770 -0.861734 -0.506098
outer loop
vertex 112.705475 -252.568130 -36.560726
vertex -95.087654 -243.997696 -65.840019
vertex 9.477177 -206.439865 -122.399246
endloop
endfacet
facet normal -0.069838 -0.765075 0.640143
outer loop
vertex 41.282444 -156.316757 175.273651
vertex -63.985779 -151.435883 169.622635
vertex 9.462724 -258.725311 49.407280
endloop
endfacet
facet normal 0.234510 -0.782233 0.577162
outer loop
vertex 41.282444 -156.316757 175.273651
vertex 9.462724 -258.725311 49.407280
vertex 141.189056 -176.748077 106.989265
endloop
endfacet
facet normal 0.298725 -0.908016 0.293719
outer loop
vertex 9.462724 -258.725311 49.407280
vertex 112.705475 -252.568130 -36.560726
vertex 165.741898 -212.393631 33.696152
endloop
endfacet
facet normal 0.291866 -0.638042 -0.712543
outer loop
vertex 9.477177 -206.439865 -122.399246
vertex -24.129852 -170.973251 -167.923431
vertex 170.214905 -108.347275 -144.395538
endloop
endfacet
facet normal 0.292296 -0.817847 0.495671
outer loop
vertex 141.189056 -176.748077 106.989265
vertex 9.462724 -258.725311 49.407280
vertex 165.741898 -212.393631 33.696152
endloop
endfacet
facet normal 0.297245 -0.644950 -0.704049
outer loop
vertex 9.477177 -206.439865 -122.399246
vertex 170.214905 -108.347275 -144.395538
vertex 112.705475 -252.568130 -36.560726
endloop
endfacet
facet normal 0.637653 -0.769205 -0.041510
outer loop
vertex 112.705475 -252.568130 -36.560726
vertex 185.709351 -192.014526 -37.211796
vertex 165.741898 -212.393631 33.696152
endloop
endfacet
facet normal -0.831583 0.503530 0.234367
outer loop
vertex -165.000916 239.357346 -15.088984
vertex -233.239059 137.244232 -37.825611
vertex -198.763184 150.565720 55.881264
endloop
endfacet
facet normal -0.581392 0.519489 -0.626190
outer loop
vertex -165.000916 239.357346 -15.088984
vertex -100.141830 129.319901 -166.595428
vertex -218.061768 73.613503 -103.325691
endloop
endfacet
facet normal -0.567305 0.521093 -0.637673
outer loop
vertex -233.239059 137.244232 -37.825611
vertex -165.000916 239.357346 -15.088984
vertex -218.061768 73.613503 -103.325691
endloop
endfacet
facet normal -0.661212 0.344292 0.666530
outer loop
vertex -136.375580 145.751785 120.257629
vertex -198.763184 150.565720 55.881264
vertex -144.790680 2.396741 185.958618
endloop
endfacet
facet normal -0.876939 0.400474 0.265704
outer loop
vertex -198.763184 150.565720 55.881264
vertex -233.239059 137.244232 -37.825611
vertex -273.534576 -0.256979 36.426285
endloop
endfacet
facet normal -0.942030 0.103761 -0.319081
outer loop
vertex -273.534576 -0.256979 36.426285
vertex -233.239059 137.244232 -37.825611
vertex -218.061768 73.613503 -103.325691
endloop
endfacet
facet normal -0.729671 0.281346 0.623237
outer loop
vertex -144.790680 2.396741 185.958618
vertex -198.763184 150.565720 55.881264
vertex -273.534576 -0.256979 36.426285
endloop
endfacet
facet normal -0.893327 0.431184 -0.126679
outer loop
vertex -218.061768 73.613503 -103.325691
vertex -281.503632 -33.244835 -19.659525
vertex -273.534576 -0.256979 36.426285
endloop
endfacet
facet normal -0.746798 -0.158871 0.645796
outer loop
vertex -144.790680 2.396741 185.958618
vertex -273.534576 -0.256979 36.426285
vertex -171.002213 -108.221123 128.434677
endloop
endfacet
facet normal -0.774098 -0.061576 -0.630064
outer loop
vertex -218.061768 73.613503 -103.325691
vertex -155.598312 17.504248 -174.585022
vertex -209.256439 -125.197945 -94.714287
endloop
endfacet
facet normal -0.950605 -0.188998 0.246231
outer loop
vertex -281.503632 -33.244835 -19.659525
vertex -254.219742 -141.326324 2.713694
vertex -273.534576 -0.256979 36.426285
endloop
endfacet
facet normal -0.755783 -0.061710 -0.651907
outer loop
vertex -281.503632 -33.244835 -19.659525
vertex -218.061768 73.613503 -103.325691
vertex -209.256439 -125.197945 -94.714287
endloop
endfacet
facet normal -0.844724 -0.304369 -0.440228
outer loop
vertex -254.219742 -141.326324 2.713694
vertex -281.503632 -33.244835 -19.659525
vertex -209.256439 -125.197945 -94.714287
endloop
endfacet
facet normal -0.777563 -0.244870 0.579167
outer loop
vertex -171.002213 -108.221123 128.434677
vertex -273.534576 -0.256979 36.426285
vertex -254.219742 -141.326324 2.713694
endloop
endfacet
facet normal 0.694976 0.718275 -0.032992
outer loop
vertex 231.138824 136.817505 40.116180
vertex 207.854507 155.440857 -44.915562
vertex 124.333603 239.372498 23.008812
endloop
endfacet
facet normal 0.547978 0.657046 0.517698
outer loop
vertex 231.138824 136.817505 40.116180
vertex 124.333603 239.372498 23.008812
vertex 127.487671 156.498642 124.851044
endloop
endfacet
facet normal 0.439587 0.745715 -0.500672
outer loop
vertex 207.854507 155.440857 -44.915562
vertex 133.144424 114.192635 -171.946838
vertex 56.730530 186.049606 -132.012039
endloop
endfacet
facet normal 0.420591 0.785678 -0.453667
outer loop
vertex 124.333603 239.372498 23.008812
vertex 207.854507 155.440857 -44.915562
vertex 56.730530 186.049606 -132.012039
endloop
endfacet
facet normal 0.245701 0.755575 0.607238
outer loop
vertex 127.487671 156.498642 124.851044
vertex 124.333603 239.372498 23.008812
vertex 23.324520 266.158417 30.549902
endloop
endfacet
facet normal 0.207303 0.893735 -0.397823
outer loop
vertex 124.333603 239.372498 23.008812
vertex 56.730530 186.049606 -132.012039
vertex 23.324520 266.158417 30.549902
endloop
endfacet
facet normal 0.242476 0.754631 0.609702
outer loop
vertex -31.534359 167.774719 174.136963
vertex 127.487671 156.498642 124.851044
vertex 23.324520 266.158417 30.549902
endloop
endfacet
facet normal 0.159773 0.898101 -0.409741
outer loop
vertex 23.324520 266.158417 30.549902
vertex 56.730530 186.049606 -132.012039
vertex -78.022636 276.906097 14.588408
endloop
endfacet
facet normal 0.015747 0.699888 -0.714079
outer loop
vertex -65.833107 199.712006 -121.323906
vertex 56.730530 186.049606 -132.012039
vertex -14.057640 105.394348 -212.625412
endloop
endfacet
facet normal -0.001451 0.825190 0.564853
outer loop
vertex -31.534359 167.774719 174.136963
vertex 23.324520 266.158417 30.549902
vertex -78.022636 276.906097 14.588408
endloop
endfacet
facet normal 0.054335 0.870336 -0.489452
outer loop
vertex -78.022636 276.906097 14.588408
vertex 56.730530 186.049606 -132.012039
vertex -65.833107 199.712006 -121.323906
endloop
endfacet
facet normal -0.195111 0.845207 -0.497551
outer loop
vertex -78.022636 276.906097 14.588408
vertex -65.833107 199.712006 -121.323906
vertex -165.000916 239.357346 -15.088984
endloop
endfacet
facet normal -0.444850 0.673528 0.590312
outer loop
vertex -136.375580 145.751785 120.257629
vertex -31.534359 167.774719 174.136963
vertex -78.022636 276.906097 14.588408
endloop
endfacet
facet normal -0.438430 0.627506 -0.643440
outer loop
vertex -65.833107 199.712006 -121.323906
vertex -100.141830 129.319901 -166.595428
vertex -165.000916 239.357346 -15.088984
endloop
endfacet
facet normal -0.481341 0.651619 0.586262
outer loop
vertex -198.763184 150.565720 55.881264
vertex -78.022636 276.906097 14.588408
vertex -165.000916 239.357346 -15.088984
endloop
endfacet
facet normal -0.510383 0.665690 0.544395
outer loop
vertex -136.375580 145.751785 120.257629
vertex -78.022636 276.906097 14.588408
vertex -198.763184 150.565720 55.881264
endloop
endfacet
facet normal 0.521237 -0.634543 -0.570672
outer loop
vertex 185.709351 -192.014526 -37.211796
vertex 112.705475 -252.568130 -36.560726
vertex 170.214905 -108.347275 -144.395538
endloop
endfacet
facet normal 0.723628 -0.493561 0.482452
outer loop
vertex 141.189056 -176.748077 106.989265
vertex 165.741898 -212.393631 33.696152
vertex 203.325867 -60.876751 132.329834
endloop
endfacet
facet normal 0.834923 -0.544732 0.078554
outer loop
vertex 165.741898 -212.393631 33.696152
vertex 185.709351 -192.014526 -37.211796
vertex 267.121155 -64.831917 -20.562410
endloop
endfacet
facet normal 0.826166 -0.436692 0.356020
outer loop
vertex 203.325867 -60.876751 132.329834
vertex 165.741898 -212.393631 33.696152
vertex 267.121155 -64.831917 -20.562410
endloop
endfacet
facet normal 0.776317 -0.437532 -0.453760
outer loop
vertex 185.709351 -192.014526 -37.211796
vertex 170.214905 -108.347275 -144.395538
vertex 267.121155 -64.831917 -20.562410
endloop
endfacet
facet normal 0.853537 -0.371088 0.365744
outer loop
vertex 203.325867 -60.876751 132.329834
vertex 267.121155 -64.831917 -20.562410
vertex 293.490753 32.579124 16.733164
endloop
endfacet
facet normal 0.804317 -0.176930 -0.567248
outer loop
vertex 267.121155 -64.831917 -20.562410
vertex 170.214905 -108.347275 -144.395538
vertex 218.169830 17.227131 -115.566780
endloop
endfacet
facet normal 0.672849 -0.088331 -0.734487
outer loop
vertex 170.214905 -108.347275 -144.395538
vertex 92.239342 2.493693 -229.157394
vertex 218.169830 17.227131 -115.566780
endloop
endfacet
facet normal 0.873142 -0.041460 -0.485700
outer loop
vertex 267.121155 -64.831917 -20.562410
vertex 218.169830 17.227131 -115.566780
vertex 243.640472 71.962128 -74.450539
endloop
endfacet
facet normal 0.868072 -0.045729 -0.494327
outer loop
vertex 293.490753 32.579124 16.733164
vertex 267.121155 -64.831917 -20.562410
vertex 243.640472 71.962128 -74.450539
endloop
endfacet
facet normal 0.749839 0.087709 0.655781
outer loop
vertex 174.236221 70.378601 148.036621
vertex 203.325867 -60.876751 132.329834
vertex 293.490753 32.579124 16.733164
endloop
endfacet
facet normal 0.690190 0.201011 -0.695149
outer loop
vertex 243.640472 71.962128 -74.450539
vertex 218.169830 17.227131 -115.566780
vertex 133.144424 114.192635 -171.946838
endloop
endfacet
facet normal 0.848318 0.457790 -0.266054
outer loop
vertex 293.490753 32.579124 16.733164
vertex 243.640472 71.962128 -74.450539
vertex 207.854507 155.440857 -44.915562
endloop
endfacet
facet normal 0.745993 0.314554 0.586984
outer loop
vertex 174.236221 70.378601 148.036621
vertex 293.490753 32.579124 16.733164
vertex 231.138824 136.817505 40.116180
endloop
endfacet
facet normal 0.841019 0.528753 -0.114491
outer loop
vertex 231.138824 136.817505 40.116180
vertex 293.490753 32.579124 16.733164
vertex 207.854507 155.440857 -44.915562
endloop
endfacet
facet normal 0.675309 0.485825 -0.554917
outer loop
vertex 207.854507 155.440857 -44.915562
vertex 243.640472 71.962128 -74.450539
vertex 133.144424 114.192635 -171.946838
endloop
endfacet
facet normal 0.604122 0.495880 0.623810
outer loop
vertex 127.487671 156.498642 124.851044
vertex 174.236221 70.378601 148.036621
vertex 231.138824 136.817505 40.116180
endloop
endfacet
facet normal -0.563170 0.333339 -0.756125
outer loop
vertex -218.061768 73.613503 -103.325691
vertex -100.141830 129.319901 -166.595428
vertex -155.598312 17.504248 -174.585022
endloop
endfacet
facet normal -0.525181 -0.256648 -0.811367
outer loop
vertex -209.256439 -125.197945 -94.714287
vertex -155.598312 17.504248 -174.585022
vertex -46.006107 -88.156906 -212.099518
endloop
endfacet
facet normal -0.422509 -0.455942 -0.783328
outer loop
vertex -115.996773 -168.492294 -119.816620
vertex -209.256439 -125.197945 -94.714287
vertex -24.129852 -170.973251 -167.923431
endloop
endfacet
facet normal -0.422405 -0.510940 -0.748675
outer loop
vertex -209.256439 -125.197945 -94.714287
vertex -46.006107 -88.156906 -212.099518
vertex -24.129852 -170.973251 -167.923431
endloop
endfacet
facet normal -0.506856 -0.230830 -0.830551
outer loop
vertex -155.598312 17.504248 -174.585022
vertex -53.320690 9.661427 -234.821777
vertex -46.006107 -88.156906 -212.099518
endloop
endfacet
facet normal -0.468640 0.292001 -0.833734
outer loop
vertex -155.598312 17.504248 -174.585022
vertex -100.141830 129.319901 -166.595428
vertex -53.320690 9.661427 -234.821777
endloop
endfacet
facet normal -0.238223 0.604822 -0.759895
outer loop
vertex -100.141830 129.319901 -166.595428
vertex -65.833107 199.712006 -121.323906
vertex -14.057640 105.394348 -212.625412
endloop
endfacet
facet normal -0.364378 0.349570 -0.863151
outer loop
vertex -53.320690 9.661427 -234.821777
vertex -100.141830 129.319901 -166.595428
vertex -14.057640 105.394348 -212.625412
endloop
endfacet
facet normal -0.001936 -0.226403 -0.974032
outer loop
vertex -46.006107 -88.156906 -212.099518
vertex -53.320690 9.661427 -234.821777
vertex 55.455853 -64.958214 -217.693451
endloop
endfacet
facet normal 0.048210 0.206797 -0.977195
outer loop
vertex -14.057640 105.394348 -212.625412
vertex 92.239342 2.493693 -229.157394
vertex -53.320690 9.661427 -234.821777
endloop
endfacet
facet normal 0.225642 0.377385 -0.898146
outer loop
vertex 92.239342 2.493693 -229.157394
vertex -14.057640 105.394348 -212.625412
vertex 133.144424 114.192635 -171.946838
endloop
endfacet
facet normal 0.055902 -0.458378 -0.886998
outer loop
vertex -46.006107 -88.156906 -212.099518
vertex 55.455853 -64.958214 -217.693451
vertex -24.129852 -170.973251 -167.923431
endloop
endfacet
facet normal 0.029232 -0.182956 -0.982687
outer loop
vertex 55.455853 -64.958214 -217.693451
vertex -53.320690 9.661427 -234.821777
vertex 92.239342 2.493693 -229.157394
endloop
endfacet
facet normal 0.175823 0.614423 -0.769136
outer loop
vertex -14.057640 105.394348 -212.625412
vertex 56.730530 186.049606 -132.012039
vertex 133.144424 114.192635 -171.946838
endloop
endfacet
facet normal 0.277545 -0.571048 -0.772575
outer loop
vertex -24.129852 -170.973251 -167.923431
vertex 55.455853 -64.958214 -217.693451
vertex 170.214905 -108.347275 -144.395538
endloop
endfacet
facet normal 0.400876 -0.361666 -0.841722
outer loop
vertex 55.455853 -64.958214 -217.693451
vertex 92.239342 2.493693 -229.157394
vertex 170.214905 -108.347275 -144.395538
endloop
endfacet
facet normal 0.653915 0.141223 -0.743270
outer loop
vertex 92.239342 2.493693 -229.157394
vertex 133.144424 114.192635 -171.946838
vertex 218.169830 17.227131 -115.566780
endloop
endfacet
endsolid Exported from Blender-3.6.1
