solid Exported from Blender-3.6.1
facet normal 0.000000 -0.052338 -0.998629
outer loop
vertex -0.250000 -0.130885 -4.998287
vertex 0.250000 -0.130885 -4.998287
vertex 0.250000 -0.392296 -4.984586
endloop
endfacet
facet normal 0.000000 -0.052338 -0.998629
outer loop
vertex -0.250000 -0.130885 -4.998287
vertex 0.250000 -0.392296 -4.984586
vertex -0.250000 -0.392296 -4.984586
endloop
endfacet
facet normal 0.000000 -0.104525 -0.994522
outer loop
vertex -0.250000 -0.392296 -4.984586
vertex 0.250000 -0.392296 -4.984586
vertex 0.250000 -0.652632 -4.957225
endloop
endfacet
facet normal 0.000000 -0.104525 -0.994522
outer loop
vertex -0.250000 -0.392296 -4.984586
vertex 0.250000 -0.652632 -4.957225
vertex -0.250000 -0.652632 -4.957225
endloop
endfacet
facet normal 0.000000 -0.156435 -0.987688
outer loop
vertex -0.250000 -0.652632 -4.957225
vertex 0.250000 -0.652632 -4.957225
vertex 0.250000 -0.911178 -4.916275
endloop
endfacet
facet normal 0.000000 -0.156435 -0.987688
outer loop
vertex -0.250000 -0.652632 -4.957225
vertex 0.250000 -0.911178 -4.916275
vertex -0.250000 -0.911178 -4.916275
endloop
endfacet
facet normal 0.000000 -0.207915 -0.978147
outer loop
vertex -0.250000 -0.911178 -4.916275
vertex 0.250000 -0.911178 -4.916275
vertex 0.250000 -1.167227 -4.861849
endloop
endfacet
facet normal 0.000000 -0.207915 -0.978147
outer loop
vertex -0.250000 -0.911178 -4.916275
vertex 0.250000 -1.167227 -4.861849
vertex -0.250000 -1.167227 -4.861849
endloop
endfacet
facet normal 0.000000 -0.258819 -0.965926
outer loop
vertex -0.250000 -1.167227 -4.861849
vertex 0.250000 -1.167227 -4.861849
vertex 0.250000 -1.420077 -4.794098
endloop
endfacet
facet normal 0.000000 -0.258819 -0.965926
outer loop
vertex -0.250000 -1.167227 -4.861849
vertex 0.250000 -1.420077 -4.794098
vertex -0.250000 -1.420077 -4.794098
endloop
endfacet
facet normal 0.000000 -0.309016 -0.951057
outer loop
vertex -0.250000 -1.420077 -4.794098
vertex 0.250000 -1.420077 -4.794098
vertex 0.250000 -1.669034 -4.713208
endloop
endfacet
facet normal 0.000000 -0.309016 -0.951057
outer loop
vertex -0.250000 -1.420077 -4.794098
vertex 0.250000 -1.669034 -4.713208
vertex -0.250000 -1.669034 -4.713208
endloop
endfacet
facet normal 0.000000 -0.358369 -0.933580
outer loop
vertex -0.250000 -1.669034 -4.713208
vertex 0.250000 -1.669034 -4.713208
vertex 0.250000 -1.913417 -4.619398
endloop
endfacet
facet normal 0.000000 -0.358369 -0.933580
outer loop
vertex -0.250000 -1.669034 -4.713208
vertex 0.250000 -1.913417 -4.619398
vertex -0.250000 -1.913417 -4.619398
endloop
endfacet
facet normal 0.000000 -0.406736 -0.913546
outer loop
vertex -0.250000 -1.913417 -4.619398
vertex 0.250000 -1.913417 -4.619398
vertex 0.250000 -2.152556 -4.512927
endloop
endfacet
facet normal 0.000000 -0.406735 -0.913546
outer loop
vertex -0.250000 -1.913417 -4.619398
vertex 0.250000 -2.152556 -4.512927
vertex -0.250000 -2.152556 -4.512927
endloop
endfacet
facet normal 0.000000 -0.453990 -0.891007
outer loop
vertex -0.250000 -2.152556 -4.512927
vertex 0.250000 -2.152556 -4.512927
vertex 0.250000 -2.385794 -4.394086
endloop
endfacet
facet normal 0.000000 -0.453990 -0.891007
outer loop
vertex -0.250000 -2.152556 -4.512927
vertex 0.250000 -2.385794 -4.394086
vertex -0.250000 -2.385794 -4.394086
endloop
endfacet
facet normal 0.000000 -0.500003 -0.866023
outer loop
vertex -0.250000 -2.385794 -4.394086
vertex 0.250000 -2.385794 -4.394086
vertex 0.250000 -2.612493 -4.263200
endloop
endfacet
facet normal 0.000000 -0.500003 -0.866023
outer loop
vertex -0.250000 -2.385794 -4.394086
vertex 0.250000 -2.612493 -4.263200
vertex -0.250000 -2.612493 -4.263200
endloop
endfacet
facet normal 0.000000 -0.544634 -0.838674
outer loop
vertex -0.250000 -2.612493 -4.263200
vertex 0.250000 -2.612493 -4.263200
vertex 0.250000 -2.832032 -4.120632
endloop
endfacet
facet normal 0.000000 -0.544634 -0.838674
outer loop
vertex -0.250000 -2.612493 -4.263200
vertex 0.250000 -2.832032 -4.120632
vertex -0.250000 -2.832032 -4.120632
endloop
endfacet
facet normal 0.000000 -0.587789 -0.809014
outer loop
vertex -0.250000 -2.832032 -4.120632
vertex 0.250000 -2.832032 -4.120632
vertex 0.250000 -3.043807 -3.966767
endloop
endfacet
facet normal 0.000000 -0.587789 -0.809014
outer loop
vertex -0.250000 -2.832032 -4.120632
vertex 0.250000 -3.043807 -3.966767
vertex -0.250000 -3.043807 -3.966767
endloop
endfacet
facet normal 0.000000 -0.629321 -0.777145
outer loop
vertex -0.250000 -3.043807 -3.966767
vertex 0.250000 -3.043807 -3.966767
vertex 0.250000 -3.247240 -3.802029
endloop
endfacet
facet normal 0.000000 -0.629321 -0.777145
outer loop
vertex -0.250000 -3.043807 -3.966767
vertex 0.250000 -3.247240 -3.802029
vertex -0.250000 -3.247240 -3.802029
endloop
endfacet
facet normal 0.000000 -0.669129 -0.743146
outer loop
vertex -0.250000 -3.247240 -3.802029
vertex 0.250000 -3.247240 -3.802029
vertex 0.250000 -3.441773 -3.626872
endloop
endfacet
facet normal 0.000000 -0.669130 -0.743146
outer loop
vertex -0.250000 -3.247240 -3.802029
vertex 0.250000 -3.441773 -3.626872
vertex -0.250000 -3.441773 -3.626872
endloop
endfacet
facet normal 0.000000 -0.707106 -0.707107
outer loop
vertex -0.250000 -3.441773 -3.626872
vertex 0.250000 -3.441773 -3.626872
vertex 0.250000 -3.626872 -3.441773
endloop
endfacet
facet normal 0.000000 -0.707106 -0.707107
outer loop
vertex -0.250000 -3.441773 -3.626872
vertex 0.250000 -3.626872 -3.441773
vertex -0.250000 -3.626872 -3.441773
endloop
endfacet
facet normal 0.000000 -0.743146 -0.669129
outer loop
vertex -0.250000 -3.626872 -3.441773
vertex 0.250000 -3.626872 -3.441773
vertex 0.250000 -3.802030 -3.247240
endloop
endfacet
facet normal 0.000000 -0.743145 -0.669130
outer loop
vertex -0.250000 -3.626872 -3.441773
vertex 0.250000 -3.802030 -3.247240
vertex -0.250000 -3.802030 -3.247240
endloop
endfacet
facet normal 0.000000 -0.777145 -0.629322
outer loop
vertex -0.250000 -3.802030 -3.247240
vertex 0.250000 -3.802030 -3.247240
vertex 0.250000 -3.966767 -3.043807
endloop
endfacet
facet normal 0.000000 -0.777146 -0.629321
outer loop
vertex -0.250000 -3.802030 -3.247240
vertex 0.250000 -3.966767 -3.043807
vertex -0.250000 -3.966767 -3.043807
endloop
endfacet
facet normal 0.000000 -0.809018 -0.587784
outer loop
vertex -0.250000 -3.966767 -3.043807
vertex 0.250000 -3.966767 -3.043807
vertex 0.250000 -4.120631 -2.832031
endloop
endfacet
facet normal 0.000000 -0.809018 -0.587784
outer loop
vertex -0.250000 -3.966767 -3.043807
vertex 0.250000 -4.120631 -2.832031
vertex -0.250000 -4.120631 -2.832031
endloop
endfacet
facet normal 0.000000 -0.838669 -0.544641
outer loop
vertex -0.250000 -4.120631 -2.832031
vertex 0.250000 -4.120631 -2.832031
vertex 0.250000 -4.263201 -2.612493
endloop
endfacet
facet normal 0.000000 -0.838669 -0.544641
outer loop
vertex -0.250000 -4.120631 -2.832031
vertex 0.250000 -4.263201 -2.612493
vertex -0.250000 -4.263201 -2.612493
endloop
endfacet
facet normal 0.000000 -0.866026 -0.499999
outer loop
vertex -0.250000 -4.263201 -2.612493
vertex 0.250000 -4.263201 -2.612493
vertex 0.250000 -4.394085 -2.385794
endloop
endfacet
facet normal 0.000000 -0.866026 -0.499999
outer loop
vertex -0.250000 -4.263201 -2.612493
vertex 0.250000 -4.394085 -2.385794
vertex -0.250000 -4.394085 -2.385794
endloop
endfacet
facet normal 0.000000 -0.891004 -0.453995
outer loop
vertex -0.250000 -4.394085 -2.385794
vertex 0.250000 -4.394085 -2.385794
vertex 0.250000 -4.512927 -2.152556
endloop
endfacet
facet normal 0.000000 -0.891006 -0.453992
outer loop
vertex -0.250000 -4.394085 -2.385794
vertex 0.250000 -4.512927 -2.152556
vertex -0.250000 -4.512927 -2.152556
endloop
endfacet
facet normal 0.000000 -0.913548 -0.406732
outer loop
vertex -0.250000 -4.512927 -2.152556
vertex 0.250000 -4.512927 -2.152556
vertex 0.250000 -4.619398 -1.913417
endloop
endfacet
facet normal 0.000000 -0.913546 -0.406735
outer loop
vertex -0.250000 -4.512927 -2.152556
vertex 0.250000 -4.619398 -1.913417
vertex -0.250000 -4.619398 -1.913417
endloop
endfacet
facet normal 0.000000 -0.933580 -0.358368
outer loop
vertex -0.250000 -4.619398 -1.913417
vertex 0.250000 -4.619398 -1.913417
vertex 0.250000 -4.713208 -1.669034
endloop
endfacet
facet normal 0.000000 -0.933580 -0.358368
outer loop
vertex -0.250000 -4.619398 -1.913417
vertex 0.250000 -4.713208 -1.669034
vertex -0.250000 -4.713208 -1.669034
endloop
endfacet
facet normal 0.000000 -0.951056 -0.309019
outer loop
vertex -0.250000 -4.713208 -1.669034
vertex 0.250000 -4.713208 -1.669034
vertex 0.250000 -4.794099 -1.420077
endloop
endfacet
facet normal 0.000000 -0.951056 -0.309019
outer loop
vertex -0.250000 -4.713208 -1.669034
vertex 0.250000 -4.794099 -1.420077
vertex -0.250000 -4.794099 -1.420077
endloop
endfacet
facet normal 0.000000 -0.965927 -0.258815
outer loop
vertex -0.250000 -4.794099 -1.420077
vertex 0.250000 -4.794099 -1.420077
vertex 0.250000 -4.861849 -1.167227
endloop
endfacet
facet normal 0.000000 -0.965927 -0.258815
outer loop
vertex -0.250000 -4.794099 -1.420077
vertex 0.250000 -4.861849 -1.167227
vertex -0.250000 -4.861849 -1.167227
endloop
endfacet
facet normal 0.000000 -0.978147 -0.207913
outer loop
vertex -0.250000 -4.861849 -1.167227
vertex 0.250000 -4.861849 -1.167227
vertex 0.250000 -4.916275 -0.911177
endloop
endfacet
facet normal 0.000000 -0.978147 -0.207913
outer loop
vertex -0.250000 -4.861849 -1.167227
vertex 0.250000 -4.916275 -0.911177
vertex -0.250000 -4.916275 -0.911177
endloop
endfacet
facet normal 0.000000 -0.987688 -0.156435
outer loop
vertex -0.250000 -4.916275 -0.911177
vertex 0.250000 -4.916275 -0.911177
vertex 0.250000 -4.957225 -0.652631
endloop
endfacet
facet normal 0.000000 -0.987688 -0.156438
outer loop
vertex -0.250000 -4.916275 -0.911177
vertex 0.250000 -4.957225 -0.652631
vertex -0.250000 -4.957225 -0.652631
endloop
endfacet
facet normal 0.000000 -0.994522 -0.104530
outer loop
vertex -0.250000 -4.957225 -0.652631
vertex 0.250000 -4.957225 -0.652631
vertex 0.250000 -4.984588 -0.392295
endloop
endfacet
facet normal 0.000000 -0.994522 -0.104530
outer loop
vertex -0.250000 -4.957225 -0.652631
vertex 0.250000 -4.984588 -0.392295
vertex -0.250000 -4.984588 -0.392295
endloop
endfacet
facet normal 0.000000 -0.998630 -0.052331
outer loop
vertex -0.250000 -4.984588 -0.392295
vertex 0.250000 -4.984588 -0.392295
vertex 0.250000 -4.998286 -0.130885
endloop
endfacet
facet normal 0.000000 -0.998630 -0.052327
outer loop
vertex -0.250000 -4.984588 -0.392295
vertex 0.250000 -4.998286 -0.130885
vertex -0.250000 -4.998286 -0.130885
endloop
endfacet
facet normal 0.000000 -1.000000 -0.000004
outer loop
vertex -0.250000 -4.998286 -0.130885
vertex 0.250000 -4.998286 -0.130885
vertex 0.250000 -4.998287 0.130885
endloop
endfacet
facet normal 0.000000 -1.000000 -0.000004
outer loop
vertex -0.250000 -4.998286 -0.130885
vertex 0.250000 -4.998287 0.130885
vertex -0.250000 -4.998287 0.130885
endloop
endfacet
facet normal 0.000000 -0.998629 0.052338
outer loop
vertex -0.250000 -4.998287 0.130885
vertex 0.250000 -4.998287 0.130885
vertex 0.250000 -4.984586 0.392296
endloop
endfacet
facet normal 0.000000 -0.998629 0.052338
outer loop
vertex -0.250000 -4.998287 0.130885
vertex 0.250000 -4.984586 0.392296
vertex -0.250000 -4.984586 0.392296
endloop
endfacet
facet normal 0.000000 -0.994522 0.104526
outer loop
vertex -0.250000 -4.984586 0.392296
vertex 0.250000 -4.984586 0.392296
vertex 0.250000 -4.957225 0.652632
endloop
endfacet
facet normal 0.000000 -0.994522 0.104523
outer loop
vertex -0.250000 -4.984586 0.392296
vertex 0.250000 -4.957225 0.652632
vertex -0.250000 -4.957225 0.652632
endloop
endfacet
facet normal 0.000000 -0.987688 0.156435
outer loop
vertex -0.250000 -4.957225 0.652632
vertex 0.250000 -4.957225 0.652632
vertex 0.250000 -4.916275 0.911178
endloop
endfacet
facet normal 0.000000 -0.987688 0.156435
outer loop
vertex -0.250000 -4.957225 0.652632
vertex 0.250000 -4.916275 0.911178
vertex -0.250000 -4.916275 0.911178
endloop
endfacet
facet normal 0.000000 -0.978147 0.207916
outer loop
vertex -0.250000 -4.916275 0.911178
vertex 0.250000 -4.916275 0.911178
vertex 0.250000 -4.861849 1.167227
endloop
endfacet
facet normal 0.000000 -0.978147 0.207913
outer loop
vertex -0.250000 -4.916275 0.911178
vertex 0.250000 -4.861849 1.167227
vertex -0.250000 -4.861849 1.167227
endloop
endfacet
facet normal 0.000000 -0.965926 0.258819
outer loop
vertex -0.250000 -4.861849 1.167227
vertex 0.250000 -4.861849 1.167227
vertex 0.250000 -4.794098 1.420077
endloop
endfacet
facet normal 0.000000 -0.965926 0.258819
outer loop
vertex -0.250000 -4.861849 1.167227
vertex 0.250000 -4.794098 1.420077
vertex -0.250000 -4.794098 1.420077
endloop
endfacet
facet normal 0.000000 -0.951057 0.309016
outer loop
vertex -0.250000 -4.794098 1.420077
vertex 0.250000 -4.794098 1.420077
vertex 0.250000 -4.713208 1.669034
endloop
endfacet
facet normal 0.000000 -0.951057 0.309016
outer loop
vertex -0.250000 -4.794098 1.420077
vertex 0.250000 -4.713208 1.669034
vertex -0.250000 -4.713208 1.669034
endloop
endfacet
facet normal 0.000000 -0.933580 0.358369
outer loop
vertex -0.250000 -4.713208 1.669034
vertex 0.250000 -4.713208 1.669034
vertex 0.250000 -4.619398 1.913417
endloop
endfacet
facet normal 0.000000 -0.933580 0.358369
outer loop
vertex -0.250000 -4.713208 1.669034
vertex 0.250000 -4.619398 1.913417
vertex -0.250000 -4.619398 1.913417
endloop
endfacet
facet normal 0.000000 -0.913546 0.406735
outer loop
vertex -0.250000 -4.619398 1.913417
vertex 0.250000 -4.619398 1.913417
vertex 0.250000 -4.512927 2.152556
endloop
endfacet
facet normal 0.000000 -0.913546 0.406735
outer loop
vertex -0.250000 -4.619398 1.913417
vertex 0.250000 -4.512927 2.152556
vertex -0.250000 -4.512927 2.152556
endloop
endfacet
facet normal 0.000000 -0.891007 0.453989
outer loop
vertex -0.250000 -4.512927 2.152556
vertex 0.250000 -4.512927 2.152556
vertex 0.250000 -4.394086 2.385794
endloop
endfacet
facet normal 0.000000 -0.891006 0.453992
outer loop
vertex -0.250000 -4.512927 2.152556
vertex 0.250000 -4.394086 2.385794
vertex -0.250000 -4.394086 2.385794
endloop
endfacet
facet normal 0.000000 -0.866023 0.500005
outer loop
vertex -0.250000 -4.394086 2.385794
vertex 0.250000 -4.394086 2.385794
vertex 0.250000 -4.263200 2.612493
endloop
endfacet
facet normal 0.000000 -0.866024 0.500002
outer loop
vertex -0.250000 -4.394086 2.385794
vertex 0.250000 -4.263200 2.612493
vertex -0.250000 -4.263200 2.612493
endloop
endfacet
facet normal 0.000000 -0.838674 0.544634
outer loop
vertex -0.250000 -4.263200 2.612493
vertex 0.250000 -4.263200 2.612493
vertex 0.250000 -4.120632 2.832032
endloop
endfacet
facet normal 0.000000 -0.838674 0.544634
outer loop
vertex -0.250000 -4.263200 2.612493
vertex 0.250000 -4.120632 2.832032
vertex -0.250000 -4.120632 2.832032
endloop
endfacet
facet normal 0.000000 -0.809014 0.587789
outer loop
vertex -0.250000 -4.120632 2.832032
vertex 0.250000 -4.120632 2.832032
vertex 0.250000 -3.966767 3.043807
endloop
endfacet
facet normal 0.000000 -0.809013 0.587790
outer loop
vertex -0.250000 -4.120632 2.832032
vertex 0.250000 -3.966767 3.043807
vertex -0.250000 -3.966767 3.043807
endloop
endfacet
facet normal 0.000000 -0.777146 0.629320
outer loop
vertex -0.250000 -3.966767 3.043807
vertex 0.250000 -3.966767 3.043807
vertex 0.250000 -3.802029 3.247240
endloop
endfacet
facet normal 0.000000 -0.777145 0.629322
outer loop
vertex -0.250000 -3.966767 3.043807
vertex 0.250000 -3.802029 3.247240
vertex -0.250000 -3.802029 3.247240
endloop
endfacet
facet normal 0.000000 -0.743146 0.669130
outer loop
vertex -0.250000 -3.802029 3.247240
vertex 0.250000 -3.802029 3.247240
vertex 0.250000 -3.626872 3.441773
endloop
endfacet
facet normal 0.000000 -0.743146 0.669129
outer loop
vertex -0.250000 -3.802029 3.247240
vertex 0.250000 -3.626872 3.441773
vertex -0.250000 -3.626872 3.441773
endloop
endfacet
facet normal 0.000000 -0.707107 0.707107
outer loop
vertex -0.250000 -3.626872 3.441773
vertex 0.250000 -3.626872 3.441773
vertex 0.250000 -3.441773 3.626872
endloop
endfacet
facet normal 0.000000 -0.707108 0.707106
outer loop
vertex -0.250000 -3.626872 3.441773
vertex 0.250000 -3.441773 3.626872
vertex -0.250000 -3.441773 3.626872
endloop
endfacet
facet normal 0.000000 -0.669130 0.743146
outer loop
vertex -0.250000 -3.441773 3.626872
vertex 0.250000 -3.441773 3.626872
vertex 0.250000 -3.247240 3.802030
endloop
endfacet
facet normal 0.000000 -0.669130 0.743146
outer loop
vertex -0.250000 -3.441773 3.626872
vertex 0.250000 -3.247240 3.802030
vertex -0.250000 -3.247240 3.802030
endloop
endfacet
facet normal 0.000000 -0.629321 0.777146
outer loop
vertex -0.250000 -3.247240 3.802030
vertex 0.250000 -3.247240 3.802030
vertex 0.250000 -3.043807 3.966767
endloop
endfacet
facet normal 0.000000 -0.629322 0.777145
outer loop
vertex -0.250000 -3.247240 3.802030
vertex 0.250000 -3.043807 3.966767
vertex -0.250000 -3.043807 3.966767
endloop
endfacet
facet normal 0.000000 -0.587784 0.809018
outer loop
vertex -0.250000 -3.043807 3.966767
vertex 0.250000 -3.043807 3.966767
vertex 0.250000 -2.832031 4.120631
endloop
endfacet
facet normal 0.000000 -0.587784 0.809018
outer loop
vertex -0.250000 -3.043807 3.966767
vertex 0.250000 -2.832031 4.120631
vertex -0.250000 -2.832031 4.120631
endloop
endfacet
facet normal 0.000000 -0.544641 0.838669
outer loop
vertex -0.250000 -2.832031 4.120631
vertex 0.250000 -2.832031 4.120631
vertex 0.250000 -2.612493 4.263201
endloop
endfacet
facet normal 0.000000 -0.544641 0.838669
outer loop
vertex -0.250000 -2.832031 4.120631
vertex 0.250000 -2.612493 4.263201
vertex -0.250000 -2.612493 4.263201
endloop
endfacet
facet normal 0.000000 -0.499999 0.866026
outer loop
vertex -0.250000 -2.612493 4.263201
vertex 0.250000 -2.612493 4.263201
vertex 0.250000 -2.385794 4.394085
endloop
endfacet
facet normal 0.000000 -0.499999 0.866026
outer loop
vertex -0.250000 -2.612493 4.263201
vertex 0.250000 -2.385794 4.394085
vertex -0.250000 -2.385794 4.394085
endloop
endfacet
facet normal 0.000000 -0.453994 0.891005
outer loop
vertex -0.250000 -2.385794 4.394085
vertex 0.250000 -2.385794 4.394085
vertex 0.250000 -2.152556 4.512927
endloop
endfacet
facet normal 0.000000 -0.453994 0.891005
outer loop
vertex -0.250000 -2.385794 4.394085
vertex 0.250000 -2.152556 4.512927
vertex -0.250000 -2.152556 4.512927
endloop
endfacet
facet normal 0.000000 -0.406733 0.913547
outer loop
vertex -0.250000 -2.152556 4.512927
vertex 0.250000 -2.152556 4.512927
vertex 0.250000 -1.913417 4.619398
endloop
endfacet
facet normal 0.000000 -0.406733 0.913547
outer loop
vertex -0.250000 -2.152556 4.512927
vertex 0.250000 -1.913417 4.619398
vertex -0.250000 -1.913417 4.619398
endloop
endfacet
facet normal 0.000000 -0.358368 0.933580
outer loop
vertex -0.250000 -1.913417 4.619398
vertex 0.250000 -1.913417 4.619398
vertex 0.250000 -1.669034 4.713208
endloop
endfacet
facet normal 0.000000 -0.358368 0.933580
outer loop
vertex -0.250000 -1.913417 4.619398
vertex 0.250000 -1.669034 4.713208
vertex -0.250000 -1.669034 4.713208
endloop
endfacet
facet normal 0.000000 -0.309019 0.951056
outer loop
vertex -0.250000 -1.669034 4.713208
vertex 0.250000 -1.669034 4.713208
vertex 0.250000 -1.420077 4.794099
endloop
endfacet
facet normal 0.000000 -0.309019 0.951056
outer loop
vertex -0.250000 -1.669034 4.713208
vertex 0.250000 -1.420077 4.794099
vertex -0.250000 -1.420077 4.794099
endloop
endfacet
facet normal 0.000000 -0.258815 0.965927
outer loop
vertex -0.250000 -1.420077 4.794099
vertex 0.250000 -1.420077 4.794099
vertex 0.250000 -1.167227 4.861849
endloop
endfacet
facet normal 0.000000 -0.258815 0.965927
outer loop
vertex -0.250000 -1.420077 4.794099
vertex 0.250000 -1.167227 4.861849
vertex -0.250000 -1.167227 4.861849
endloop
endfacet
facet normal 0.000000 -0.207913 0.978147
outer loop
vertex -0.250000 -1.167227 4.861849
vertex 0.250000 -1.167227 4.861849
vertex 0.250000 -0.911177 4.916275
endloop
endfacet
facet normal 0.000000 -0.207913 0.978147
outer loop
vertex -0.250000 -1.167227 4.861849
vertex 0.250000 -0.911177 4.916275
vertex -0.250000 -0.911177 4.916275
endloop
endfacet
facet normal 0.000000 -0.156436 0.987688
outer loop
vertex -0.250000 -0.911177 4.916275
vertex 0.250000 -0.911177 4.916275
vertex 0.250000 -0.652631 4.957225
endloop
endfacet
facet normal 0.000000 -0.156436 0.987688
outer loop
vertex -0.250000 -0.911177 4.916275
vertex 0.250000 -0.652631 4.957225
vertex -0.250000 -0.652631 4.957225
endloop
endfacet
facet normal 0.000000 -0.104530 0.994522
outer loop
vertex -0.250000 -0.652631 4.957225
vertex 0.250000 -0.652631 4.957225
vertex 0.250000 -0.392295 4.984588
endloop
endfacet
facet normal 0.000000 -0.104530 0.994522
outer loop
vertex -0.250000 -0.652631 4.957225
vertex 0.250000 -0.392295 4.984588
vertex -0.250000 -0.392295 4.984588
endloop
endfacet
facet normal 0.000000 -0.052329 0.998630
outer loop
vertex -0.250000 -0.392295 4.984588
vertex 0.250000 -0.392295 4.984588
vertex 0.250000 -0.130885 4.998286
endloop
endfacet
facet normal 0.000000 -0.052329 0.998630
outer loop
vertex -0.250000 -0.392295 4.984588
vertex 0.250000 -0.130885 4.998286
vertex -0.250000 -0.130885 4.998286
endloop
endfacet
facet normal 0.000000 -0.000004 1.000000
outer loop
vertex -0.250000 -0.130885 4.998286
vertex 0.250000 -0.130885 4.998286
vertex 0.250000 0.130885 4.998287
endloop
endfacet
facet normal 0.000000 -0.000004 1.000000
outer loop
vertex -0.250000 -0.130885 4.998286
vertex 0.250000 0.130885 4.998287
vertex -0.250000 0.130885 4.998287
endloop
endfacet
endsolid Exported from Blender-3.6.1
